{
.appVersion = "3109";
classes = (
{
code = "";
name = markFilteringSet1;
},
{
code = "Dda_khar Ddha_khar Ga_khar KTa_khar LPa_khar LYa_khar La_khar MMa_khar MRa_khar Ma_khar PGa_khar PTa_khar RMa_khar SYa_khar TVa_khar Tha_khar Tta_khar Za_khar";
name = class1;
},
{
code = "JNya_khar KSsa_khar KhKSsa_khar La_ZWJ_Ya_khar RTa_khar SPa_khar ShPa_khar TTta_khar";
name = class3;
},
{
code = "Ca_khar Dha_khar Ja_khar Nya_khar Sa_khar Ssa_khar TSa_khar";
name = class5;
},
{
code = "Virama_khar SubMa_khar SubMa.alt SubMa.alt1 SubMa.alt2 SubMa.alt3 SubYa_khar SubYa.alt SubYa.alt1 SubYa.alt3 SubYa.alt4 SubRa_khar SubRa.alt SubRa.alt1 SubRa.alt3 SubRa.alt4 SubLa_khar SubLa.alt SubVa_khar SubVa.alt SubVa.alt1 SubVa.alt2 SubVa.alt3 SubVa.alt4";
name = markFilteringSet3;
},
{
code = "Ca_khar Dha_khar Gha_khar Ja_khar Ka_khar Kka_khar Nya_khar Sa_khar Ssa_khar Ya_khar space";
name = class7;
},
{
code = "Da_khar Dda_khar Ddha_khar De_khar Ga_khar Ha_khar He_khar Hi_khar La_khar Nna_khar TTta_khar Ta_khar Tha_khar Tta_khar Za_khar";
name = class8;
},
{
code = "Bha_khar Cha_khar Da_khar Dda_khar Ddha_khar Ga_khar Gha_khar Ha_khar KTa_khar LYa_khar La_khar MMa_khar MRa_khar PGa_khar PTa_khar Pa_khar Pha_khar RMa_khar SYa_khar ShPa_khar TVa_khar Ta_khar Tha_khar Tta_khar Za_khar";
name = class9;
},
{
code = "KSsa_khar KhKSsa_khar MMe_khar RTa_khar TTta_khar Va_khar Ya_khar";
name = class10;
},
{
code = "I_khar U_khar vocR_khar E_khar O_khar Virama_khar I_diagonal I_diagonal_short I_vertical E_vertical O_diag.short O_vertical O_vertical_short U.alt U.alt2 U.alt3 U_spacing\012";
name = Vowels;
},
{
code = "Ba_khar Ca_khar Dda_khar Ga_khar Gha_khar Ka_khar Kka_khar Nna_khar Ra_khar Ttha_khar Tttha_khar VHa_khar Va_khar Za_khar";
name = class12;
},
{
code = "JNya_khar Ja_khar KSsa_khar KhKSsa_khar STa_khar STha_khar TRa_khar Ta_khar uni25CC";
name = class13;
},
{
code = "Bha_khar Cha_khar Ddha_khar Dha_khar Nya_khar SPa_khar TTta_khar Tta_khar";
name = class14;
},
{

glyphs = (
{
glyphname = .notdef;
lastChange = "2019-12-16 17:24:49 +0000";
layers = (
{
layerId = UUID0;
paths = (
{
closed = 1;
nodes = (
"505 0 LINE",
"505 714 LINE",
"94 714 LINE",
"94 0 LINE"
);
},
{
closed = 1;
nodes = (
"145 663 LINE",
"454 663 LINE",
"454 51 LINE",
"145 51 LINE"
);
}
);
width = 600;
}
);
},
{
glyphname = hyphen;
lastChange = "2019-12-16 17:25:29 +0000";
layers = (
{
layerId = UUID0;
paths = (
{
closed = 1;
nodes = (
"282 229 LINE",
"282 307 LINE",
"40 307 LINE",
"40 229 LINE"
);
}
);
width = 322;
}
);
leftKerningGroup = hyphen.right;
rightKerningGroup = hyphen.left;
unicode = 002D;
},
{
glyphname = hyphentwo;
lastChange = "2019-12-16 17:25:29 +0000";
layers = (
{
layerId = UUID0;
paths = (
{
closed = 1;
nodes = (
"282 229 LINE",
"282 307 LINE",
"40 307 LINE",
"40 229 LINE"
);
}
);
width = 322;
}
);
widthMetricsKey = "=hyphen";
unicode = 2010;
},
{
glyphname = A_khar;
lastChange = "2019-12-16 17:27:39 +0000";
layers = (
{
anchors = (
{
name = Anchor12;
position = "{334, 0}";
},
{
name = Anchor14;
position = "{327, 712}";
},
{
name = Anchor16;
position = "{287, 0}";
},
{
name = Anchor18;
position = "{431, -6}";
},
{
name = Anchor20;
position = "{371, 60}";
},
{
name = Anchor22;
position = "{370, 186}";
},
{
name = Anchor28;
position = "{424, 100}";
},
{
name = Anchor30;
position = "{469, 406}";
},
{
name = Anchor32;
position = "{397, 275}";
},
{
name = Anchor4;
position = "{302, 425}";
},
{
name = Anchor6;
position = "{332, 0}";
}
);
layerId = UUID0;
paths = (
{
closed = 1;
nodes = (
"429 109 OFFCURVE",
"516 313 OFFCURVE",
"516 478 CURVE SMOOTH",
"516 613 OFFCURVE",
"461 716 OFFCURVE",
"294 716 CURVE SMOOTH",
"161 716 OFFCURVE",
"88 631 OFFCURVE",
"88 536 CURVE SMOOTH",
"88 483 OFFCURVE",
"110 428 OFFCURVE",
"158 380 CURVE",
"221 432 LINE",
"188 467 OFFCURVE",
"172 505 OFFCURVE",
"172 539 CURVE SMOOTH",
"172 595 OFFCURVE",
"214 642 OFFCURVE",
"294 642 CURVE SMOOTH",
"395 642 OFFCURVE",
"430 570 OFFCURVE",
"430 474 CURVE SMOOTH",
"430 316 OFFCURVE",
"336 100 OFFCURVE",
"289 7 CURVE",
"368 -15 LINE"
);
}
);
width = 589;
}
);
unicode = 10A00;
category = Letter;
},
{
glyphname = I_khar;
lastChange = "2019-12-16 17:27:09 +0000";
layers = (
{
anchors = (
{
name = _Anchor4;
position = "{-131, 560}";
}
);
layerId = UUID0;
paths = (
{
closed = 1;
nodes = (
"-156 362 LINE",
"-131 451 OFFCURVE",
"-106 546 OFFCURVE",
"-87 639 CURVE SMOOTH",
"-56 794 LINE",
"-96 806 LINE",
"-119 695 OFFCURVE",
"-163 529 OFFCURVE",
"-208 381 CURVE"
);
}
);
width = 0;
}
);
unicode = 10A01;
category = Mark;
subCategory = Nonspacing;
},
{
glyphname = U_khar;
lastChange = "2019-12-16 17:27:38 +0000";
layers = (
{
anchors = (
{
name = Anchor36;
position = "{-88, -114}";
},
{
name = Anchor38;
position = "{-143, -51}";
},
{
name = Anchor40;
position = "{-232, -114}";
},
{
name = _Anchor20;
position = "{-69, 60}";
}
);
layerId = UUID0;
paths = (
{
closed = 1;
nodes = (
"-284 -51 OFFCURVE",
"-307 -31 OFFCURVE",
"-307 -6 CURVE SMOOTH",
"-307 20 OFFCURVE",
"-285 38 OFFCURVE",
"-246 38 CURVE SMOOTH",
"-212 38 OFFCURVE",
"-184 27 OFFCURVE",
"-150 5 CURVE",
"-174 -39 OFFCURVE",
"-206 -51 OFFCURVE",
"-243 -51 CURVE SMOOTH"
);
},
{
closed = 1;
nodes = (
"-169 -114 OFFCURVE",
"-104 -92 OFFCURVE",
"-64 0 CURVE",
"-131 54 OFFCURVE",
"-186 83 OFFCURVE",
"-245 83 CURVE SMOOTH",
"-310 83 OFFCURVE",
"-357 45 OFFCURVE",
"-357 -21 CURVE SMOOTH",
"-357 -76 OFFCURVE",
"-298 -114 OFFCURVE",
"-232 -114 CURVE SMOOTH"
);
}
);
width = 0;
}
);
unicode = 10A02;
category = Mark;
subCategory = Nonspacing;
},
{
glyphname = vocR_khar;
lastChange = "2019-12-16 17:27:35 +0000";
layers = (
{
anchors = (
{
name = _Anchor26;
position = "{-190, 223}";
}
);
layerId = UUID0;
paths = (
{
closed = 1;
nodes = (
"-127 97 OFFCURVE",
"-60 116 OFFCURVE",
"-60 177 CURVE SMOOTH",
"-60 287 OFFCURVE",
"-259 212 OFFCURVE",
"-259 274 CURVE SMOOTH",
"-259 287 OFFCURVE",
"-256 303 OFFCURVE",
"-203 303 CURVE SMOOTH",
"-178 303 OFFCURVE",
"-143 295 OFFCURVE",
"-112 285 CURVE",
"-93 333 LINE",
"-129 345 OFFCURVE",
"-164 350 OFFCURVE",
"-207 350 CURVE SMOOTH",
"-272 350 OFFCURVE",
"-321 321 OFFCURVE",
"-321 268 CURVE SMOOTH",
"-321 156 OFFCURVE",
"-124 239 OFFCURVE",
"-124 172 CURVE SMOOTH",
"-124 149 OFFCURVE",
"-162 146 OFFCURVE",
"-202 146 CURVE SMOOTH",
"-238 146 OFFCURVE",
"-278 155 OFFCURVE",
"-299 155 CURVE SMOOTH",
"-319 155 OFFCURVE",
"-356 153 OFFCURVE",
"-376 146 CURVE",
"-364 99 LINE",
"-347 103 OFFCURVE",
"-322 103 OFFCURVE",
"-298 103 CURVE SMOOTH",
"-275 103 OFFCURVE",
"-246 97 OFFCURVE",
"-202 97 CURVE SMOOTH"
);
}
);
width = 0;
}
);
unicode = 10A03;
category = Mark;
subCategory = Nonspacing;
},
{
glyphname = E_khar;
lastChange = "2019-12-16 17:27:33 +0000";
layers = (
{
anchors = (
{
name = _Anchor14;
position = "{-263, 714}";
},
{
name = _Anchor34;
position = "{-263, 714}";
}
);
layerId = UUID0;
paths = (
{
closed = 1;
nodes = (
"-218 774 LINE",
"-164 856 OFFCURVE",
"-106 942 OFFCURVE",
"-54 1010 CURVE",
"-104 1046 LINE",
"-166 971 OFFCURVE",
"-237 880 OFFCURVE",
"-307 774 CURVE"
);
}
);
width = 0;
}
);
unicode = 10A05;
category = Mark;
subCategory = Nonspacing;
},
{
glyphname = O_khar;
lastChange = "2019-12-16 17:27:14 +0000";
layers = (
{
anchors = (
{
name = _Anchor30;
position = "{-78, 267}";
}
);
layerId = UUID0;
paths = (
{
closed = 1;
nodes = (
"-78 247 LINE",
"-185 188 OFFCURVE",
"-360 99 OFFCURVE",
"-481 47 CURVE",
"-447 -10 LINE",
"-315 53 OFFCURVE",
"-177 124 OFFCURVE",
"-54 200 CURVE"
);
}
);
width = 0;
}
);
unicode = 10A06;
category = Mark;
subCategory = Nonspacing;
},
{
glyphname = Lengthmark_khar;
lastChange = "2019-12-16 17:27:12 +0000";
layers = (
{
anchors = (
{
name = _Anchor28;
position = "{-172, 226}";
}
);
layerId = UUID0;
paths = (
{
closed = 1;
nodes = (
"-67 36 OFFCURVE",
"-58 90 OFFCURVE",
"-58 127 CURVE SMOOTH",
"-58 231 OFFCURVE",
"-113 274 OFFCURVE",
"-174 280 CURVE",
"-192 226 LINE",
"-188 226 LINE SMOOTH",
"-133 226 OFFCURVE",
"-117 186 OFFCURVE",
"-117 130 CURVE SMOOTH",
"-117 94 OFFCURVE",
"-125 45 OFFCURVE",
"-134 1 CURVE",
"-77 -9 LINE"
);
}
);
width = 0;
}
);
unicode = 10A0C;
category = Mark;
subCategory = Nonspacing;
},
{
glyphname = Doublering_khar;
lastChange = "2019-12-16 17:27:38 +0000";
layers = (
{
anchors = (
{
name = Anchor38;
position = "{-215, -333}";
},
{
name = Anchor40;
position = "{-221, -243}";
},
{
name = _Anchor12;
position = "{-220, 0}";
},
{
name = _Anchor40;
position = "{-220, 0}";
}
);
layerId = UUID0;
paths = (
{
closed = 1;
nodes = (
"-278 -243 OFFCURVE",
"-247 -224 OFFCURVE",
"-221 -202 CURVE",
"-195 -224 OFFCURVE",
"-163 -243 OFFCURVE",
"-122 -243 CURVE SMOOTH",
"-42 -243 OFFCURVE",
"-2 -195 OFFCURVE",
"-2 -149 CURVE SMOOTH",
"-2 -105 OFFCURVE",
"-38 -62 OFFCURVE",
"-113 -62 CURVE SMOOTH",
"-157 -62 OFFCURVE",
"-188 -93 OFFCURVE",
"-218 -124 CURVE",
"-247 -93 OFFCURVE",
"-278 -62 OFFCURVE",
"-326 -62 CURVE SMOOTH",
"-401 -62 OFFCURVE",
"-438 -105 OFFCURVE",
"-438 -149 CURVE SMOOTH",
"-438 -195 OFFCURVE",
"-397 -243 OFFCURVE",
"-318 -243 CURVE SMOOTH"
);
},
{
closed = 1;
nodes = (
"-350 -192 OFFCURVE",
"-366 -171 OFFCURVE",
"-366 -151 CURVE SMOOTH",
"-366 -134 OFFCURVE",
"-355 -119 OFFCURVE",
"-329 -119 CURVE SMOOTH",
"-305 -119 OFFCURVE",
"-283 -140 OFFCURVE",
"-258 -164 CURVE",
"-277 -181 OFFCURVE",
"-297 -192 OFFCURVE",
"-320 -192 CURVE SMOOTH"
);
},
{
closed = 1;
nodes = (
"-142 -192 OFFCURVE",
"-162 -180 OFFCURVE",
"-181 -164 CURVE",
"-158 -139 OFFCURVE",
"-138 -119 OFFCURVE",
"-118 -119 CURVE SMOOTH",
"-88 -119 OFFCURVE",
"-73 -137 OFFCURVE",
"-73 -155 CURVE SMOOTH",
"-73 -174 OFFCURVE",
"-88 -192 OFFCURVE",
"-117 -192 CURVE SMOOTH"
);
}
);
width = 0;
}
);
unicode = 10A0D;
category = Mark;
subCategory = Nonspacing;
},
{
glyphname = Anusvara_khar;
lastChange = "2019-12-16 17:27:38 +0000";
layers = (
{
anchors = (
{
name = Anchor36;
position = "{-11, -207}";
},
{
name = Anchor40;
position = "{-210, -207}";
},
{
name = _Anchor16;
position = "{-209, 0}";
},
{
name = _Anchor38;
position = "{-209, 0}";
}
);
layerId = UUID0;
paths = (
{
closed = 1;
nodes = (
"-82 -207 OFFCURVE",
"-11 -159 OFFCURVE",
"-11 -87 CURVE SMOOTH",
"-11 -11 OFFCURVE",
"-70 34 OFFCURVE",
"-178 69 CURVE",
"-209 3 LINE",
"-125 -11 OFFCURVE",
"-87 -44 OFFCURVE",
"-87 -79 CURVE SMOOTH",
"-87 -115 OFFCURVE",
"-131 -143 OFFCURVE",
"-187 -143 CURVE SMOOTH",
"-284 -143 OFFCURVE",
"-388 -97 OFFCURVE",
"-441 -59 CURVE",
"-481 -112 LINE",
"-441 -141 OFFCURVE",
"-331 -207 OFFCURVE",
"-184 -207 CURVE SMOOTH"
);
}
);
width = 0;
}
);
unicode = 10A0E;
category = Mark;
subCategory = Nonspacing;
},
{
glyphname = Visarga_khar;
lastChange = "2019-12-16 17:27:39 +0000";
layers = (
{
anchors = (
{
name = Anchor34;
position = "{-200, 913}";
},
{
name = _Anchor14;
position = "{-200, 714}";
},
{
name = _Anchor34;
position = "{-200, 714}";
}
);
layerId = UUID0;
paths = (
{
closed = 1;
nodes = (
"-64 773 OFFCURVE",
"-45 793 OFFCURVE",
"-45 841 CURVE SMOOTH",
"-45 890 OFFCURVE",
"-64 908 OFFCURVE",
"-98 908 CURVE SMOOTH",
"-132 908 OFFCURVE",
"-149 890 OFFCURVE",
"-149 841 CURVE SMOOTH",
"-149 793 OFFCURVE",
"-132 773 OFFCURVE",
"-98 773 CURVE SMOOTH"
);
},
{
closed = 1;
nodes = (
"-274 773 OFFCURVE",
"-255 793 OFFCURVE",
"-255 841 CURVE SMOOTH",
"-255 890 OFFCURVE",
"-274 908 OFFCURVE",
"-308 908 CURVE SMOOTH",
"-342 908 OFFCURVE",
"-359 890 OFFCURVE",
"-359 841 CURVE SMOOTH",
"-359 793 OFFCURVE",
"-342 773 OFFCURVE",
"-308 773 CURVE SMOOTH"
);
}
);
width = 0;
}
);
unicode = 10A0F;
category = Mark;
subCategory = Nonspacing;
},
{
glyphname = Ka_khar;
lastChange = "2019-12-16 17:27:41 +0000";
layers = (
{
anchors = (
{
name = Anchor10;
position = "{330, -7}";
},
{
name = Anchor12;
position = "{347, 0}";
},
{
name = Anchor14;
position = "{312, 712}";
},
{
name = Anchor16;
position = "{297, 0}";
},
{
name = Anchor18;
position = "{407, -52}";
},
{
name = Anchor20;
position = "{371, 60}";
},
{
name = Anchor22;
position = "{359, 186}";
},
{
name = Anchor26;
position = "{417, 155}";
},
{
name = Anchor28;
position = "{699, 100}";
},
{
name = Anchor30;
position = "{469, 406}";
},
{
name = Anchor32;
position = "{397, 275}";
},
{
name = Anchor4;
position = "{302, 425}";
},
{
name = Anchor6;
position = "{644, 13}";
},
{
name = Anchor8;
position = "{333, 0}";
}
);
layerId = UUID0;
paths = (
{
closed = 1;
nodes = (
"409 68 OFFCURVE",
"462 188 OFFCURVE",
"492 307 CURVE",
"602 280 OFFCURVE",
"654 225 OFFCURVE",
"654 152 CURVE SMOOTH",
"654 109 OFFCURVE",
"633 71 OFFCURVE",
"607 36 CURVE",
"667 -14 LINE",
"706 40 OFFCURVE",
"740 89 OFFCURVE",
"740 161 CURVE SMOOTH",
"740 282 OFFCURVE",
"647 353 OFFCURVE",
"507 380 CURVE",
"513 414 OFFCURVE",
"516 446 OFFCURVE",
"516 478 CURVE SMOOTH",
"516 613 OFFCURVE",
"461 716 OFFCURVE",
"294 716 CURVE SMOOTH",
"161 716 OFFCURVE",
"88 631 OFFCURVE",
"88 536 CURVE SMOOTH",
"88 483 OFFCURVE",
"110 428 OFFCURVE",
"158 380 CURVE",
"221 432 LINE",
"188 467 OFFCURVE",
"172 505 OFFCURVE",
"172 539 CURVE SMOOTH",
"172 595 OFFCURVE",
"214 642 OFFCURVE",
"294 642 CURVE SMOOTH",
"395 642 OFFCURVE",
"430 570 OFFCURVE",
"430 474 CURVE SMOOTH",
"430 316 OFFCURVE",
"336 100 OFFCURVE",
"288 6 CURVE",
"368 -16 LINE"
);
}
);
width = 795;
}
);
unicode = 10A10;
category = Letter;
},
{
glyphname = Kha_khar;
lastChange = "2019-12-16 17:27:41 +0000";
layers = (
{
anchors = (
{
name = Anchor12;
position = "{286, 0}";
},
{
name = Anchor14;
position = "{318, 712}";
},
{
name = Anchor16;
position = "{315, 1}";
},
{
name = Anchor18;
position = "{448, -6}";
},
{
name = Anchor20;
position = "{389, 60}";
},
{
name = Anchor22;
position = "{376, 186}";
},
{
name = Anchor26;
position = "{412, 125}";
},
{
name = Anchor28;
position = "{439, 100}";
},
{
name = Anchor30;
position = "{342, 266}";
},
{
name = Anchor32;
position = "{386, 65}";
},
{
name = Anchor4;
position = "{276, 425}";
},
{
name = Anchor6;
position = "{349, 0}";
}
);
layerId = UUID0;
paths = (
{
closed = 1;
nodes = (
"429 70 OFFCURVE",
"455 122 OFFCURVE",
"455 180 CURVE SMOOTH",
"455 281 OFFCURVE",
"412 308 OFFCURVE",
"314 308 CURVE SMOOTH",
"167 308 OFFCURVE",
"150 379 OFFCURVE",
"150 445 CURVE SMOOTH",
"150 602 OFFCURVE",
"211 645 OFFCURVE",
"315 645 CURVE SMOOTH",
"359 645 OFFCURVE",
"436 631 OFFCURVE",
"490 598 CURVE",
"522 670 LINE",
"467 701 OFFCURVE",
"374 720 OFFCURVE",
"320 720 CURVE SMOOTH",
"164 720 OFFCURVE",
"66 643 OFFCURVE",
"66 442 CURVE SMOOTH",
"66 337 OFFCURVE",
"126 234 OFFCURVE",
"297 234 CURVE SMOOTH",
"361 234 OFFCURVE",
"369 207 OFFCURVE",
"369 178 CURVE SMOOTH",
"369 131 OFFCURVE",
"331 56 OFFCURVE",
"306 7 CURVE",
"385 -15 LINE"
);
}
);
width = 573;
}
);
unicode = 10A11;
category = Letter;
},
{
glyphname = Ga_khar;
lastChange = "2019-12-16 17:27:41 +0000";
layers = (
{
anchors = (
{
name = Anchor12;
position = "{340, 0}";
},
{
name = Anchor14;
position = "{375, 712}";
},
{
name = Anchor16;
position = "{250, -10}";
},
{
name = Anchor18;
position = "{349, -20}";
},
{
name = Anchor20;
position = "{303, 150}";
},
{
name = Anchor22;
position = "{266, 186}";
},
{
name = Anchor26;
position = "{282, 175}";
},
{
name = Anchor28;
position = "{303, 100}";
},
{
name = Anchor30;
position = "{367, 447}";
},
{
name = Anchor32;
position = "{330, 205}";
},
{
name = Anchor4;
position = "{217, 426}";
},
{
name = Anchor6;
position = "{244, 18}";
}
);
layerId = UUID0;
paths = (
{
closed = 1;
nodes = (
"301 80 OFFCURVE",
"337 266 OFFCURVE",
"358 355 CURVE",
"527 358 OFFCURVE",
"651 439 OFFCURVE",
"651 552 CURVE SMOOTH",
"651 623 OFFCURVE",
"598 680 OFFCURVE",
"509 680 CURVE SMOOTH",
"412 680 OFFCURVE",
"350 612 OFFCURVE",
"295 425 CURVE",
"224 441 OFFCURVE",
"180 484 OFFCURVE",
"180 553 CURVE SMOOTH",
"180 611 OFFCURVE",
"207 654 OFFCURVE",
"235 698 CURVE",
"169 732 LINE",
"139 692 OFFCURVE",
"99 630 OFFCURVE",
"99 546 CURVE SMOOTH",
"99 447 OFFCURVE",
"171 381 OFFCURVE",
"277 361 CURVE",
"254 265 OFFCURVE",
"220 87 OFFCURVE",
"207 -7 CURVE",
"287 -15 LINE"
);
},
{
closed = 1;
nodes = (
"421 580 OFFCURVE",
"457 606 OFFCURVE",
"505 606 CURVE SMOOTH",
"547 606 OFFCURVE",
"567 580 OFFCURVE",
"567 550 CURVE SMOOTH",
"567 472 OFFCURVE",
"473 424 OFFCURVE",
"375 419 CURVE"
);
}
);
width = 680;
}
);
unicode = 10A12;
category = Letter;
},
{
glyphname = Gha_khar;
lastChange = "2019-12-16 17:27:41 +0000";
layers = (
{
anchors = (
{
name = Anchor10;
position = "{240, 0}";
},
{
name = Anchor12;
position = "{240, 0}";
},
{
name = Anchor14;
position = "{375, 712}";
},
{
name = Anchor16;
position = "{252, -11}";
},
{
name = Anchor18;
position = "{349, -21}";
},
{
name = Anchor20;
position = "{303, 150}";
},
{
name = Anchor22;
position = "{256, 186}";
},
{
name = Anchor26;
position = "{275, 115}";
},
{
name = Anchor28;
position = "{561, 100}";
},
{
name = Anchor30;
position = "{367, 447}";
},
{
name = Anchor32;
position = "{290, 175}";
},
{
name = Anchor4;
position = "{217, 426}";
},
{
name = Anchor6;
position = "{488, 13}";
},
{
name = Anchor8;
position = "{243, 1}";
}
);
layerId = UUID0;
paths = (
{
closed = 1;
nodes = (
"546 40 OFFCURVE",
"584 85 OFFCURVE",
"584 151 CURVE SMOOTH",
"584 243 OFFCURVE",
"514 296 OFFCURVE",
"349 313 CURVE",
"358 355 LINE",
"527 358 OFFCURVE",
"651 439 OFFCURVE",
"651 552 CURVE SMOOTH",
"651 623 OFFCURVE",
"598 680 OFFCURVE",
"509 680 CURVE SMOOTH",
"412 680 OFFCURVE",
"350 612 OFFCURVE",
"295 425 CURVE",
"224 441 OFFCURVE",
"180 484 OFFCURVE",
"180 553 CURVE SMOOTH",
"180 611 OFFCURVE",
"207 654 OFFCURVE",
"235 698 CURVE",
"169 732 LINE",
"139 692 OFFCURVE",
"99 630 OFFCURVE",
"99 546 CURVE SMOOTH",
"99 447 OFFCURVE",
"171 381 OFFCURVE",
"277 361 CURVE",
"254 265 OFFCURVE",
"220 87 OFFCURVE",
"207 -7 CURVE",
"287 -15 LINE",
"296 50 OFFCURVE",
"316 157 OFFCURVE",
"335 247 CURVE",
"478 226 OFFCURVE",
"498 188 OFFCURVE",
"498 148 CURVE SMOOTH",
"498 110 OFFCURVE",
"475 72 OFFCURVE",
"451 36 CURVE",
"511 -14 LINE"
);
},
{
closed = 1;
nodes = (
"421 580 OFFCURVE",
"457 606 OFFCURVE",
"505 606 CURVE SMOOTH",
"547 606 OFFCURVE",
"567 580 OFFCURVE",
"567 550 CURVE SMOOTH",
"567 472 OFFCURVE",
"473 424 OFFCURVE",
"375 419 CURVE"
);
}
);
width = 680;
}
);
unicode = 10A13;
category = Letter;
},
{
glyphname = Ca_khar;
lastChange = "2019-12-16 17:27:41 +0000";
layers = (
{
anchors = (
{
name = Anchor10;
position = "{262, 0}";
},
{
name = Anchor12;
position = "{292, 0}";
},
{
name = Anchor14;
position = "{314, 712}";
},
{
name = Anchor16;
position = "{305, 0}";
},
{
name = Anchor18;
position = "{344, -40}";
},
{
name = Anchor20;
position = "{349, 145}";
},
{
name = Anchor22;
position = "{350, 186}";
},
{
name = Anchor26;
position = "{402, 175}";
},
{
name = Anchor28;
position = "{402, 100}";
},
{
name = Anchor30;
position = "{460, 421}";
},
{
name = Anchor32;
position = "{412, 205}";
},
{
name = Anchor4;
position = "{142, 425}";
},
{
name = Anchor6;
position = "{262, 0}";
}
);
layerId = UUID0;
paths = (
{
closed = 1;
nodes = (
"387 70 OFFCURVE",
"501 199 OFFCURVE",
"501 320 CURVE SMOOTH",
"501 396 OFFCURVE",
"463 460 OFFCURVE",
"344 471 CURVE",
"386 498 OFFCURVE",
"486 606 OFFCURVE",
"529 678 CURVE",
"469 719 LINE",
"425 658 OFFCURVE",
"393 616 OFFCURVE",
"322 616 CURVE SMOOTH",
"251 616 OFFCURVE",
"185 677 OFFCURVE",
"167 733 CURVE",
"99 691 LINE",
"124 631 OFFCURVE",
"207 537 OFFCURVE",
"317 537 CURVE SMOOTH",
"320 537 OFFCURVE",
"329 538 OFFCURVE",
"336 539 CURVE",
"301 506 OFFCURVE",
"211 464 OFFCURVE",
"187 455 CURVE",
"205 386 LINE",
"233 397 OFFCURVE",
"282 404 OFFCURVE",
"311 404 CURVE SMOOTH",
"349 404 OFFCURVE",
"415 388 OFFCURVE",
"415 318 CURVE SMOOTH",
"415 217 OFFCURVE",
"330 118 OFFCURVE",
"228 26 CURVE",
"291 -17 LINE"
);
}
);
width = 584;
}
);
unicode = 10A15;
category = Letter;
},
{
glyphname = Cha_khar;
lastChange = "2019-12-16 17:27:41 +0000";
layers = (
{
anchors = (
{
name = Anchor10;
position = "{265, 0}";
},
{
name = Anchor12;
position = "{317, 0}";
},
{
name = Anchor14;
position = "{420, 712}";
},
{
name = Anchor16;
position = "{268, -10}";
},
{
name = Anchor18;
position = "{349, -59}";
},
{
name = Anchor20;
position = "{328, 150}";
},
{
name = Anchor22;
position = "{302, 186}";
},
{
name = Anchor26;
position = "{311, 155}";
},
{
name = Anchor28;
position = "{587, 100}";
},
{
name = Anchor30;
position = "{294, 187}";
},
{
name = Anchor32;
position = "{367, 75}";
},
{
name = Anchor4;
position = "{252, 425}";
},
{
name = Anchor6;
position = "{539, 89}";
},
{
name = Anchor8;
position = "{269, 18}";
}
);
layerId = UUID0;
paths = (
{
closed = 1;
nodes = (
"341 441 OFFCURVE",
"341 441 OFFCURVE",
"343 441 CURVE SMOOTH",
"477 441 OFFCURVE",
"552 369 OFFCURVE",
"552 267 CURVE SMOOTH",
"552 221 OFFCURVE",
"527 155 OFFCURVE",
"497 98 CURVE",
"571 69 LINE",
"600 120 OFFCURVE",
"638 212 OFFCURVE",
"638 274 CURVE SMOOTH",
"638 397 OFFCURVE",
"562 472 OFFCURVE",
"456 501 CURVE",
"504 568 OFFCURVE",
"570 579 OFFCURVE",
"635 678 CURVE",
"570 719 LINE",
"526 658 OFFCURVE",
"487 616 OFFCURVE",
"428 616 CURVE SMOOTH",
"357 616 OFFCURVE",
"291 677 OFFCURVE",
"273 733 CURVE",
"205 691 LINE",
"228 635 OFFCURVE",
"300 550 OFFCURVE",
"398 538 CURVE",
"390 531 OFFCURVE",
"381 523 OFFCURVE",
"373 514 CURVE",
"366 515 OFFCURVE",
"358 515 OFFCURVE",
"350 515 CURVE SMOOTH",
"207 515 OFFCURVE",
"66 438 OFFCURVE",
"66 289 CURVE SMOOTH",
"66 236 OFFCURVE",
"88 181 OFFCURVE",
"136 133 CURVE",
"199 185 LINE",
"166 220 OFFCURVE",
"150 258 OFFCURVE",
"150 292 CURVE SMOOTH",
"150 393 OFFCURVE",
"228 441 OFFCURVE",
"337 441 CURVE"
);
},
{
closed = 1;
nodes = (
"344 458 LINE",
"297 300 OFFCURVE",
"249 112 OFFCURVE",
"233 -1 CURVE",
"312 -15 LINE",
"329 99 OFFCURVE",
"381 292 OFFCURVE",
"429 451 CURVE"
);
}
);
width = 715;
}
);
unicode = 10A16;
category = Letter;
},
{
glyphname = Ja_khar;
lastChange = "2019-12-16 17:27:41 +0000";
layers = (
{
anchors = (
{
name = Anchor10;
position = "{101, 0}";
},
{
name = Anchor12;
position = "{279, 0}";
},
{
name = Anchor14;
position = "{338, 712}";
},
{
name = Anchor16;
position = "{158, 5}";
},
{
name = Anchor18;
position = "{199, -25}";
},
{
name = Anchor20;
position = "{196, 149}";
},
{
name = Anchor22;
position = "{200, 186}";
},
{
name = Anchor26;
position = "{279, 175}";
},
{
name = Anchor28;
position = "{239, 100}";
},
{
name = Anchor30;
position = "{409, 467}";
},
{
name = Anchor32;
position = "{279, 275}";
},
{
name = Anchor4;
position = "{197, 470}";
},
{
name = Anchor6;
position = "{101, 0}";
}
);
layerId = UUID0;
paths = (
{
closed = 1;
nodes = (
"274 107 OFFCURVE",
"513 449 OFFCURVE",
"563 704 CURVE",
"481 718 LINE",
"466 641 OFFCURVE",
"433 552 OFFCURVE",
"390 463 CURVE",
"268 591 OFFCURVE",
"207 690 OFFCURVE",
"189 730 CURVE",
"113 686 LINE",
"132 640 OFFCURVE",
"203 523 OFFCURVE",
"345 378 CURVE",
"265 235 OFFCURVE",
"159 102 OFFCURVE",
"84 41 CURVE",
"132 -15 LINE"
);
}
);
width = 559;
}
);
unicode = 10A17;
category = Letter;
},
{
glyphname = Nya_khar;
lastChange = "2019-12-16 17:27:41 +0000";
layers = (
{
anchors = (
{
name = Anchor10;
position = "{14, 0}";
},
{
name = Anchor12;
position = "{314, 0}";
},
{
name = Anchor14;
position = "{408, 712}";
},
{
name = Anchor16;
position = "{68, 5}";
},
{
name = Anchor18;
position = "{111, -27}";
},
{
name = Anchor20;
position = "{130, 165}";
},
{
name = Anchor22;
position = "{102, 186}";
},
{
name = Anchor26;
position = "{154, 155}";
},
{
name = Anchor28;
position = "{144, 100}";
},
{
name = Anchor30;
position = "{259, 431}";
},
{
name = Anchor32;
position = "{214, 245}";
},
{
name = Anchor4;
position = "{363, 425}";
},
{
name = Anchor6;
position = "{14, 0}";
}
);
layerId = UUID0;
paths = (
{
closed = 1;
nodes = (
"103 34 OFFCURVE",
"192 130 OFFCURVE",
"252 337 CURVE",
"279 330 OFFCURVE",
"311 327 OFFCURVE",
"347 327 CURVE SMOOTH",
"462 327 OFFCURVE",
"570 363 OFFCURVE",
"570 484 CURVE SMOOTH",
"570 531 OFFCURVE",
"555 562 OFFCURVE",
"555 604 CURVE SMOOTH",
"555 628 OFFCURVE",
"578 636 OFFCURVE",
"622 642 CURVE",
"597 711 LINE",
"532 711 OFFCURVE",
"474 680 OFFCURVE",
"474 606 CURVE SMOOTH",
"474 557 OFFCURVE",
"484 525 OFFCURVE",
"484 482 CURVE SMOOTH",
"484 407 OFFCURVE",
"424 398 OFFCURVE",
"349 398 CURVE SMOOTH",
"324 398 OFFCURVE",
"296 401 OFFCURVE",
"270 407 CURVE",
"293 495 OFFCURVE",
"317 608 OFFCURVE",
"331 710 CURVE",
"246 717 LINE",
"227 569 OFFCURVE",
"179 370 OFFCURVE",
"157 300 CURVE SMOOTH",
"124 195 OFFCURVE",
"49 81 OFFCURVE",
"-3 41 CURVE",
"37 -22 LINE"
);
}
);
width = 629;
}
);
unicode = 10A19;
category = Letter;
},
{
glyphname = Tta_khar;
lastChange = "2019-12-16 17:27:41 +0000";
layers = (
{
anchors = (
{
name = Anchor10;
position = "{422, -37}";
},
{
name = Anchor12;
position = "{323, 0}";
},
{
name = Anchor14;
position = "{298, 712}";
},
{
name = Anchor16;
position = "{328, -90}";
},
{
name = Anchor18;
position = "{309, -31}";
},
{
name = Anchor20;
position = "{85, 0}";
},
{
name = Anchor22;
position = "{349, -45}";
},
{
name = Anchor26;
position = "{344, 351}";
},
{
name = Anchor28;
position = "{477, 117}";
},
{
name = Anchor30;
position = "{319, 421}";
},
{
name = Anchor32;
position = "{361, 430}";
},
{
name = Anchor4;
position = "{174, 426}";
},
{
name = Anchor6;
position = "{231, -92}";
},
{
name = Anchor8;
position = "{270, -50}";
}
);
layerId = UUID0;
paths = (
{
closed = 1;
nodes = (
"284 56 OFFCURVE",
"401 129 OFFCURVE",
"581 129 CURVE",
"581 203 LINE",
"450 203 OFFCURVE",
"351 168 OFFCURVE",
"275 130 CURVE",
"317 214 OFFCURVE",
"363 317 OFFCURVE",
"402 408 CURVE SMOOTH",
"447 513 OFFCURVE",
"490 610 OFFCURVE",
"518 655 CURVE",
"492 721 LINE",
"375 648 OFFCURVE",
"258 575 OFFCURVE",
"78 575 CURVE",
"78 501 LINE",
"216 501 OFFCURVE",
"317 538 OFFCURVE",
"393 578 CURVE",
"374 537 OFFCURVE",
"353 489 OFFCURVE",
"332 440 CURVE SMOOTH",
"270 296 OFFCURVE",
"196 135 OFFCURVE",
"142 49 CURVE",
"167 -17 LINE"
);
}
);
width = 647;
}
);
unicode = 10A1A;
category = Letter;
},
{
glyphname = Ttha_khar;
lastChange = "2019-12-16 17:27:41 +0000";
layers = (
{
anchors = (
{
name = Anchor12;
position = "{307, 0}";
},
{
name = Anchor14;
position = "{315, 712}";
},
{
name = Anchor16;
position = "{309, 5}";
},
{
name = Anchor18;
position = "{445, -11}";
},
{
name = Anchor20;
position = "{387, 56}";
},
{
name = Anchor22;
position = "{387, 186}";
},
{
name = Anchor26;
position = "{410, 155}";
},
{
name = Anchor28;
position = "{430, 100}";
},
{
name = Anchor30;
position = "{469, 406}";
},
{
name = Anchor32;
position = "{437, 245}";
},
{
name = Anchor4;
position = "{257, 425}";
},
{
name = Anchor6;
position = "{351, 0}";
}
);
layerId = UUID0;
paths = (
{
closed = 1;
nodes = (
"443 98 OFFCURVE",
"530 417 OFFCURVE",
"530 582 CURVE SMOOTH",
"530 674 OFFCURVE",
"487 730 OFFCURVE",
"349 730 CURVE SMOOTH",
"280 730 OFFCURVE",
"184 714 OFFCURVE",
"99 683 CURVE",
"117 614 LINE",
"198 641 OFFCURVE",
"269 652 OFFCURVE",
"338 652 CURVE SMOOTH",
"406 652 OFFCURVE",
"444 635 OFFCURVE",
"444 578 CURVE SMOOTH",
"444 534 OFFCURVE",
"438 482 OFFCURVE",
"428 428 CURVE",
"400 429 OFFCURVE",
"369 430 OFFCURVE",
"337 430 CURVE SMOOTH",
"229 430 OFFCURVE",
"147 413 OFFCURVE",
"99 393 CURVE",
"117 324 LINE",
"163 341 OFFCURVE",
"239 357 OFFCURVE",
"338 357 CURVE SMOOTH",
"363 357 OFFCURVE",
"389 356 OFFCURVE",
"414 355 CURVE",
"384 215 OFFCURVE",
"347 90 OFFCURVE",
"307 9 CURVE",
"387 -15 LINE"
);
}
);
width = 614;
}
);
unicode = 10A1B;
category = Letter;
},
{
glyphname = Dda_khar;
lastChange = "2019-12-16 17:27:41 +0000";
layers = (
{
anchors = (
{
name = Anchor12;
position = "{288, 0}";
},
{
name = Anchor14;
position = "{322, 712}";
},
{
name = Anchor16;
position = "{289, 0}";
},
{
name = Anchor18;
position = "{425, -15}";
},
{
name = Anchor20;
position = "{378, 150}";
},
{
name = Anchor22;
position = "{338, 186}";
},
{
name = Anchor26;
position = "{363, 155}";
},
{
name = Anchor28;
position = "{385, 100}";
},
{
name = Anchor30;
position = "{418, 421}";
},
{
name = Anchor32;
position = "{398, 205}";
},
{
name = Anchor4;
position = "{238, 354}";
},
{
name = Anchor6;
position = "{319, 18}";
}
);
layerId = UUID0;
paths = (
{
closed = 1;
nodes = (
"390 173 OFFCURVE",
"512 573 OFFCURVE",
"559 685 CURVE",
"478 707 LINE",
"455 651 OFFCURVE",
"417 538 OFFCURVE",
"379 412 CURVE",
"222 435 OFFCURVE",
"170 472 OFFCURVE",
"170 566 CURVE SMOOTH",
"170 612 OFFCURVE",
"193 656 OFFCURVE",
"215 692 CURVE",
"144 724 LINE",
"107 673 OFFCURVE",
"84 621 OFFCURVE",
"84 559 CURVE SMOOTH",
"84 413 OFFCURVE",
"184 367 OFFCURVE",
"359 342 CURVE",
"322 213 OFFCURVE",
"294 82 OFFCURVE",
"283 -1 CURVE",
"362 -15 LINE"
);
},
{
closed = 1;
nodes = (
"390 173 OFFCURVE",
"512 573 OFFCURVE",
"559 685 CURVE",
"478 707 LINE",
"455 651 OFFCURVE",
"417 538 OFFCURVE",
"379 412 CURVE",
"222 435 OFFCURVE",
"170 472 OFFCURVE",
"170 566 CURVE SMOOTH",
"170 612 OFFCURVE",
"193 656 OFFCURVE",
"215 692 CURVE",
"144 724 LINE",
"107 673 OFFCURVE",
"84 621 OFFCURVE",
"84 559 CURVE SMOOTH",
"84 413 OFFCURVE",
"184 367 OFFCURVE",
"359 342 CURVE",
"322 213 OFFCURVE",
"294 82 OFFCURVE",
"283 -1 CURVE",
"362 -15 LINE"
);
}
);
width = 577;
}
);
unicode = 10A1C;
category = Letter;
},
{
glyphname = Ddha_khar;
lastChange = "2019-12-16 17:27:41 +0000";
layers = (
{
anchors = (
{
name = Anchor12;
position = "{232, 0}";
},
{
name = Anchor14;
position = "{383, 712}";
},
{
name = Anchor16;
position = "{175, -10}";
},
{
name = Anchor18;
position = "{277, -14}";
},
{
name = Anchor20;
position = "{230, 150}";
},
{
name = Anchor22;
position = "{202, 186}";
},
{
name = Anchor26;
position = "{213, 155}";
},
{
name = Anchor28;
position = "{237, 100}";
},
{
name = Anchor30;
position = "{272, 421}";
},
{
name = Anchor32;
position = "{252, 275}";
},
{
name = Anchor4;
position = "{136, 426}";
},
{
name = Anchor6;
position = "{171, 18}";
}
);
layerId = UUID0;
paths = (
{
closed = 1;
nodes = (
"239 152 OFFCURVE",
"338 487 OFFCURVE",
"393 638 CURVE",
"592 638 LINE",
"606 712 LINE",
"113 712 LINE",
"99 638 LINE",
"304 638 LINE",
"246 474 OFFCURVE",
"158 161 OFFCURVE",
"135 -1 CURVE",
"214 -15 LINE"
);
}
);
width = 584;
}
);
unicode = 10A1D;
category = Letter;
},
{
glyphname = Nna_khar;
lastChange = "2019-12-16 17:27:41 +0000";
layers = (
{
anchors = (
{
name = Anchor10;
position = "{210, 0}";
},
{
name = Anchor12;
position = "{190, 0}";
},
{
name = Anchor14;
position = "{198, 712}";
},
{
name = Anchor16;
position = "{139, -19}";
},
{
name = Anchor18;
position = "{282, -30}";
},
{
name = Anchor20;
position = "{231, 58}";
},
{
name = Anchor22;
position = "{160, 186}";
},
{
name = Anchor26;
position = "{158, 155}";
},
{
name = Anchor28;
position = "{196, 53}";
},
{
name = Anchor32;
position = "{180, 275}";
},
{
name = Anchor4;
position = "{210, 352}";
},
{
name = Anchor6;
position = "{181, -2}";
}
);
layerId = UUID0;
paths = (
{
closed = 1;
nodes = (
"220 16 LINE",
"193 81 OFFCURVE",
"188 128 OFFCURVE",
"188 326 CURVE SMOOTH",
"188 406 OFFCURVE",
"191 487 OFFCURVE",
"201 571 CURVE",
"233 515 OFFCURVE",
"270 460 OFFCURVE",
"289 435 CURVE",
"359 479 LINE",
"303 557 OFFCURVE",
"224 667 OFFCURVE",
"222 713 CURVE",
"137 720 LINE",
"117 593 OFFCURVE",
"106 453 OFFCURVE",
"106 326 CURVE SMOOTH",
"106 178 OFFCURVE",
"110 43 OFFCURVE",
"140 -17 CURVE"
);
}
);
width = 421;
}
);
unicode = 10A1E;
category = Letter;
},
{
glyphname = Ta_khar;
lastChange = "2019-12-16 17:27:41 +0000";
layers = (
{
anchors = (
{
name = Anchor10;
position = "{320, -67}";
},
{
name = Anchor12;
position = "{300, 0}";
},
{
name = Anchor14;
position = "{323, 712}";
},
{
name = Anchor16;
position = "{143, -17}";
},
{
name = Anchor18;
position = "{283, -28}";
},
{
name = Anchor20;
position = "{227, 166}";
},
{
name = Anchor22;
position = "{329, -45}";
},
{
name = Anchor26;
position = "{471, 245}";
},
{
name = Anchor28;
position = "{384, 100}";
},
{
name = Anchor30;
position = "{500, 461}";
},
{
name = Anchor32;
position = "{420, 275}";
},
{
name = Anchor4;
position = "{281, 469}";
}
);
layerId = UUID0;
paths = (
{
closed = 1;
nodes = (
"396 42 OFFCURVE",
"557 238 OFFCURVE",
"557 399 CURVE SMOOTH",
"557 495 OFFCURVE",
"518 551 OFFCURVE",
"391 551 CURVE SMOOTH",
"341 551 OFFCURVE",
"296 543 OFFCURVE",
"250 543 CURVE SMOOTH",
"182 543 OFFCURVE",
"172 571 OFFCURVE",
"172 594 CURVE SMOOTH",
"172 631 OFFCURVE",
"201 653 OFFCURVE",
"236 662 CURVE",
"211 731 LINE",
"148 721 OFFCURVE",
"88 669 OFFCURVE",
"88 596 CURVE SMOOTH",
"88 509 OFFCURVE",
"147 465 OFFCURVE",
"238 465 CURVE SMOOTH",
"288 465 OFFCURVE",
"333 473 OFFCURVE",
"379 473 CURVE SMOOTH",
"461 473 OFFCURVE",
"471 436 OFFCURVE",
"471 399 CURVE SMOOTH",
"471 271 OFFCURVE",
"355 109 OFFCURVE",
"120 58 CURVE",
"141 -14 LINE"
);
}
);
width = 601;
}
);
unicode = 10A1F;
category = Letter;
},
{
glyphname = Tha_khar;
lastChange = "2019-12-16 17:27:41 +0000";
layers = (
{
anchors = (
{
name = Anchor12;
position = "{262, 0}";
},
{
name = Anchor14;
position = "{397, 712}";
},
{
name = Anchor16;
position = "{203, -5}";
},
{
name = Anchor18;
position = "{319, -14}";
},
{
name = Anchor20;
position = "{272, 150}";
},
{
name = Anchor22;
position = "{245, 186}";
},
{
name = Anchor24;
position = "{158, 525}";
},
{
name = Anchor26;
position = "{255, 155}";
},
{
name = Anchor28;
position = "{282, 100}";
},
{
name = Anchor30;
position = "{312, 421}";
},
{
name = Anchor32;
position = "{302, 275}";
},
{
name = Anchor4;
position = "{188, 470}";
},
{
name = Anchor6;
position = "{213, 18}";
}
);
layerId = UUID0;
paths = (
{
closed = 1;
nodes = (
"278 100 OFFCURVE",
"325 301 OFFCURVE",
"374 465 CURVE",
"479 460 OFFCURVE",
"563 444 OFFCURVE",
"609 426 CURVE",
"638 500 LINE",
"589 519 OFFCURVE",
"499 532 OFFCURVE",
"396 537 CURVE",
"418 609 OFFCURVE",
"439 669 OFFCURVE",
"453 702 CURVE",
"372 724 LINE",
"356 686 OFFCURVE",
"333 619 OFFCURVE",
"308 539 CURVE",
"201 538 OFFCURVE",
"120 522 OFFCURVE",
"73 502 CURVE",
"91 433 LINE",
"133 448 OFFCURVE",
"199 463 OFFCURVE",
"286 465 CURVE",
"237 302 OFFCURVE",
"195 114 OFFCURVE",
"177 -1 CURVE",
"256 -15 LINE"
);
}
);
width = 645;
}
);
unicode = 10A20;
category = Letter;
},
{
glyphname = Da_khar;
lastChange = "2019-12-16 17:27:41 +0000";
layers = (
{
anchors = (
{
name = Anchor10;
position = "{305, -67}";
},
{
name = Anchor12;
position = "{243, 0}";
},
{
name = Anchor14;
position = "{241, 712}";
},
{
name = Anchor16;
position = "{260, -10}";
},
{
name = Anchor18;
position = "{383, -20}";
},
{
name = Anchor20;
position = "{303, 171}";
},
{
name = Anchor22;
position = "{249, -45}";
},
{
name = Anchor26;
position = "{395, 215}";
},
{
name = Anchor28;
position = "{383, 100}";
},
{
name = Anchor30;
position = "{322, 421}";
},
{
name = Anchor32;
position = "{383, 275}";
},
{
name = Anchor4;
position = "{309, 471}";
},
{
name = Anchor6;
position = "{308, 0}";
}
);
layerId = UUID0;
paths = (
{
closed = 1;
nodes = (
"332 -15 OFFCURVE",
"442 81 OFFCURVE",
"442 199 CURVE SMOOTH",
"442 314 OFFCURVE",
"370 386 OFFCURVE",
"303 450 CURVE SMOOTH",
"253 497 OFFCURVE",
"210 541 OFFCURVE",
"210 594 CURVE SMOOTH",
"210 631 OFFCURVE",
"239 653 OFFCURVE",
"274 662 CURVE",
"249 731 LINE",
"186 721 OFFCURVE",
"126 669 OFFCURVE",
"126 596 CURVE SMOOTH",
"126 497 OFFCURVE",
"188 435 OFFCURVE",
"249 376 CURVE SMOOTH",
"303 323 OFFCURVE",
"356 271 OFFCURVE",
"356 199 CURVE SMOOTH",
"356 118 OFFCURVE",
"291 61 OFFCURVE",
"190 61 CURVE SMOOTH",
"155 61 OFFCURVE",
"131 64 OFFCURVE",
"102 72 CURVE",
"84 -1 LINE",
"117 -11 OFFCURVE",
"153 -15 OFFCURVE",
"191 -15 CURVE SMOOTH"
);
}
);
width = 486;
}
);
unicode = 10A21;
category = Letter;
},
{
glyphname = Dha_khar;
lastChange = "2019-12-16 17:27:41 +0000";
layers = (
{
anchors = (
{
name = Anchor10;
position = "{237, 0}";
},
{
name = Anchor12;
position = "{267, 0}";
},
{
name = Anchor14;
position = "{267, 712}";
},
{
name = Anchor16;
position = "{263, -22}";
},
{
name = Anchor18;
position = "{325, -34}";
},
{
name = Anchor20;
position = "{320, 145}";
},
{
name = Anchor22;
position = "{317, 186}";
},
{
name = Anchor26;
position = "{402, 185}";
},
{
name = Anchor28;
position = "{387, 100}";
},
{
name = Anchor30;
position = "{397, 376}";
},
{
name = Anchor32;
position = "{397, 245}";
},
{
name = Anchor4;
position = "{206, 427}";
},
{
name = Anchor6;
position = "{237, 0}";
}
);
layerId = UUID0;
paths = (
{
closed = 1;
nodes = (
"357 59 OFFCURVE",
"491 199 OFFCURVE",
"491 320 CURVE SMOOTH",
"491 390 OFFCURVE",
"452 450 OFFCURVE",
"335 450 CURVE",
"370 483 OFFCURVE",
"391 528 OFFCURVE",
"391 574 CURVE SMOOTH",
"391 686 OFFCURVE",
"311 724 OFFCURVE",
"180 724 CURVE SMOOTH",
"154 724 OFFCURVE",
"124 722 OFFCURVE",
"88 717 CURVE",
"99 646 LINE",
"131 651 OFFCURVE",
"155 652 OFFCURVE",
"174 652 CURVE SMOOTH",
"259 652 OFFCURVE",
"305 627 OFFCURVE",
"305 572 CURVE SMOOTH",
"305 474 OFFCURVE",
"245 452 OFFCURVE",
"167 433 CURVE",
"185 363 LINE",
"213 374 OFFCURVE",
"262 381 OFFCURVE",
"291 381 CURVE SMOOTH",
"367 381 OFFCURVE",
"405 365 OFFCURVE",
"405 316 CURVE SMOOTH",
"405 215 OFFCURVE",
"318 125 OFFCURVE",
"211 33 CURVE",
"263 -19 LINE"
);
}
);
width = 535;
}
);
unicode = 10A22;
category = Letter;
},
{
glyphname = Na_khar;
lastChange = "2019-12-16 17:27:41 +0000";
layers = (
{
anchors = (
{
name = Anchor12;
position = "{251, 0}";
},
{
name = Anchor14;
position = "{263, 712}";
},
{
name = Anchor16;
position = "{184, 1}";
},
{
name = Anchor18;
position = "{312, -12}";
},
{
name = Anchor20;
position = "{252, 56}";
},
{
name = Anchor22;
position = "{261, 186}";
},
{
name = Anchor26;
position = "{291, 155}";
},
{
name = Anchor28;
position = "{301, 100}";
},
{
name = Anchor30;
position = "{311, 421}";
},
{
name = Anchor32;
position = "{331, 275}";
},
{
name = Anchor4;
position = "{231, 357}";
},
{
name = Anchor6;
position = "{215, -3}";
}
);
layerId = UUID0;
paths = (
{
closed = 1;
nodes = (
"307 103 OFFCURVE",
"366 246 OFFCURVE",
"366 346 CURVE SMOOTH",
"366 444 OFFCURVE",
"317 468 OFFCURVE",
"264 488 CURVE SMOOTH",
"224 503 OFFCURVE",
"184 519 OFFCURVE",
"184 575 CURVE SMOOTH",
"184 617 OFFCURVE",
"206 654 OFFCURVE",
"271 654 CURVE SMOOTH",
"306 654 OFFCURVE",
"360 651 OFFCURVE",
"389 643 CURVE",
"407 716 LINE",
"374 726 OFFCURVE",
"308 730 OFFCURVE",
"270 730 CURVE SMOOTH",
"161 730 OFFCURVE",
"98 655 OFFCURVE",
"98 575 CURVE SMOOTH",
"98 466 OFFCURVE",
"156 441 OFFCURVE",
"209 419 CURVE SMOOTH",
"252 401 OFFCURVE",
"282 384 OFFCURVE",
"282 330 CURVE SMOOTH",
"282 257 OFFCURVE",
"221 106 OFFCURVE",
"173 7 CURVE",
"252 -15 LINE"
);
}
);
width = 462;
}
);
unicode = 10A23;
category = Letter;
},
{
glyphname = Pa_khar;
lastChange = "2019-12-16 17:27:41 +0000";
layers = (
{
anchors = (
{
name = Anchor10;
position = "{74, 18}";
},
{
name = Anchor12;
position = "{282, 0}";
},
{
name = Anchor14;
position = "{344, 712}";
},
{
name = Anchor16;
position = "{69, 0}";
},
{
name = Anchor18;
position = "{183, -14}";
},
{
name = Anchor20;
position = "{134, 150}";
},
{
name = Anchor22;
position = "{112, 186}";
},
{
name = Anchor24;
position = "{394, 489}";
},
{
name = Anchor26;
position = "{117, 155}";
},
{
name = Anchor28;
position = "{448, 150}";
},
{
name = Anchor30;
position = "{306, 259}";
},
{
name = Anchor32;
position = "{172, 275}";
},
{
name = Anchor4;
position = "{367, 470}";
},
{
name = Anchor6;
position = "{419, 152}";
},
{
name = Anchor8;
position = "{75, 15}";
}
);
layerId = UUID0;
paths = (
{
closed = 1;
nodes = (
"282 606 OFFCURVE",
"303 666 OFFCURVE",
"317 699 CURVE",
"236 721 LINE",
"165 547 OFFCURVE",
"64 194 OFFCURVE",
"39 0 CURVE",
"118 -8 LINE",
"139 107 OFFCURVE",
"190 302 OFFCURVE",
"238 463 CURVE",
"372 438 OFFCURVE",
"435 382 OFFCURVE",
"435 291 CURVE SMOOTH",
"435 247 OFFCURVE",
"408 210 OFFCURVE",
"388 184 CURVE",
"448 133 LINE",
"481 181 OFFCURVE",
"521 242 OFFCURVE",
"521 298 CURVE SMOOTH",
"521 438 OFFCURVE",
"415 510 OFFCURVE",
"260 534 CURVE"
);
}
);
width = 565;
}
);
unicode = 10A24;
category = Letter;
},
{
glyphname = Pha_khar;
lastChange = "2019-12-16 17:27:41 +0000";
layers = (
{
anchors = (
{
name = Anchor10;
position = "{158, 18}";
},
{
name = Anchor12;
position = "{346, 0}";
},
{
name = Anchor14;
position = "{404, 712}";
},
{
name = Anchor16;
position = "{149, -6}";
},
{
name = Anchor18;
position = "{264, -16}";
},
{
name = Anchor20;
position = "{218, 150}";
},
{
name = Anchor22;
position = "{192, 186}";
},
{
name = Anchor24;
position = "{486, 489}";
},
{
name = Anchor26;
position = "{198, 155}";
},
{
name = Anchor28;
position = "{536, 150}";
},
{
name = Anchor30;
position = "{384, 259}";
},
{
name = Anchor32;
position = "{246, 275}";
},
{
name = Anchor4;
position = "{451, 470}";
},
{
name = Anchor6;
position = "{506, 152}";
},
{
name = Anchor8;
position = "{158, 15}";
}
);
layerId = UUID0;
paths = (
{
closed = 1;
nodes = (
"241 183 OFFCURVE",
"348 589 OFFCURVE",
"397 699 CURVE",
"316 721 LINE",
"245 547 OFFCURVE",
"147 193 OFFCURVE",
"122 -1 CURVE",
"202 -8 LINE"
);
},
{
closed = 1;
nodes = (
"572 181 OFFCURVE",
"609 231 OFFCURVE",
"609 298 CURVE SMOOTH",
"609 443 OFFCURVE",
"501 514 OFFCURVE",
"343 535 CURVE",
"254 538 LINE",
"170 533 OFFCURVE",
"106 519 OFFCURVE",
"66 502 CURVE",
"84 433 LINE",
"118 445 OFFCURVE",
"167 457 OFFCURVE",
"230 462 CURVE",
"320 463 LINE",
"458 441 OFFCURVE",
"523 383 OFFCURVE",
"523 291 CURVE SMOOTH",
"523 247 OFFCURVE",
"502 219 OFFCURVE",
"475 184 CURVE",
"535 133 LINE"
);
}
);
width = 653;
}
);
unicode = 10A25;
category = Letter;
},
{
glyphname = Ba_khar;
lastChange = "2019-12-16 17:27:41 +0000";
layers = (
{
anchors = (
{
name = Anchor12;
position = "{315, 0}";
},
{
name = Anchor14;
position = "{337, 712}";
},
{
name = Anchor16;
position = "{313, 6}";
},
{
name = Anchor18;
position = "{453, -6}";
},
{
name = Anchor20;
position = "{388, 60}";
},
{
name = Anchor22;
position = "{400, 186}";
},
{
name = Anchor26;
position = "{426, 155}";
},
{
name = Anchor28;
position = "{445, 100}";
},
{
name = Anchor30;
position = "{495, 421}";
},
{
name = Anchor32;
position = "{465, 275}";
},
{
name = Anchor4;
position = "{186, 426}";
},
{
name = Anchor6;
position = "{355, 0}";
}
);
layerId = UUID0;
paths = (
{
closed = 1;
nodes = (
"522 246 OFFCURVE",
"564 424 OFFCURVE",
"564 556 CURVE SMOOTH",
"564 651 OFFCURVE",
"531 700 OFFCURVE",
"439 700 CURVE SMOOTH",
"337 700 OFFCURVE",
"310 644 OFFCURVE",
"293 582 CURVE SMOOTH",
"279 531 OFFCURVE",
"260 511 OFFCURVE",
"230 511 CURVE SMOOTH",
"194 511 OFFCURVE",
"183 538 OFFCURVE",
"183 594 CURVE SMOOTH",
"183 632 OFFCURVE",
"194 672 OFFCURVE",
"208 708 CURVE",
"130 729 LINE",
"107 685 OFFCURVE",
"99 641 OFFCURVE",
"99 596 CURVE SMOOTH",
"99 465 OFFCURVE",
"166 433 OFFCURVE",
"228 433 CURVE SMOOTH",
"309 433 OFFCURVE",
"349 478 OFFCURVE",
"372 551 CURVE SMOOTH",
"387 598 OFFCURVE",
"398 620 OFFCURVE",
"436 620 CURVE SMOOTH",
"468 620 OFFCURVE",
"478 587 OFFCURVE",
"478 556 CURVE SMOOTH",
"478 438 OFFCURVE",
"444 277 OFFCURVE",
"318 20 CURVE",
"390 -15 LINE"
);
}
);
width = 630;
}
);
unicode = 10A26;
category = Letter;
},
{
glyphname = Bha_khar;
lastChange = "2019-12-16 17:27:41 +0000";
layers = (
{
anchors = (
{
name = Anchor10;
position = "{181, 18}";
},
{
name = Anchor12;
position = "{349, 0}";
},
{
name = Anchor14;
position = "{394, 712}";
},
{
name = Anchor16;
position = "{168, -5}";
},
{
name = Anchor18;
position = "{287, -14}";
},
{
name = Anchor20;
position = "{241, 150}";
},
{
name = Anchor22;
position = "{213, 186}";
},
{
name = Anchor26;
position = "{221, 155}";
},
{
name = Anchor28;
position = "{580, 150}";
},
{
name = Anchor30;
position = "{287, 421}";
},
{
name = Anchor32;
position = "{269, 275}";
},
{
name = Anchor4;
position = "{145, 426}";
},
{
name = Anchor6;
position = "{548, 160}";
},
{
name = Anchor8;
position = "{181, 18}";
}
);
layerId = UUID0;
paths = (
{
closed = 1;
nodes = (
"324 536 LINE",
"301 465 LINE",
"347 463 LINE",
"482 439 OFFCURVE",
"546 382 OFFCURVE",
"546 291 CURVE SMOOTH",
"546 245 OFFCURVE",
"523 201 OFFCURVE",
"501 165 CURVE",
"572 133 LINE",
"609 184 OFFCURVE",
"632 236 OFFCURVE",
"632 298 CURVE SMOOTH",
"632 439 OFFCURVE",
"525 514 OFFCURVE",
"369 534 CURVE"
);
},
{
closed = 1;
nodes = (
"592 635 LINE",
"606 709 LINE",
"113 709 LINE",
"99 635 LINE"
);
},
{
closed = 1;
nodes = (
"321 666 LINE",
"252 480 OFFCURVE",
"168 174 OFFCURVE",
"145 -1 CURVE",
"223 -14 LINE",
"262 173 OFFCURVE",
"356 519 OFFCURVE",
"410 665 CURVE"
);
}
);
width = 698;
}
);
unicode = 10A27;
category = Letter;
},
{
glyphname = Ma_khar;
lastChange = "2019-12-16 17:27:41 +0000";
layers = (
{
anchors = (
{
name = Anchor10;
position = "{470, 175}";
},
{
name = Anchor12;
position = "{386, 255}";
},
{
name = Anchor14;
position = "{406, 712}";
},
{
name = Anchor16;
position = "{389, 145}";
},
{
name = Anchor18;
position = "{351, 0}";
},
{
name = Anchor22;
position = "{378, 186}";
},
{
name = Anchor26;
position = "{408, 115}";
},
{
name = Anchor28;
position = "{550, 320}";
},
{
name = Anchor32;
position = "{398, 175}";
},
{
name = Anchor4;
position = "{388, 432}";
},
{
name = Anchor6;
position = "{280, 146}";
}
);
layerId = UUID0;
paths = (
{
closed = 1;
nodes = (
"536 285 OFFCURVE",
"677 362 OFFCURVE",
"677 511 CURVE SMOOTH",
"677 564 OFFCURVE",
"655 619 OFFCURVE",
"607 667 CURVE",
"544 615 LINE",
"577 580 OFFCURVE",
"593 542 OFFCURVE",
"593 508 CURVE SMOOTH",
"593 407 OFFCURVE",
"514 359 OFFCURVE",
"406 359 CURVE SMOOTH",
"280 359 OFFCURVE",
"191 417 OFFCURVE",
"191 533 CURVE SMOOTH",
"191 579 OFFCURVE",
"213 645 OFFCURVE",
"246 699 CURVE",
"175 731 LINE",
"138 680 OFFCURVE",
"105 588 OFFCURVE",
"105 526 CURVE SMOOTH",
"105 364 OFFCURVE",
"236 285 OFFCURVE",
"393 285 CURVE SMOOTH"
);
}
);
width = 696;
}
);
unicode = 10A28;
category = Letter;
},
{
glyphname = Ya_khar;
lastChange = "2019-12-16 17:27:41 +0000";
layers = (
{
anchors = (
{
name = Anchor10;
position = "{39, 0}";
},
{
name = Anchor12;
position = "{308, 0}";
},
{
name = Anchor14;
position = "{372, 712}";
},
{
name = Anchor16;
position = "{312, 5}";
},
{
name = Anchor18;
position = "{671, -29}";
},
{
name = Anchor20;
position = "{81, 70}";
},
{
name = Anchor22;
position = "{95, 186}";
},
{
name = Anchor26;
position = "{137, 155}";
},
{
name = Anchor28;
position = "{545, -10}";
},
{
name = Anchor30;
position = "{321, 261}";
},
{
name = Anchor32;
position = "{211, 281}";
},
{
name = Anchor4;
position = "{441, 425}";
},
{
name = Anchor6;
position = "{570, -2}";
}
);
layerId = UUID0;
paths = (
{
closed = 1;
nodes = (
"136 87 OFFCURVE",
"274 347 OFFCURVE",
"353 540 CURVE",
"388 341 OFFCURVE",
"458 119 OFFCURVE",
"529 -16 CURVE",
"609 19 LINE",
"518 195 OFFCURVE",
"426 524 OFFCURVE",
"412 720 CURVE",
"331 714 LINE",
"303 570 OFFCURVE",
"79 138 OFFCURVE",
"0 16 CURVE",
"71 -17 LINE"
);
}
);
width = 653;
}
);
unicode = 10A29;
category = Letter;
},
{
glyphname = Ra_khar;
lastChange = "2019-12-16 17:27:41 +0000";
layers = (
{
anchors = (
{
name = Anchor12;
position = "{278, 0}";
},
{
name = Anchor14;
position = "{306, 712}";
},
{
name = Anchor16;
position = "{317, -20}";
},
{
name = Anchor18;
position = "{361, -45}";
},
{
name = Anchor20;
position = "{323, 69}";
},
{
name = Anchor26;
position = "{378, 155}";
},
{
name = Anchor28;
position = "{379, 100}";
},
{
name = Anchor30;
position = "{468, 421}";
},
{
name = Anchor32;
position = "{398, 275}";
},
{
name = Anchor4;
position = "{247, 425}";
},
{
name = Anchor6;
position = "{283, 0}";
}
);
layerId = UUID0;
paths = (
{
closed = 1;
nodes = (
"392 116 OFFCURVE",
"513 338 OFFCURVE",
"513 441 CURVE SMOOTH",
"513 521 OFFCURVE",
"470 569 OFFCURVE",
"332 569 CURVE SMOOTH",
"192 569 OFFCURVE",
"178 576 OFFCURVE",
"178 612 CURVE SMOOTH",
"178 632 OFFCURVE",
"186 669 OFFCURVE",
"197 707 CURVE",
"117 720 LINE",
"106 683 OFFCURVE",
"99 634 OFFCURVE",
"99 596 CURVE SMOOTH",
"99 505 OFFCURVE",
"136 491 OFFCURVE",
"321 491 CURVE SMOOTH",
"404 491 OFFCURVE",
"427 475 OFFCURVE",
"427 437 CURVE SMOOTH",
"427 338 OFFCURVE",
"310 132 OFFCURVE",
"246 20 CURVE",
"318 -17 LINE"
);
}
);
width = 557;
}
);
unicode = 10A2A;
category = Letter;
},
{
glyphname = La_khar;
lastChange = "2019-12-16 17:27:41 +0000";
layers = (
{
anchors = (
{
name = Anchor12;
position = "{266, 0}";
},
{
name = Anchor14;
position = "{417, 712}";
},
{
name = Anchor16;
position = "{249, -7}";
},
{
name = Anchor18;
position = "{371, -15}";
},
{
name = Anchor20;
position = "{323, 150}";
},
{
name = Anchor22;
position = "{286, 186}";
},
{
name = Anchor24;
position = "{166, 527}";
},
{
name = Anchor26;
position = "{299, 155}";
},
{
name = Anchor28;
position = "{328, 100}";
},
{
name = Anchor30;
position = "{336, 421}";
},
{
name = Anchor32;
position = "{346, 275}";
},
{
name = Anchor4;
position = "{208, 470}";
},
{
name = Anchor6;
position = "{264, 18}";
}
);
layerId = UUID0;
paths = (
{
closed = 1;
nodes = (
"347 201 OFFCURVE",
"457 590 OFFCURVE",
"504 702 CURVE",
"423 724 LINE",
"407 686 OFFCURVE",
"384 618 OFFCURVE",
"359 538 CURVE",
"188 535 OFFCURVE",
"116 520 OFFCURVE",
"73 502 CURVE",
"91 433 LINE",
"130 447 OFFCURVE",
"192 461 OFFCURVE",
"337 465 CURVE",
"288 301 OFFCURVE",
"246 109 OFFCURVE",
"228 -1 CURVE",
"307 -15 LINE"
);
}
);
width = 533;
}
);
unicode = 10A2B;
category = Letter;
},
{
glyphname = Va_khar;
lastChange = "2019-12-16 17:27:41 +0000";
layers = (
{
anchors = (
{
name = Anchor12;
position = "{287, 0}";
},
{
name = Anchor14;
position = "{315, 712}";
},
{
name = Anchor16;
position = "{308, -20}";
},
{
name = Anchor18;
position = "{369, -12}";
},
{
name = Anchor20;
position = "{323, 80}";
},
{
name = Anchor22;
position = "{327, 186}";
},
{
name = Anchor26;
position = "{380, 155}";
},
{
name = Anchor28;
position = "{377, 100}";
},
{
name = Anchor30;
position = "{469, 447}";
},
{
name = Anchor32;
position = "{426, 275}";
},
{
name = Anchor4;
position = "{237, 425}";
},
{
name = Anchor6;
position = "{274, 0}";
}
);
layerId = UUID0;
paths = (
{
closed = 1;
nodes = (
"383 106 OFFCURVE",
"530 369 OFFCURVE",
"530 535 CURVE SMOOTH",
"530 627 OFFCURVE",
"487 713 OFFCURVE",
"349 713 CURVE SMOOTH",
"280 713 OFFCURVE",
"184 697 OFFCURVE",
"99 666 CURVE",
"117 597 LINE",
"198 624 OFFCURVE",
"269 635 OFFCURVE",
"338 635 CURVE SMOOTH",
"406 635 OFFCURVE",
"444 589 OFFCURVE",
"444 531 CURVE SMOOTH",
"444 360 OFFCURVE",
"301 125 OFFCURVE",
"240 26 CURVE",
"309 -17 LINE"
);
}
);
width = 574;
}
);
unicode = 10A2C;
category = Letter;
},
{
glyphname = Sha_khar;
lastChange = "2019-12-16 17:27:41 +0000";
layers = (
{
anchors = (
{
name = Anchor12;
position = "{297, 0}";
},
{
name = Anchor14;
position = "{469, 712}";
},
{
name = Anchor16;
position = "{468, 0}";
},
{
name = Anchor18;
position = "{604, -21}";
},
{
name = Anchor20;
position = "{549, 55}";
},
{
name = Anchor22;
position = "{120, 186}";
},
{
name = Anchor26;
position = "{139, 155}";
},
{
name = Anchor28;
position = "{596, 100}";
},
{
name = Anchor30;
position = "{412, 356}";
},
{
name = Anchor32;
position = "{200, 275}";
},
{
name = Anchor4;
position = "{435, 470}";
},
{
name = Anchor6;
position = "{513, -1}";
}
);
layerId = UUID0;
paths = (
{
closed = 1;
nodes = (
"608 107 OFFCURVE",
"690 370 OFFCURVE",
"690 535 CURVE SMOOTH",
"690 627 OFFCURVE",
"647 713 OFFCURVE",
"509 713 CURVE SMOOTH",
"429 713 OFFCURVE",
"300 694 OFFCURVE",
"220 667 CURVE",
"198 524 OFFCURVE",
"87 107 OFFCURVE",
"44 8 CURVE",
"123 -13 LINE",
"174 104 OFFCURVE",
"263 444 OFFCURVE",
"296 613 CURVE",
"366 629 OFFCURVE",
"444 635 OFFCURVE",
"498 635 CURVE SMOOTH",
"566 635 OFFCURVE",
"604 589 OFFCURVE",
"604 531 CURVE SMOOTH",
"604 360 OFFCURVE",
"522 108 OFFCURVE",
"469 5 CURVE",
"549 -16 LINE"
);
}
);
width = 741;
}
);
unicode = 10A2D;
category = Letter;
},
{
glyphname = Ssa_khar;
lastChange = "2019-12-16 17:27:41 +0000";
layers = (
{
anchors = (
{
name = Anchor10;
position = "{142, 10}";
},
{
name = Anchor12;
position = "{352, 0}";
},
{
name = Anchor14;
position = "{411, 712}";
},
{
name = Anchor16;
position = "{153, -25}";
},
{
name = Anchor18;
position = "{227, -27}";
},
{
name = Anchor20;
position = "{255, 168}";
},
{
name = Anchor22;
position = "{230, 186}";
},
{
name = Anchor26;
position = "{281, 185}";
},
{
name = Anchor28;
position = "{267, 100}";
},
{
name = Anchor30;
position = "{288, 317}";
},
{
name = Anchor32;
position = "{332, 245}";
},
{
name = Anchor4;
position = "{231, 470}";
},
{
name = Anchor6;
position = "{142, 10}";
}
);
layerId = UUID0;
paths = (
{
closed = 1;
nodes = (
"338 123 OFFCURVE",
"398 341 OFFCURVE",
"444 628 CURVE",
"523 607 OFFCURVE",
"574 552 OFFCURVE",
"574 465 CURVE SMOOTH",
"574 403 OFFCURVE",
"542 330 OFFCURVE",
"497 285 CURVE",
"559 238 LINE",
"607 279 OFFCURVE",
"660 379 OFFCURVE",
"660 472 CURVE SMOOTH",
"660 634 OFFCURVE",
"529 713 OFFCURVE",
"372 713 CURVE SMOOTH",
"229 713 OFFCURVE",
"88 636 OFFCURVE",
"88 487 CURVE SMOOTH",
"88 434 OFFCURVE",
"110 379 OFFCURVE",
"158 331 CURVE",
"221 383 LINE",
"188 418 OFFCURVE",
"172 456 OFFCURVE",
"172 490 CURVE SMOOTH",
"172 591 OFFCURVE",
"253 639 OFFCURVE",
"362 639 CURVE",
"329 411 OFFCURVE",
"287 188 OFFCURVE",
"114 42 CURVE",
"153 -22 LINE"
);
}
);
width = 704;
}
);
unicode = 10A2E;
category = Letter;
},
{
glyphname = Sa_khar;
lastChange = "2019-12-16 17:27:41 +0000";
layers = (
{
anchors = (
{
name = Anchor10;
position = "{36, 10}";
},
{
name = Anchor12;
position = "{283, 0}";
},
{
name = Anchor14;
position = "{334, 712}";
},
{
name = Anchor16;
position = "{47, -24}";
},
{
name = Anchor18;
position = "{122, -27}";
},
{
name = Anchor20;
position = "{141, 165}";
},
{
name = Anchor22;
position = "{116, 186}";
},
{
name = Anchor26;
position = "{170, 159}";
},
{
name = Anchor28;
position = "{163, 100}";
},
{
name = Anchor30;
position = "{247, 406}";
},
{
name = Anchor32;
position = "{231, 205}";
},
{
name = Anchor4;
position = "{113, 470}";
},
{
name = Anchor6;
position = "{36, 10}";
},
{
name = Anchor8;
position = "{34, -7}";
}
);
layerId = UUID0;
paths = (
{
closed = 1;
nodes = (
"137 54 OFFCURVE",
"221 154 OFFCURVE",
"250 289 CURVE",
"265 288 OFFCURVE",
"281 287 OFFCURVE",
"300 287 CURVE SMOOTH",
"415 287 OFFCURVE",
"523 358 OFFCURVE",
"523 479 CURVE SMOOTH",
"523 604 OFFCURVE",
"430 627 OFFCURVE",
"303 643 CURVE SMOOTH",
"200 656 OFFCURVE",
"175 687 OFFCURVE",
"166 722 CURVE",
"97 697 LINE",
"114 625 OFFCURVE",
"148 590 OFFCURVE",
"294 572 CURVE SMOOTH",
"387 561 OFFCURVE",
"437 542 OFFCURVE",
"437 477 CURVE SMOOTH",
"437 401 OFFCURVE",
"377 358 OFFCURVE",
"302 358 CURVE SMOOTH",
"289 358 OFFCURVE",
"276 358 OFFCURVE",
"264 359 CURVE",
"264 405 OFFCURVE",
"254 447 OFFCURVE",
"242 462 CURVE",
"176 446 LINE",
"182 425 OFFCURVE",
"184 405 OFFCURVE",
"184 373 CURVE SMOOTH",
"184 226 OFFCURVE",
"74 94 OFFCURVE",
"9 42 CURVE",
"48 -22 LINE"
);
}
);
width = 567;
}
);
unicode = 10A2F;
category = Letter;
},
{
glyphname = Za_khar;
lastChange = "2019-12-16 17:27:41 +0000";
layers = (
{
anchors = (
{
name = Anchor12;
position = "{305, 0}";
},
{
name = Anchor14;
position = "{349, 712}";
},
{
name = Anchor16;
position = "{338, -5}";
},
{
name = Anchor18;
position = "{455, -14}";
},
{
name = Anchor20;
position = "{408, 150}";
},
{
name = Anchor22;
position = "{370, 186}";
},
{
name = Anchor26;
position = "{393, 155}";
},
{
name = Anchor28;
position = "{415, 100}";
},
{
name = Anchor30;
position = "{454, 421}";
},
{
name = Anchor32;
position = "{426, 245}";
},
{
name = Anchor4;
position = "{309, 427}";
},
{
name = Anchor6;
position = "{349, 18}";
}
);
layerId = UUID0;
paths = (
{
closed = 1;
nodes = (
"420 173 OFFCURVE",
"542 590 OFFCURVE",
"589 702 CURVE",
"508 724 LINE",
"484 667 OFFCURVE",
"445 547 OFFCURVE",
"407 415 CURVE",
"308 415 OFFCURVE",
"255 417 OFFCURVE",
"222 422 CURVE",
"255 467 OFFCURVE",
"269 513 OFFCURVE",
"269 572 CURVE SMOOTH",
"269 635 OFFCURVE",
"246 683 OFFCURVE",
"187 725 CURVE",
"134 669 LINE",
"178 628 OFFCURVE",
"189 599 OFFCURVE",
"189 559 CURVE SMOOTH",
"189 483 OFFCURVE",
"145 427 OFFCURVE",
"99 377 CURVE",
"143 359 OFFCURVE",
"217 345 OFFCURVE",
"387 342 CURVE",
"351 212 OFFCURVE",
"324 81 OFFCURVE",
"313 -1 CURVE",
"392 -15 LINE"
);
}
);
width = 611;
}
);
unicode = 10A30;
category = Letter;
},
{
glyphname = Ha_khar;
lastChange = "2019-12-16 17:27:41 +0000";
layers = (
{
anchors = (
{
name = Anchor10;
position = "{394, -67}";
},
{
name = Anchor12;
position = "{284, 0}";
},
{
name = Anchor14;
position = "{313, 712}";
},
{
name = Anchor16;
position = "{318, -90}";
},
{
name = Anchor18;
position = "{231, -176}";
},
{
name = Anchor20;
position = "{54, 0}";
},
{
name = Anchor22;
position = "{294, -45}";
},
{
name = Anchor26;
position = "{300, -170}";
},
{
name = Anchor28;
position = "{418, 38}";
},
{
name = Anchor30;
position = "{394, 417}";
},
{
name = Anchor32;
position = "{304, -95}";
},
{
name = Anchor4;
position = "{274, 350}";
},
{
name = Anchor6;
position = "{292, 0}";
},
{
name = Anchor8;
position = "{178, -90}";
}
);
layerId = UUID0;
paths = (
{
closed = 1;
nodes = (
"327 -15 OFFCURVE",
"398 0 OFFCURVE",
"442 21 CURVE",
"417 92 LINE",
"380 75 OFFCURVE",
"328 56 OFFCURVE",
"274 56 CURVE SMOOTH",
"224 56 OFFCURVE",
"209 80 OFFCURVE",
"209 117 CURVE SMOOTH",
"209 185 OFFCURVE",
"285 248 OFFCURVE",
"358 302 CURVE SMOOTH",
"474 389 OFFCURVE",
"527 456 OFFCURVE",
"527 544 CURVE SMOOTH",
"527 626 OFFCURVE",
"472 715 OFFCURVE",
"305 715 CURVE SMOOTH",
"172 715 OFFCURVE",
"99 630 OFFCURVE",
"99 535 CURVE SMOOTH",
"99 482 OFFCURVE",
"121 427 OFFCURVE",
"169 379 CURVE",
"232 431 LINE",
"199 466 OFFCURVE",
"183 504 OFFCURVE",
"183 538 CURVE SMOOTH",
"183 594 OFFCURVE",
"225 641 OFFCURVE",
"305 641 CURVE SMOOTH",
"406 641 OFFCURVE",
"441 585 OFFCURVE",
"441 531 CURVE SMOOTH",
"441 465 OFFCURVE",
"416 436 OFFCURVE",
"313 356 CURVE SMOOTH",
"213 278 OFFCURVE",
"125 197 OFFCURVE",
"125 118 CURVE SMOOTH",
"125 19 OFFCURVE",
"186 -15 OFFCURVE",
"269 -15 CURVE SMOOTH"
);
}
);
width = 549;
}
);
unicode = 10A31;
category = Letter;
},
{
glyphname = Kka_khar;
lastChange = "2019-12-16 17:27:41 +0000";
layers = (
{
anchors = (
{
name = Anchor10;
position = "{330, -7}";
},
{
name = Anchor12;
position = "{337, 0}";
},
{
name = Anchor14;
position = "{334, 712}";
},
{
name = Anchor16;
position = "{297, 0}";
},
{
name = Anchor18;
position = "{408, -51}";
},
{
name = Anchor20;
position = "{371, 60}";
},
{
name = Anchor22;
position = "{359, 186}";
},
{
name = Anchor26;
position = "{417, 155}";
},
{
name = Anchor28;
position = "{703, 100}";
},
{
name = Anchor30;
position = "{469, 406}";
},
{
name = Anchor32;
position = "{423, 175}";
},
{
name = Anchor4;
position = "{302, 425}";
},
{
name = Anchor6;
position = "{635, 0}";
},
{
name = Anchor8;
position = "{333, 0}";
}
);
layerId = UUID0;
paths = (
{
closed = 1;
nodes = (
"409 68 OFFCURVE",
"462 188 OFFCURVE",
"492 307 CURVE",
"602 280 OFFCURVE",
"654 225 OFFCURVE",
"654 152 CURVE SMOOTH",
"654 109 OFFCURVE",
"634 72 OFFCURVE",
"607 36 CURVE",
"667 -14 LINE",
"706 40 OFFCURVE",
"740 89 OFFCURVE",
"740 161 CURVE SMOOTH",
"740 272 OFFCURVE",
"650 350 OFFCURVE",
"514 379 CURVE",
"539 469 OFFCURVE",
"589 598 OFFCURVE",
"630 692 CURVE",
"551 713 LINE",
"532 670 OFFCURVE",
"515 628 OFFCURVE",
"500 587 CURVE",
"473 664 OFFCURVE",
"412 716 OFFCURVE",
"294 716 CURVE SMOOTH",
"161 716 OFFCURVE",
"88 631 OFFCURVE",
"88 536 CURVE SMOOTH",
"88 483 OFFCURVE",
"110 428 OFFCURVE",
"158 380 CURVE",
"221 432 LINE",
"188 467 OFFCURVE",
"172 505 OFFCURVE",
"172 539 CURVE SMOOTH",
"172 595 OFFCURVE",
"214 642 OFFCURVE",
"294 642 CURVE SMOOTH",
"395 642 OFFCURVE",
"430 570 OFFCURVE",
"430 474 CURVE SMOOTH",
"430 316 OFFCURVE",
"336 100 OFFCURVE",
"288 6 CURVE",
"368 -16 LINE"
);
}
);
width = 806;
}
);
unicode = 10A32;
category = Letter;
},
{
glyphname = Tttha_khar;
lastChange = "2019-12-16 17:27:41 +0000";
layers = (
{
anchors = (
{
name = Anchor12;
position = "{389, 0}";
},
{
name = Anchor14;
position = "{360, 712}";
},
{
name = Anchor16;
position = "{348, 5}";
},
{
name = Anchor18;
position = "{484, -14}";
},
{
name = Anchor20;
position = "{427, 60}";
},
{
name = Anchor22;
position = "{418, 186}";
},
{
name = Anchor26;
position = "{450, 115}";
},
{
name = Anchor28;
position = "{475, 100}";
},
{
name = Anchor30;
position = "{480, 294}";
},
{
name = Anchor32;
position = "{433, 115}";
},
{
name = Anchor4;
position = "{326, 426}";
},
{
name = Anchor6;
position = "{391, 0}";
}
);
layerId = UUID0;
paths = (
{
closed = 1;
nodes = (
"489 108 OFFCURVE",
"553 324 OFFCURVE",
"553 416 CURVE SMOOTH",
"553 508 OFFCURVE",
"510 564 OFFCURVE",
"382 564 CURVE SMOOTH",
"311 564 OFFCURVE",
"258 547 OFFCURVE",
"226 536 CURVE",
"244 466 LINE",
"278 478 OFFCURVE",
"309 486 OFFCURVE",
"371 486 CURVE SMOOTH",
"429 486 OFFCURVE",
"467 469 OFFCURVE",
"467 412 CURVE SMOOTH",
"467 389 OFFCURVE",
"461 355 OFFCURVE",
"452 317 CURVE",
"382 294 OFFCURVE",
"337 283 OFFCURVE",
"258 283 CURVE SMOOTH",
"190 283 OFFCURVE",
"152 300 OFFCURVE",
"152 357 CURVE SMOOTH",
"152 443 OFFCURVE",
"209 605 OFFCURVE",
"255 710 CURVE",
"176 731 LINE",
"118 597 OFFCURVE",
"66 451 OFFCURVE",
"66 353 CURVE SMOOTH",
"66 261 OFFCURVE",
"109 205 OFFCURVE",
"247 205 CURVE SMOOTH",
"310 205 OFFCURVE",
"367 215 OFFCURVE",
"429 234 CURVE",
"404 151 OFFCURVE",
"376 61 OFFCURVE",
"347 6 CURVE",
"426 -16 LINE"
);
}
);
width = 619;
}
);
unicode = 10A33;
category = Letter;
},
{
glyphname = TTta_khar;
lastChange = "2019-12-16 17:27:41 +0000";
layers = (
{
anchors = (
{
name = Anchor12;
position = "{179, 0}";
},
{
name = Anchor14;
position = "{298, 712}";
},
{
name = Anchor16;
position = "{177, -19}";
},
{
name = Anchor18;
position = "{229, -39}";
},
{
name = Anchor20;
position = "{194, 80}";
},
{
name = Anchor22;
position = "{203, 186}";
},
{
name = Anchor26;
position = "{254, 155}";
},
{
name = Anchor28;
position = "{239, 100}";
},
{
name = Anchor30;
position = "{319, 421}";
},
{
name = Anchor32;
position = "{301, 275}";
},
{
name = Anchor4;
position = "{174, 426}";
},
{
name = Anchor6;
position = "{148, 0}";
}
);
layerId = UUID0;
paths = (
{
closed = 1;
nodes = (
"261 113 OFFCURVE",
"389 368 OFFCURVE",
"460 540 CURVE SMOOTH",
"476 579 OFFCURVE",
"501 627 OFFCURVE",
"518 655 CURVE",
"492 721 LINE",
"375 648 OFFCURVE",
"258 575 OFFCURVE",
"78 575 CURVE",
"78 501 LINE",
"216 501 OFFCURVE",
"317 538 OFFCURVE",
"393 578 CURVE",
"393 577 OFFCURVE",
"393 577 OFFCURVE",
"392 576 CURVE",
"317 387 OFFCURVE",
"169 110 OFFCURVE",
"108 16 CURVE",
"179 -17 LINE"
);
}
);
width = 579;
}
);
unicode = 10A34;
category = Letter;
},
{
glyphname = VHa_khar;
lastChange = "2019-12-16 17:27:41 +0000";
layers = (
{
anchors = (
{
name = Anchor10;
position = "{401, -6}";
},
{
name = Anchor12;
position = "{287, 0}";
},
{
name = Anchor14;
position = "{315, 712}";
},
{
name = Anchor16;
position = "{308, -20}";
},
{
name = Anchor18;
position = "{353, -43}";
},
{
name = Anchor20;
position = "{324, 80}";
},
{
name = Anchor22;
position = "{327, 186}";
},
{
name = Anchor26;
position = "{360, 135}";
},
{
name = Anchor28;
position = "{377, 100}";
},
{
name = Anchor30;
position = "{461, 407}";
},
{
name = Anchor32;
position = "{426, 275}";
},
{
name = Anchor4;
position = "{237, 425}";
},
{
name = Anchor6;
position = "{274, 0}";
}
);
layerId = UUID0;
paths = (
{
closed = 1;
nodes = (
"337 40 OFFCURVE",
"400 153 OFFCURVE",
"455 273 CURVE",
"468 272 OFFCURVE",
"508 269 OFFCURVE",
"531 269 CURVE SMOOTH",
"646 269 OFFCURVE",
"719 344 OFFCURVE",
"719 464 CURVE SMOOTH",
"719 507 OFFCURVE",
"705 568 OFFCURVE",
"705 609 CURVE SMOOTH",
"705 640 OFFCURVE",
"711 667 OFFCURVE",
"724 689 CURVE",
"659 730 LINE",
"635 693 OFFCURVE",
"624 653 OFFCURVE",
"624 611 CURVE SMOOTH",
"624 553 OFFCURVE",
"633 516 OFFCURVE",
"633 462 CURVE SMOOTH",
"633 378 OFFCURVE",
"600 339 OFFCURVE",
"533 339 CURVE SMOOTH",
"520 339 OFFCURVE",
"496 341 OFFCURVE",
"484 342 CURVE",
"511 411 OFFCURVE",
"530 479 OFFCURVE",
"530 535 CURVE SMOOTH",
"530 627 OFFCURVE",
"487 713 OFFCURVE",
"349 713 CURVE SMOOTH",
"280 713 OFFCURVE",
"184 697 OFFCURVE",
"99 666 CURVE",
"117 597 LINE",
"198 624 OFFCURVE",
"269 635 OFFCURVE",
"338 635 CURVE SMOOTH",
"406 635 OFFCURVE",
"444 589 OFFCURVE",
"444 531 CURVE SMOOTH",
"444 360 OFFCURVE",
"296 125 OFFCURVE",
"240 26 CURVE",
"309 -17 LINE"
);
}
);
width = 802;
}
);
unicode = 10A35;
category = Letter;
},
{
glyphname = BarAbove_khar;
lastChange = "2019-12-16 17:27:39 +0000";
layers = (
{
anchors = (
{
name = Anchor34;
position = "{-300, 868}";
},
{
name = _Anchor14;
position = "{-301, 714}";
},
{
name = _Anchor34;
position = "{-301, 714}";
}
);
layerId = UUID0;
paths = (
{
closed = 1;
nodes = (
"-62 794 LINE",
"-48 868 LINE",
"-535 868 LINE",
"-552 794 LINE"
);
}
);
width = 0;
}
);
unicode = 10A38;
category = Mark;
subCategory = Nonspacing;
},
{
glyphname = Cauda_khar;
lastChange = "2019-12-16 17:27:38 +0000";
layers = (
{
anchors = (
{
name = Anchor38;
position = "{-220, -92}";
},
{
name = Anchor40;
position = "{-310, -12}";
},
{
name = _Anchor18;
position = "{-311, 3}";
},
{
name = _Anchor36;
position = "{-311, 3}";
}
);
layerId = UUID0;
paths = (
{
closed = 1;
nodes = (
"-453 16 LINE",
"-409 0 OFFCURVE",
"-362 -12 OFFCURVE",
"-310 -12 CURVE SMOOTH",
"-203 -12 OFFCURVE",
"-125 38 OFFCURVE",
"-66 86 CURVE",
"-90 141 LINE",
"-146 94 OFFCURVE",
"-215 54 OFFCURVE",
"-307 54 CURVE SMOOTH",
"-344 54 OFFCURVE",
"-384 58 OFFCURVE",
"-424 72 CURVE"
);
}
);
width = 0;
}
);
unicode = 10A39;
category = Mark;
subCategory = Nonspacing;
},
{
glyphname = DotBelow_khar;
lastChange = "2019-12-16 17:27:38 +0000";
layers = (
{
anchors = (
{
name = Anchor36;
position = "{-143, -306}";
},
{
name = Anchor38;
position = "{-137, -285}";
},
{
name = Anchor40;
position = "{-137, -195}";
},
{
name = _Anchor12;
position = "{-137, 0}";
},
{
name = _Anchor40;
position = "{-137, 0}";
}
);
layerId = UUID0;
paths = (
{
closed = 1;
nodes = (
"-103 -195 OFFCURVE",
"-74 -175 OFFCURVE",
"-74 -127 CURVE SMOOTH",
"-74 -78 OFFCURVE",
"-103 -60 OFFCURVE",
"-137 -60 CURVE SMOOTH",
"-171 -60 OFFCURVE",
"-198 -78 OFFCURVE",
"-198 -127 CURVE SMOOTH",
"-198 -175 OFFCURVE",
"-171 -195 OFFCURVE",
"-137 -195 CURVE SMOOTH"
);
}
);
width = 0;
}
);
unicode = 10A3A;
category = Mark;
subCategory = Nonspacing;
},
{
glyphname = Virama_khar;
lastChange = "2019-12-16 17:27:31 +0000";
layers = (
{
anchors = (
{
name = _Anchor12;
position = "{-252, 0}";
},
{
name = _Anchor40;
position = "{-252, 0}";
}
);
layerId = UUID0;
paths = (
{
closed = 1;
nodes = (
"-284 -184 LINE",
"-284 -301 LINE",
"-220 -301 LINE",
"-220 -184 LINE",
"-98 -184 LINE",
"-98 -134 LINE",
"-220 -134 LINE",
"-220 -45 LINE",
"-284 -45 LINE",
"-284 -134 LINE",
"-406 -134 LINE",
"-406 -184 LINE"
);
}
);
width = 0;
}
);
unicode = 10A3F;
category = Mark;
subCategory = Nonspacing;
},
{
glyphname = One_khar;
lastChange = "2019-12-16 17:24:49 +0000";
layers = (
{
layerId = UUID0;
paths = (
{
closed = 1;
nodes = (
"156 85 OFFCURVE",
"271 543 OFFCURVE",
"292 710 CURVE",
"207 717 LINE",
"189 572 OFFCURVE",
"74 104 OFFCURVE",
"33 6 CURVE",
"114 -16 LINE"
);
}
);
width = 325;
}
);
unicode = 10A40;
category = Letter;
},
{
glyphname = Two_khar;
lastChange = "2019-12-16 17:24:49 +0000";
layers = (
{
layerId = UUID0;
paths = (
{
closed = 1;
nodes = (
"138 41 OFFCURVE",
"185 215 OFFCURVE",
"226 384 CURVE",
"253 317 OFFCURVE",
"300 275 OFFCURVE",
"381 275 CURVE SMOOTH",
"506 275 OFFCURVE",
"584 388 OFFCURVE",
"584 536 CURVE SMOOTH",
"584 611 OFFCURVE",
"576 686 OFFCURVE",
"553 730 CURVE",
"475 709 LINE",
"489 673 OFFCURVE",
"500 633 OFFCURVE",
"500 546 CURVE SMOOTH",
"500 466 OFFCURVE",
"461 353 OFFCURVE",
"379 353 CURVE SMOOTH",
"294 353 OFFCURVE",
"272 488 OFFCURVE",
"271 587 CURVE",
"280 636 OFFCURVE",
"288 678 OFFCURVE",
"292 710 CURVE",
"207 717 LINE",
"189 572 OFFCURVE",
"74 104 OFFCURVE",
"33 6 CURVE",
"114 -16 LINE"
);
}
);
width = 628;
}
);
unicode = 10A41;
category = Letter;
},
{
glyphname = Three_khar;
lastChange = "2019-12-16 17:24:49 +0000";
layers = (
{
layerId = UUID0;
paths = (
{
closed = 1;
nodes = (
"137 40 OFFCURVE",
"184 209 OFFCURVE",
"224 376 CURVE",
"248 317 OFFCURVE",
"291 275 OFFCURVE",
"371 275 CURVE SMOOTH",
"431 275 OFFCURVE",
"483 312 OFFCURVE",
"496 407 CURVE",
"513 322 OFFCURVE",
"570 275 OFFCURVE",
"649 275 CURVE SMOOTH",
"779 275 OFFCURVE",
"827 414 OFFCURVE",
"827 535 CURVE SMOOTH",
"827 604 OFFCURVE",
"819 685 OFFCURVE",
"796 729 CURVE",
"718 708 LINE",
"732 672 OFFCURVE",
"743 602 OFFCURVE",
"743 545 CURVE SMOOTH",
"743 426 OFFCURVE",
"708 353 OFFCURVE",
"647 353 CURVE SMOOTH",
"588 353 OFFCURVE",
"546 441 OFFCURVE",
"546 542 CURVE SMOOTH",
"546 556 OFFCURVE",
"547 571 OFFCURVE",
"549 586 CURVE SMOOTH",
"563 703 LINE",
"483 717 LINE",
"469 592 LINE SMOOTH",
"456 473 OFFCURVE",
"445 353 OFFCURVE",
"369 353 CURVE SMOOTH",
"300 353 OFFCURVE",
"272 435 OFFCURVE",
"271 587 CURVE",
"280 636 OFFCURVE",
"288 678 OFFCURVE",
"292 710 CURVE",
"207 717 LINE",
"189 572 OFFCURVE",
"74 104 OFFCURVE",
"33 6 CURVE",
"114 -16 LINE"
);
}
);
width = 871;
}
);
unicode = 10A42;
category = Letter;
},
{
glyphname = Four_khar;
lastChange = "2019-12-16 17:24:49 +0000";
layers = (
{
layerId = UUID0;
paths = (
{
closed = 1;
nodes = (
"541 34 LINE",
"518 95 OFFCURVE",
"423 222 OFFCURVE",
"331 323 CURVE",
"452 457 OFFCURVE",
"582 591 OFFCURVE",
"645 648 CURVE",
"590 702 LINE",
"510 634 OFFCURVE",
"388 508 OFFCURVE",
"274 381 CURVE",
"212 440 OFFCURVE",
"143 490 OFFCURVE",
"107 507 CURVE",
"56 431 LINE",
"89 413 OFFCURVE",
"154 365 OFFCURVE",
"212 311 CURVE",
"139 226 OFFCURVE",
"73 145 OFFCURVE",
"33 86 CURVE",
"99 44 LINE",
"136 97 OFFCURVE",
"198 173 OFFCURVE",
"269 253 CURVE",
"356 156 OFFCURVE",
"434 44 OFFCURVE",
"454 -10 CURVE"
);
}
);
width = 634;
}
);
unicode = 10A43;
category = Letter;
},
{
glyphname = Ten_khar;
lastChange = "2019-12-16 17:24:49 +0000";
layers = (
{
layerId = UUID0;
paths = (
{
closed = 1;
nodes = (
"335 77 OFFCURVE",
"449 206 OFFCURVE",
"449 371 CURVE SMOOTH",
"449 506 OFFCURVE",
"394 609 OFFCURVE",
"227 609 CURVE SMOOTH",
"126 609 OFFCURVE",
"59 560 OFFCURVE",
"33 495 CURVE",
"109 460 LINE",
"129 506 OFFCURVE",
"161 535 OFFCURVE",
"227 535 CURVE SMOOTH",
"328 535 OFFCURVE",
"363 463 OFFCURVE",
"363 367 CURVE SMOOTH",
"363 209 OFFCURVE",
"246 106 OFFCURVE",
"164 38 CURVE",
"229 -14 LINE"
);
}
);
width = 493;
}
);
unicode = 10A44;
category = Letter;
},
{
glyphname = Twenty_khar;
lastChange = "2019-12-16 17:24:49 +0000";
layers = (
{
layerId = UUID0;
paths = (
{
closed = 1;
nodes = (
"404 26 OFFCURVE",
"477 101 OFFCURVE",
"477 206 CURVE SMOOTH",
"477 292 OFFCURVE",
"424 331 OFFCURVE",
"301 338 CURVE",
"351 365 OFFCURVE",
"395 401 OFFCURVE",
"395 468 CURVE SMOOTH",
"395 563 OFFCURVE",
"305 608 OFFCURVE",
"174 608 CURVE SMOOTH",
"129 608 OFFCURVE",
"77 602 OFFCURVE",
"33 579 CURVE",
"62 509 LINE",
"98 523 OFFCURVE",
"138 534 OFFCURVE",
"176 534 CURVE SMOOTH",
"227 534 OFFCURVE",
"307 517 OFFCURVE",
"307 466 CURVE SMOOTH",
"307 414 OFFCURVE",
"290 368 OFFCURVE",
"126 342 CURVE",
"150 278 LINE",
"351 278 OFFCURVE",
"391 253 OFFCURVE",
"391 194 CURVE SMOOTH",
"391 125 OFFCURVE",
"333 89 OFFCURVE",
"259 69 CURVE",
"281 -8 LINE"
);
}
);
width = 521;
}
);
unicode = 10A45;
category = Letter;
},
{
glyphname = OneHundred_khar;
lastChange = "2019-12-16 17:24:49 +0000";
layers = (
{
layerId = UUID0;
paths = (
{
closed = 1;
nodes = (
"228 155 OFFCURVE",
"282 357 OFFCURVE",
"282 509 CURVE",
"237 509 LINE",
"251 539 OFFCURVE",
"262 567 OFFCURVE",
"267 586 CURVE",
"194 614 LINE",
"175 564 OFFCURVE",
"124 449 OFFCURVE",
"57 380 CURVE",
"127 336 LINE",
"148 358 OFFCURVE",
"172 392 OFFCURVE",
"194 429 CURVE",
"180 285 OFFCURVE",
"127 169 OFFCURVE",
"33 20 CURVE",
"112 -12 LINE"
);
}
);
width = 326;
}
);
unicode = 10A46;
category = Letter;
},
{
glyphname = OneThousand_khar;
lastChange = "2019-12-16 17:24:49 +0000";
layers = (
{
layerId = UUID0;
paths = (
{
closed = 1;
nodes = (
"312 -6 OFFCURVE",
"521 9 OFFCURVE",
"557 23 CURVE",
"538 97 LINE",
"502 82 OFFCURVE",
"321 67 OFFCURVE",
"235 67 CURVE SMOOTH",
"193 67 OFFCURVE",
"164 84 OFFCURVE",
"164 128 CURVE SMOOTH",
"164 159 OFFCURVE",
"207 216 OFFCURVE",
"246 279 CURVE",
"274 276 OFFCURVE",
"305 275 OFFCURVE",
"337 275 CURVE SMOOTH",
"510 275 OFFCURVE",
"585 307 OFFCURVE",
"585 348 CURVE SMOOTH",
"585 456 OFFCURVE",
"571 530 OFFCURVE",
"550 621 CURVE",
"479 598 LINE",
"497 504 OFFCURVE",
"504 438 OFFCURVE",
"504 393 CURVE SMOOTH",
"504 346 OFFCURVE",
"487 339 OFFCURVE",
"324 339 CURVE SMOOTH",
"309 339 OFFCURVE",
"294 339 OFFCURVE",
"280 340 CURVE",
"295 371 OFFCURVE",
"305 401 OFFCURVE",
"305 429 CURVE SMOOTH",
"305 515 OFFCURVE",
"266 580 OFFCURVE",
"162 580 CURVE SMOOTH",
"86 580 OFFCURVE",
"33 523 OFFCURVE",
"33 452 CURVE SMOOTH",
"33 362 OFFCURVE",
"86 315 OFFCURVE",
"170 292 CURVE",
"127 218 OFFCURVE",
"77 141 OFFCURVE",
"77 104 CURVE SMOOTH",
"77 46 OFFCURVE",
"104 -6 OFFCURVE",
"233 -6 CURVE SMOOTH"
);
},
{
closed = 1;
nodes = (
"152 363 OFFCURVE",
"117 391 OFFCURVE",
"117 450 CURVE SMOOTH",
"117 480 OFFCURVE",
"137 506 OFFCURVE",
"163 506 CURVE SMOOTH",
"210 506 OFFCURVE",
"226 466 OFFCURVE",
"226 429 CURVE SMOOTH",
"226 408 OFFCURVE",
"216 380 OFFCURVE",
"201 350 CURVE"
);
}
);
width = 629;
}
);
unicode = 10A47;
category = Letter;
},
{
glyphname = OneHalf_khar;
lastChange = "2019-12-16 17:24:49 +0000";
layers = (
{
components = (
{
name = One_khar;
}
);
layerId = UUID0;
paths = (
{
closed = 1;
nodes = (
"-210 144 CURVE",
"-146 99 LINE",
"-116 143 OFFCURVE",
"136 345 OFFCURVE",
"218 396 CURVE",
"159 456 LINE",
"97 415 OFFCURVE",
"-180 202 OFFCURVE"
);
}
);
width = 325;
}
);
unicode = 10A48;
category = Letter;
},
{
glyphname = Dot_khar;
lastChange = "2019-12-16 17:24:49 +0000";
layers = (
{
layerId = UUID0;
paths = (
{
closed = 1;
nodes = (
"167 586 OFFCURVE",
"196 606 OFFCURVE",
"196 654 CURVE SMOOTH",
"196 703 OFFCURVE",
"167 721 OFFCURVE",
"133 721 CURVE SMOOTH",
"99 721 OFFCURVE",
"72 703 OFFCURVE",
"72 654 CURVE SMOOTH",
"72 606 OFFCURVE",
"99 586 OFFCURVE",
"133 586 CURVE SMOOTH"
);
}
);
width = 268;
}
);
unicode = 10A50;
category = Letter;
},
{
glyphname = SmallCircle_khar;
lastChange = "2019-12-16 17:24:49 +0000";
layers = (
{
layerId = UUID0;
paths = (
{
closed = 1;
nodes = (
"239 306 OFFCURVE",
"296 350 OFFCURVE",
"296 418 CURVE SMOOTH",
"296 483 OFFCURVE",
"254 527 OFFCURVE",
"180 527 CURVE SMOOTH",
"115 527 OFFCURVE",
"66 478 OFFCURVE",
"66 412 CURVE SMOOTH",
"66 345 OFFCURVE",
"110 306 OFFCURVE",
"175 306 CURVE SMOOTH"
);
},
{
closed = 1;
nodes = (
"139 356 OFFCURVE",
"119 377 OFFCURVE",
"119 412 CURVE SMOOTH",
"119 447 OFFCURVE",
"143 468 OFFCURVE",
"175 468 CURVE SMOOTH",
"207 468 OFFCURVE",
"231 447 OFFCURVE",
"231 412 CURVE SMOOTH",
"231 377 OFFCURVE",
"208 356 OFFCURVE",
"175 356 CURVE SMOOTH"
);
}
);
width = 362;
}
);
unicode = 10A51;
category = Letter;
},
{
glyphname = Circle_khar;
lastChange = "2019-12-16 17:24:49 +0000";
layers = (
{
layerId = UUID0;
paths = (
{
closed = 1;
nodes = (
"416 175 OFFCURVE",
"524 258 OFFCURVE",
"524 387 CURVE SMOOTH",
"524 511 OFFCURVE",
"444 594 OFFCURVE",
"304 594 CURVE SMOOTH",
"181 594 OFFCURVE",
"88 501 OFFCURVE",
"88 376 CURVE SMOOTH",
"88 249 OFFCURVE",
"171 175 OFFCURVE",
"295 175 CURVE SMOOTH"
);
},
{
closed = 1;
nodes = (
"202 232 OFFCURVE",
"150 287 OFFCURVE",
"150 378 CURVE SMOOTH",
"150 469 OFFCURVE",
"213 524 OFFCURVE",
"297 524 CURVE SMOOTH",
"380 524 OFFCURVE",
"443 469 OFFCURVE",
"443 378 CURVE SMOOTH",
"443 287 OFFCURVE",
"383 232 OFFCURVE",
"297 232 CURVE SMOOTH"
);
}
);
width = 612;
}
);
unicode = 10A52;
category = Letter;
},
{
glyphname = CrescentBar_khar;
lastChange = "2019-12-16 17:24:49 +0000";
layers = (
{
layerId = UUID0;
paths = (
{
closed = 1;
nodes = (
"516 5 OFFCURVE",
"645 27 OFFCURVE",
"725 57 CURVE",
"704 133 LINE",
"630 101 OFFCURVE",
"518 87 OFFCURVE",
"450 87 CURVE SMOOTH",
"304 87 OFFCURVE",
"188 160 OFFCURVE",
"173 334 CURVE",
"233 351 OFFCURVE",
"328 364 OFFCURVE",
"440 364 CURVE SMOOTH",
"539 364 OFFCURVE",
"717 347 OFFCURVE",
"763 330 CURVE",
"781 399 LINE",
"733 419 OFFCURVE",
"549 437 OFFCURVE",
"441 437 CURVE SMOOTH",
"338 437 OFFCURVE",
"242 428 OFFCURVE",
"173 414 CURVE",
"187 595 OFFCURVE",
"296 635 OFFCURVE",
"391 635 CURVE SMOOTH",
"452 635 OFFCURVE",
"577 617 OFFCURVE",
"636 589 CURVE",
"668 660 LINE",
"604 688 OFFCURVE",
"521 710 OFFCURVE",
"390 710 CURVE SMOOTH",
"231 710 OFFCURVE",
"88 615 OFFCURVE",
"88 372 CURVE SMOOTH",
"88 119 OFFCURVE",
"214 5 OFFCURVE",
"443 5 CURVE SMOOTH"
);
}
);
width = 803;
}
);
unicode = 10A53;
category = Letter;
},
{
glyphname = Mangalam_khar;
lastChange = "2019-12-16 17:24:49 +0000";
layers = (
{
layerId = UUID0;
paths = (
{
closed = 1;
nodes = (
"485 122 OFFCURVE",
"623 228 OFFCURVE",
"623 393 CURVE SMOOTH",
"623 551 OFFCURVE",
"521 657 OFFCURVE",
"342 657 CURVE SMOOTH",
"185 657 OFFCURVE",
"66 538 OFFCURVE",
"66 378 CURVE SMOOTH",
"66 216 OFFCURVE",
"172 122 OFFCURVE",
"330 122 CURVE SMOOTH"
);
},
{
closed = 1;
nodes = (
"273 176 OFFCURVE",
"226 191 OFFCURVE",
"191 220 CURVE",
"251 240 LINE",
"233 283 OFFCURVE",
"230 306 OFFCURVE",
"230 330 CURVE SMOOTH",
"230 359 OFFCURVE",
"245 371 OFFCURVE",
"314 375 CURVE",
"304 347 OFFCURVE",
"294 317 OFFCURVE",
"294 288 CURVE SMOOTH",
"294 250 OFFCURVE",
"309 222 OFFCURVE",
"366 222 CURVE SMOOTH",
"403 222 OFFCURVE",
"469 253 OFFCURVE",
"504 284 CURVE",
"472 335 LINE",
"446 311 OFFCURVE",
"403 286 OFFCURVE",
"384 286 CURVE SMOOTH",
"369 286 OFFCURVE",
"356 292 OFFCURVE",
"356 314 CURVE SMOOTH",
"356 327 OFFCURVE",
"365 350 OFFCURVE",
"375 376 CURVE",
"453 376 OFFCURVE",
"506 380 OFFCURVE",
"538 386 CURVE",
"538 381 LINE SMOOTH",
"538 253 OFFCURVE",
"455 176 OFFCURVE",
"333 176 CURVE SMOOTH"
);
},
{
closed = 1;
nodes = (
"146 260 OFFCURVE",
"126 313 OFFCURVE",
"126 381 CURVE SMOOTH",
"126 509 OFFCURVE",
"215 586 OFFCURVE",
"333 586 CURVE SMOOTH",
"427 586 OFFCURVE",
"503 535 OFFCURVE",
"528 449 CURVE",
"502 444 OFFCURVE",
"464 440 OFFCURVE",
"397 440 CURVE",
"399 449 OFFCURVE",
"401 458 OFFCURVE",
"401 466 CURVE SMOOTH",
"401 523 OFFCURVE",
"373 549 OFFCURVE",
"320 549 CURVE SMOOTH",
"289 549 OFFCURVE",
"250 541 OFFCURVE",
"206 518 CURVE",
"226 464 LINE",
"258 480 OFFCURVE",
"284 485 OFFCURVE",
"303 485 CURVE SMOOTH",
"320 485 OFFCURVE",
"335 479 OFFCURVE",
"335 448 CURVE SMOOTH",
"335 445 OFFCURVE",
"335 442 OFFCURVE",
"334 439 CURVE",
"208 434 OFFCURVE",
"158 408 OFFCURVE",
"158 339 CURVE SMOOTH",
"158 303 OFFCURVE",
"165 266 OFFCURVE",
"186 224 CURVE"
);
}
);
width = 689;
}
);
unicode = 10A54;
category = Letter;
},
{
glyphname = Lotus_khar;
lastChange = "2019-12-16 17:24:49 +0000";
layers = (
{
layerId = UUID0;
paths = (
{
closed = 1;
nodes = (
"676 484 OFFCURVE",
"733 528 OFFCURVE",
"733 596 CURVE SMOOTH",
"733 661 OFFCURVE",
"691 705 OFFCURVE",
"617 705 CURVE SMOOTH",
"552 705 OFFCURVE",
"503 656 OFFCURVE",
"503 590 CURVE SMOOTH",
"503 523 OFFCURVE",
"547 484 OFFCURVE",
"612 484 CURVE SMOOTH"
);
},
{
closed = 1;
nodes = (
"218 69 OFFCURVE",
"198 90 OFFCURVE",
"198 125 CURVE SMOOTH",
"198 160 OFFCURVE",
"222 181 OFFCURVE",
"254 181 CURVE SMOOTH",
"286 181 OFFCURVE",
"310 160 OFFCURVE",
"310 125 CURVE SMOOTH",
"310 90 OFFCURVE",
"287 69 OFFCURVE",
"254 69 CURVE SMOOTH"
);
},
{
closed = 1;
nodes = (
"318 19 OFFCURVE",
"375 63 OFFCURVE",
"375 131 CURVE SMOOTH",
"375 196 OFFCURVE",
"333 240 OFFCURVE",
"259 240 CURVE SMOOTH",
"194 240 OFFCURVE",
"145 191 OFFCURVE",
"145 125 CURVE SMOOTH",
"145 58 OFFCURVE",
"189 19 OFFCURVE",
"254 19 CURVE SMOOTH"
);
},
{
closed = 1;
nodes = (
"139 308 OFFCURVE",
"119 329 OFFCURVE",
"119 364 CURVE SMOOTH",
"119 399 OFFCURVE",
"143 420 OFFCURVE",
"175 420 CURVE SMOOTH",
"207 420 OFFCURVE",
"231 399 OFFCURVE",
"231 364 CURVE SMOOTH",
"231 329 OFFCURVE",
"208 308 OFFCURVE",
"175 308 CURVE SMOOTH"
);
},
{
closed = 1;
nodes = (
"239 258 OFFCURVE",
"296 302 OFFCURVE",
"296 370 CURVE SMOOTH",
"296 435 OFFCURVE",
"254 479 OFFCURVE",
"180 479 CURVE SMOOTH",
"115 479 OFFCURVE",
"66 430 OFFCURVE",
"66 364 CURVE SMOOTH",
"66 297 OFFCURVE",
"110 258 OFFCURVE",
"175 258 CURVE SMOOTH"
);
},
{
closed = 1;
nodes = (
"497 41 OFFCURVE",
"477 62 OFFCURVE",
"477 97 CURVE SMOOTH",
"477 132 OFFCURVE",
"501 153 OFFCURVE",
"533 153 CURVE SMOOTH",
"565 153 OFFCURVE",
"589 132 OFFCURVE",
"589 97 CURVE SMOOTH",
"589 62 OFFCURVE",
"566 41 OFFCURVE",
"533 41 CURVE SMOOTH"
);
},
{
closed = 1;
nodes = (
"597 -9 OFFCURVE",
"654 35 OFFCURVE",
"654 103 CURVE SMOOTH",
"654 168 OFFCURVE",
"612 212 OFFCURVE",
"538 212 CURVE SMOOTH",
"473 212 OFFCURVE",
"424 163 OFFCURVE",
"424 97 CURVE SMOOTH",
"424 30 OFFCURVE",
"468 -9 OFFCURVE",
"533 -9 CURVE SMOOTH"
);
},
{
closed = 1;
nodes = (
"417 300 OFFCURVE",
"397 321 OFFCURVE",
"397 356 CURVE SMOOTH",
"397 391 OFFCURVE",
"421 412 OFFCURVE",
"453 412 CURVE SMOOTH",
"485 412 OFFCURVE",
"509 391 OFFCURVE",
"509 356 CURVE SMOOTH",
"509 321 OFFCURVE",
"486 300 OFFCURVE",
"453 300 CURVE SMOOTH"
);
},
{
closed = 1;
nodes = (
"517 250 OFFCURVE",
"574 294 OFFCURVE",
"574 362 CURVE SMOOTH",
"574 427 OFFCURVE",
"532 471 OFFCURVE",
"458 471 CURVE SMOOTH",
"393 471 OFFCURVE",
"344 422 OFFCURVE",
"344 356 CURVE SMOOTH",
"344 289 OFFCURVE",
"388 250 OFFCURVE",
"453 250 CURVE SMOOTH"
);
},
{
closed = 1;
nodes = (
"306 550 OFFCURVE",
"286 571 OFFCURVE",
"286 606 CURVE SMOOTH",
"286 641 OFFCURVE",
"310 662 OFFCURVE",
"342 662 CURVE SMOOTH",
"374 662 OFFCURVE",
"398 641 OFFCURVE",
"398 606 CURVE SMOOTH",
"398 571 OFFCURVE",
"375 550 OFFCURVE",
"342 550 CURVE SMOOTH"
);
},
{
closed = 1;
nodes = (
"406 500 OFFCURVE",
"463 544 OFFCURVE",
"463 612 CURVE SMOOTH",
"463 677 OFFCURVE",
"421 721 OFFCURVE",
"347 721 CURVE SMOOTH",
"282 721 OFFCURVE",
"233 672 OFFCURVE",
"233 606 CURVE SMOOTH",
"233 539 OFFCURVE",
"277 500 OFFCURVE",
"342 500 CURVE SMOOTH"
);
},
{
closed = 1;
nodes = (
"674 273 OFFCURVE",
"654 294 OFFCURVE",
"654 329 CURVE SMOOTH",
"654 364 OFFCURVE",
"678 385 OFFCURVE",
"710 385 CURVE SMOOTH",
"742 385 OFFCURVE",
"766 364 OFFCURVE",
"766 329 CURVE SMOOTH",
"766 294 OFFCURVE",
"743 273 OFFCURVE",
"710 273 CURVE SMOOTH"
);
},
{
closed = 1;
nodes = (
"774 223 OFFCURVE",
"831 267 OFFCURVE",
"831 335 CURVE SMOOTH",
"831 400 OFFCURVE",
"789 444 OFFCURVE",
"715 444 CURVE SMOOTH",
"650 444 OFFCURVE",
"601 395 OFFCURVE",
"601 329 CURVE SMOOTH",
"601 262 OFFCURVE",
"645 223 OFFCURVE",
"710 223 CURVE SMOOTH"
);
},
{
closed = 1;
nodes = (
"576 534 OFFCURVE",
"556 555 OFFCURVE",
"556 590 CURVE SMOOTH",
"556 625 OFFCURVE",
"580 646 OFFCURVE",
"612 646 CURVE SMOOTH",
"644 646 OFFCURVE",
"668 625 OFFCURVE",
"668 590 CURVE SMOOTH",
"668 555 OFFCURVE",
"645 534 OFFCURVE",
"612 534 CURVE SMOOTH"
);
}
);
width = 897;
}
);
unicode = 10A55;
category = Letter;
},
{
glyphname = Danda_khar;
lastChange = "2019-12-16 17:24:49 +0000";
layers = (
{
layerId = UUID0;
paths = (
{
closed = 1;
nodes = (
"167 85 OFFCURVE",
"272 543 OFFCURVE",
"293 710 CURVE",
"228 717 LINE",
"210 572 OFFCURVE",
"85 104 OFFCURVE",
"44 6 CURVE",
"125 -16 LINE"
);
}
);
width = 337;
}
);
unicode = 10A56;
category = Letter;
},
{
glyphname = DoubleDanda_khar;
lastChange = "2019-12-16 17:24:49 +0000";
layers = (
{
layerId = UUID0;
paths = (
{
closed = 1;
nodes = (
"304 85 OFFCURVE",
"409 543 OFFCURVE",
"430 710 CURVE",
"365 717 LINE",
"347 572 OFFCURVE",
"222 104 OFFCURVE",
"181 6 CURVE",
"262 -16 LINE"
);
},
{
closed = 1;
nodes = (
"167 85 OFFCURVE",
"272 543 OFFCURVE",
"293 710 CURVE",
"228 717 LINE",
"210 572 OFFCURVE",
"85 104 OFFCURVE",
"44 6 CURVE",
"125 -16 LINE"
);
}
);
width = 474;
}
);
unicode = 10A57;
category = Letter;
},
{
glyphname = Lines_khar;
lastChange = "2019-12-16 17:24:49 +0000";
layers = (
{
layerId = UUID0;
paths = (
{
closed = 1;
nodes = (
"499 339 OFFCURVE",
"504 402 OFFCURVE",
"593 402 CURVE SMOOTH",
"682 402 OFFCURVE",
"687 339 OFFCURVE",
"791 339 CURVE SMOOTH",
"866 339 OFFCURVE",
"922 361 OFFCURVE",
"999 398 CURVE",
"971 474 LINE",
"878 430 OFFCURVE",
"851 413 OFFCURVE",
"791 413 CURVE SMOOTH",
"731 413 OFFCURVE",
"702 484 OFFCURVE",
"593 484 CURVE SMOOTH",
"484 484 OFFCURVE",
"455 413 OFFCURVE",
"395 413 CURVE SMOOTH",
"335 413 OFFCURVE",
"306 484 OFFCURVE",
"197 484 CURVE SMOOTH",
"142 484 OFFCURVE",
"76 457 OFFCURVE",
"31 434 CURVE",
"64 365 LINE",
"99 383 OFFCURVE",
"139 402 OFFCURVE",
"184 402 CURVE SMOOTH",
"273 402 OFFCURVE",
"291 339 OFFCURVE",
"395 339 CURVE SMOOTH"
);
},
{
closed = 1;
nodes = (
"479 169 OFFCURVE",
"484 232 OFFCURVE",
"573 232 CURVE SMOOTH",
"662 232 OFFCURVE",
"667 169 OFFCURVE",
"771 169 CURVE SMOOTH",
"844 169 OFFCURVE",
"902 191 OFFCURVE",
"979 228 CURVE",
"951 304 LINE",
"858 260 OFFCURVE",
"831 243 OFFCURVE",
"771 243 CURVE SMOOTH",
"711 243 OFFCURVE",
"682 314 OFFCURVE",
"573 314 CURVE SMOOTH",
"464 314 OFFCURVE",
"435 243 OFFCURVE",
"375 243 CURVE SMOOTH",
"315 243 OFFCURVE",
"276 314 OFFCURVE",
"177 314 CURVE SMOOTH",
"122 314 OFFCURVE",
"56 287 OFFCURVE",
"11 264 CURVE",
"44 195 LINE",
"79 213 OFFCURVE",
"119 232 OFFCURVE",
"164 232 CURVE SMOOTH",
"253 232 OFFCURVE",
"271 169 OFFCURVE",
"375 169 CURVE SMOOTH"
);
}
);
width = 1010;
}
);
unicode = 10A58;
category = Letter;
},
{
glyphname = AE_khar;
lastChange = "2019-12-16 17:27:39 +0000";
layers = (
{
anchors = (
{
name = Anchor12;
position = "{334, 0}";
},
{
name = Anchor14;
position = "{327, 712}";
},
{
name = Anchor16;
position = "{287, 0}";
},
{
name = Anchor18;
position = "{431, -6}";
},
{
name = Anchor28;
position = "{420, 100}";
}
);
components = (
{
name = A_khar;
}
);
layerId = UUID0;
paths = (
{
closed = 1;
nodes = (
"712 403 OFFCURVE",
"645 389 OFFCURVE",
"500 385 CURVE",
"482 326 LINE",
"653 329 OFFCURVE",
"723 344 OFFCURVE",
"766 362 CURVE",
"751 417 LINE"
);
}
);
width = 802;
}
);
note = g105;
category = Letter;
},
{
glyphname = Nni_khar;
lastChange = "2019-12-16 17:27:39 +0000";
layers = (
{
anchors = (
{
name = Anchor12;
position = "{272, 0}";
},
{
name = Anchor14;
position = "{270, 712}";
},
{
name = Anchor16;
position = "{211, -19}";
},
{
name = Anchor18;
position = "{353, -30}";
},
{
name = Anchor28;
position = "{273, 53}";
}
);
layerId = UUID0;
paths = (
{
closed = 1;
nodes = (
"153 151 OFFCURVE",
"285 367 OFFCURVE",
"390 565 CURVE",
"464 717 LINE",
"423 729 LINE",
"327 532 OFFCURVE",
"95 169 OFFCURVE",
"22 72 CURVE",
"79 48 LINE"
);
},
{
closed = 1;
nodes = (
"295 -4 LINE",
"279 55 OFFCURVE",
"260 169 OFFCURVE",
"260 326 CURVE SMOOTH",
"260 406 OFFCURVE",
"263 487 OFFCURVE",
"273 571 CURVE",
"305 515 OFFCURVE",
"342 460 OFFCURVE",
"361 435 CURVE",
"431 479 LINE",
"375 557 OFFCURVE",
"296 667 OFFCURVE",
"294 713 CURVE",
"209 720 LINE",
"189 593 OFFCURVE",
"178 453 OFFCURVE",
"178 326 CURVE SMOOTH",
"178 165 OFFCURVE",
"199 44 OFFCURVE",
"211 -16 CURVE"
);
}
);
width = 494;
}
);
note = g81;
category = Letter;
},
{
glyphname = Nnu_khar;
lastChange = "2019-12-16 17:45:56 +0000";
layers = (
{
anchors = (
{
name = Anchor12;
position = "{220, -120}";
},
{
name = Anchor14;
position = "{328, 712}";
},
{
name = Anchor16;
position = "{269, -89}";
},
{
name = Anchor28;
position = "{333, 53}";
}
);
background = {
paths = (
{
closed = 1;
nodes = (
"353 -4 LINE",
"337 55 OFFCURVE",
"318 169 OFFCURVE",
"318 326 CURVE SMOOTH",
"318 406 OFFCURVE",
"321 487 OFFCURVE",
"331 571 CURVE",
"363 515 OFFCURVE",
"400 460 OFFCURVE",
"419 435 CURVE",
"489 479 LINE",
"433 557 OFFCURVE",
"354 667 OFFCURVE",
"352 713 CURVE",
"267 720 LINE",
"247 593 OFFCURVE",
"236 453 OFFCURVE",
"236 326 CURVE SMOOTH",
"236 165 OFFCURVE",
"257 44 OFFCURVE",
"269 -16 CURVE"
);
},
{
closed = 1;
nodes = (
"305 -136 OFFCURVE",
"354 -81 OFFCURVE",
"354 -19 CURVE SMOOTH",
"354 38 OFFCURVE",
"312 85 OFFCURVE",
"214 85 CURVE SMOOTH",
"110 85 OFFCURVE",
"64 25 OFFCURVE",
"64 -30 CURVE SMOOTH",
"64 -97 OFFCURVE",
"113 -136 OFFCURVE",
"203 -136 CURVE SMOOTH"
);
},
{
closed = 1;
nodes = (
"144 -86 OFFCURVE",
"117 -65 OFFCURVE",
"117 -30 CURVE SMOOTH",
"117 5 OFFCURVE",
"150 26 OFFCURVE",
"193 26 CURVE SMOOTH",
"236 26 OFFCURVE",
"269 5 OFFCURVE",
"269 -30 CURVE SMOOTH",
"269 -65 OFFCURVE",
"238 -86 OFFCURVE",
"193 -86 CURVE SMOOTH"
);
}
);
};
layerId = UUID0;
paths = (
{
closed = 1;
nodes = (
"489 479 LINE",
"433 557 OFFCURVE",
"354 667 OFFCURVE",
"352 713 CURVE",
"267 720 LINE",
"247 593 OFFCURVE",
"236 453 OFFCURVE",
"236 326 CURVE SMOOTH",
"236 229 OFFCURVE",
"244 146 OFFCURVE",
"252 82 CURVE",
"241 84 OFFCURVE",
"228 85 OFFCURVE",
"214 85 CURVE SMOOTH",
"110 85 OFFCURVE",
"64 25 OFFCURVE",
"64 -30 CURVE SMOOTH",
"64 -97 OFFCURVE",
"113 -136 OFFCURVE",
"203 -136 CURVE SMOOTH",
"305 -136 OFFCURVE",
"354 -81 OFFCURVE",
"354 -19 CURVE SMOOTH",
"354 -4 OFFCURVE",
"351 8 OFFCURVE",
"348 16 CURVE",
"333 79 OFFCURVE",
"318 186 OFFCURVE",
"318 326 CURVE SMOOTH",
"318 406 OFFCURVE",
"321 487 OFFCURVE",
"331 571 CURVE",
"363 515 OFFCURVE",
"400 460 OFFCURVE",
"419 435 CURVE"
);
},
{
closed = 1;
nodes = (
"144 -86 OFFCURVE",
"117 -65 OFFCURVE",
"117 -30 CURVE SMOOTH",
"117 5 OFFCURVE",
"150 26 OFFCURVE",
"193 26 CURVE SMOOTH",
"236 26 OFFCURVE",
"269 5 OFFCURVE",
"269 -30 CURVE SMOOTH",
"269 -65 OFFCURVE",
"238 -86 OFFCURVE",
"193 -86 CURVE SMOOTH"
);
}
);
width = 551;
}
);
category = Letter;
},
{
glyphname = Nno_khar;
lastChange = "2019-12-16 17:27:39 +0000";
layers = (
{
anchors = (
{
name = Anchor12;
position = "{390, 0}";
},
{
name = Anchor14;
position = "{388, 712}";
},
{
name = Anchor16;
position = "{329, -19}";
},
{
name = Anchor28;
position = "{393, 53}";
}
);
layerId = UUID0;
paths = (
{
closed = 1;
nodes = (
"413 -4 LINE",
"397 55 OFFCURVE",
"378 169 OFFCURVE",
"378 326 CURVE SMOOTH",
"378 406 OFFCURVE",
"381 487 OFFCURVE",
"391 571 CURVE",
"423 515 OFFCURVE",
"460 460 OFFCURVE",
"479 435 CURVE",
"549 479 LINE",
"493 557 OFFCURVE",
"414 667 OFFCURVE",
"412 713 CURVE",
"327 720 LINE",
"307 593 OFFCURVE",
"296 453 OFFCURVE",
"296 326 CURVE SMOOTH",
"296 165 OFFCURVE",
"317 44 OFFCURVE",
"329 -16 CURVE"
);
},
{
closed = 1;
nodes = (
"191 258 OFFCURVE",
"285 305 OFFCURVE",
"375 355 CURVE",
"350 408 LINE",
"256 359 OFFCURVE",
"148 306 OFFCURVE",
"66 271 CURVE",
"100 214 LINE"
);
}
);
width = 611;
}
);
category = Letter;
},
{
glyphname = Ne_khar;
lastChange = "2019-12-16 17:27:39 +0000";
layers = (
{
anchors = (
{
name = Anchor12;
position = "{251, 0}";
},
{
name = Anchor14;
position = "{263, 712}";
},
{
name = Anchor16;
position = "{184, 1}";
},
{
name = Anchor18;
position = "{315, -7}";
},
{
name = Anchor28;
position = "{299, 100}";
}
);
components = (
{
name = Na_khar;
}
);
layerId = UUID0;
paths = (
{
closed = 1;
nodes = (
"574 403 OFFCURVE",
"507 389 OFFCURVE",
"362 385 CURVE",
"344 326 LINE",
"515 329 OFFCURVE",
"585 344 OFFCURVE",
"628 362 CURVE",
"613 417 LINE"
);
}
);
width = 670;
}
);
note = g106;
category = Letter;
},
{
glyphname = Mu_khar;
lastChange = "2019-12-16 17:27:39 +0000";
layers = (
{
anchors = (
{
name = Anchor10;
position = "{293, -67}";
},
{
name = Anchor12;
position = "{213, 0}";
},
{
name = Anchor14;
position = "{301, 712}";
},
{
name = Anchor16;
position = "{228, -103}";
},
{
name = Anchor28;
position = "{274, 0}";
},
{
name = Anchor6;
position = "{201, 0}";
},
{
name = Anchor8;
position = "{92, 90}";
}
);
layerId = UUID0;
paths = (
{
closed = 1;
nodes = (
"215 -15 OFFCURVE",
"250 -11 OFFCURVE",
"287 -2 CURVE",
"269 69 LINE",
"239 61 OFFCURVE",
"212 56 OFFCURVE",
"188 56 CURVE SMOOTH",
"146 56 OFFCURVE",
"123 74 OFFCURVE",
"123 104 CURVE SMOOTH",
"123 140 OFFCURVE",
"169 178 OFFCURVE",
"214 211 CURVE SMOOTH",
"364 321 OFFCURVE",
"412 403 OFFCURVE",
"412 509 CURVE SMOOTH",
"412 592 OFFCURVE",
"386 664 OFFCURVE",
"335 732 CURVE",
"269 698 LINE",
"312 627 OFFCURVE",
"328 581 OFFCURVE",
"328 496 CURVE SMOOTH",
"328 408 OFFCURVE",
"275 353 OFFCURVE",
"184 283 CURVE SMOOTH",
"99 218 OFFCURVE",
"39 171 OFFCURVE",
"39 98 CURVE SMOOTH",
"39 23 OFFCURVE",
"89 -15 OFFCURVE",
"183 -15 CURVE SMOOTH"
);
}
);
width = 461;
}
);
note = g104;
category = Letter;
},
{
glyphname = Me_khar;
lastChange = "2019-12-16 17:27:39 +0000";
layers = (
{
anchors = (
{
name = Anchor10;
position = "{470, 175}";
},
{
name = Anchor12;
position = "{376, 255}";
},
{
name = Anchor14;
position = "{406, 712}";
},
{
name = Anchor16;
position = "{389, 145}";
},
{
name = Anchor18;
position = "{351, 0}";
},
{
name = Anchor28;
position = "{499, 300}";
},
{
name = Anchor30;
position = "{340, 355}";
},
{
name = Anchor6;
position = "{280, 146}";
}
);
layerId = UUID0;
paths = (
{
closed = 1;
nodes = (
"547 285 OFFCURVE",
"678 369 OFFCURVE",
"678 511 CURVE SMOOTH",
"678 568 OFFCURVE",
"655 620 OFFCURVE",
"608 667 CURVE",
"545 615 LINE",
"578 581 OFFCURVE",
"594 544 OFFCURVE",
"594 508 CURVE SMOOTH",
"594 416 OFFCURVE",
"525 359 OFFCURVE",
"407 359 CURVE SMOOTH",
"400 359 LINE",
"426 479 OFFCURVE",
"442 563 OFFCURVE",
"448 611 CURVE",
"395 619 LINE",
"386 564 OFFCURVE",
"355 447 OFFCURVE",
"329 367 CURVE",
"240 389 OFFCURVE",
"192 449 OFFCURVE",
"192 533 CURVE SMOOTH",
"192 580 OFFCURVE",
"215 648 OFFCURVE",
"247 699 CURVE",
"176 731 LINE",
"136 676 OFFCURVE",
"106 584 OFFCURVE",
"106 526 CURVE SMOOTH",
"106 370 OFFCURVE",
"229 285 OFFCURVE",
"394 285 CURVE SMOOTH"
);
}
);
width = 696;
}
);
note = g114;
category = Letter;
},
{
glyphname = Mo_khar;
lastChange = "2019-12-16 17:27:39 +0000";
layers = (
{
anchors = (
{
name = Anchor10;
position = "{470, 175}";
},
{
name = Anchor12;
position = "{386, 125}";
},
{
name = Anchor14;
position = "{406, 712}";
},
{
name = Anchor16;
position = "{389, 145}";
},
{
name = Anchor18;
position = "{351, 0}";
},
{
name = Anchor28;
position = "{499, 300}";
},
{
name = Anchor6;
position = "{280, 146}";
},
{
name = Anchor8;
position = "{374, 186}";
}
);
layerId = UUID0;
paths = (
{
closed = 1;
nodes = (
"537 285 OFFCURVE",
"678 362 OFFCURVE",
"678 511 CURVE SMOOTH",
"678 564 OFFCURVE",
"656 619 OFFCURVE",
"608 667 CURVE",
"545 615 LINE",
"578 580 OFFCURVE",
"594 542 OFFCURVE",
"594 508 CURVE SMOOTH",
"594 407 OFFCURVE",
"515 359 OFFCURVE",
"407 359 CURVE SMOOTH",
"281 359 OFFCURVE",
"192 417 OFFCURVE",
"192 533 CURVE SMOOTH",
"192 579 OFFCURVE",
"214 645 OFFCURVE",
"247 699 CURVE",
"176 731 LINE",
"139 680 OFFCURVE",
"106 588 OFFCURVE",
"106 526 CURVE SMOOTH",
"106 364 OFFCURVE",
"237 285 OFFCURVE",
"394 285 CURVE SMOOTH"
);
},
{
closed = 1;
nodes = (
"306 166 OFFCURVE",
"384 236 OFFCURVE",
"458 308 CURVE",
"420 352 LINE",
"342 281 OFFCURVE",
"252 201 OFFCURVE",
"182 146 CURVE",
"229 100 LINE"
);
}
);
width = 696;
}
);
category = Letter;
},
{
glyphname = De_khar;
lastChange = "2019-12-16 17:27:39 +0000";
layers = (
{
anchors = (
{
name = Anchor10;
position = "{502, -66}";
},
{
name = Anchor12;
position = "{401, 0}";
},
{
name = Anchor14;
position = "{408, 712}";
},
{
name = Anchor16;
position = "{448, -93}";
},
{
name = Anchor18;
position = "{361, -200}";
},
{
name = Anchor22;
position = "{391, -57}";
},
{
name = Anchor28;
position = "{642, 100}";
},
{
name = Anchor32;
position = "{183, 365}";
},
{
name = Anchor6;
position = "{349, -107}";
}
);
layerId = UUID0;
paths = (
{
closed = 1;
nodes = (
"574 -8 OFFCURVE",
"659 80 OFFCURVE",
"735 259 CURVE",
"661 286 LINE",
"594 134 OFFCURVE",
"532 67 OFFCURVE",
"391 67 CURVE SMOOTH",
"250 67 OFFCURVE",
"167 204 OFFCURVE",
"167 367 CURVE SMOOTH",
"167 552 OFFCURVE",
"247 655 OFFCURVE",
"405 655 CURVE SMOOTH",
"464 655 OFFCURVE",
"516 645 OFFCURVE",
"560 625 CURVE",
"590 694 LINE",
"536 718 OFFCURVE",
"474 730 OFFCURVE",
"404 730 CURVE SMOOTH",
"205 730 OFFCURVE",
"83 585 OFFCURVE",
"83 372 CURVE SMOOTH",
"83 156 OFFCURVE",
"190 -8 OFFCURVE",
"392 -8 CURVE SMOOTH"
);
}
);
width = 771;
}
);
note = g113;
category = Letter;
},
{
glyphname = He_khar;
lastChange = "2019-12-16 17:27:41 +0000";
layers = (
{
anchors = (
{
name = Anchor10;
position = "{394, -67}";
},
{
name = Anchor12;
position = "{284, 0}";
},
{
name = Anchor14;
position = "{313, 712}";
},
{
name = Anchor16;
position = "{318, -90}";
},
{
name = Anchor18;
position = "{231, -176}";
},
{
name = Anchor20;
position = "{54, 0}";
},
{
name = Anchor22;
position = "{294, -45}";
},
{
name = Anchor26;
position = "{300, -170}";
},
{
name = Anchor28;
position = "{418, 38}";
},
{
name = Anchor6;
position = "{292, 0}";
},
{
name = Anchor8;
position = "{178, -90}";
}
);
components = (
{
name = Ha_khar;
}
);
layerId = UUID0;
paths = (
{
closed = 1;
nodes = (
"614 403 OFFCURVE",
"547 389 OFFCURVE",
"402 385 CURVE",
"384 326 LINE",
"555 329 OFFCURVE",
"625 344 OFFCURVE",
"668 362 CURVE",
"653 417 LINE"
);
}
);
width = 705;
}
);
note = g107;
category = Letter;
},
{
glyphname = KTa_khar;
lastChange = "2019-12-16 17:27:41 +0000";
layers = (
{
anchors = (
{
name = Anchor10;
position = "{329, -336}";
},
{
name = Anchor12;
position = "{412, -239}";
},
{
name = Anchor14;
position = "{302, 712}";
},
{
name = Anchor16;
position = "{282, -250}";
},
{
name = Anchor18;
position = "{326, -384}";
},
{
name = Anchor20;
position = "{255, -105}";
},
{
name = Anchor26;
position = "{430, 255}";
},
{
name = Anchor28;
position = "{685, 100}";
},
{
name = Anchor30;
position = "{439, 58}";
},
{
name = Anchor32;
position = "{448, -95}";
},
{
name = Anchor4;
position = "{255, 104}";
},
{
name = Anchor8;
position = "{205, -352}";
}
);
layerId = UUID0;
paths = (
{
closed = 1;
nodes = (
"384 -243 OFFCURVE",
"504 -153 OFFCURVE",
"504 -20 CURVE SMOOTH",
"504 45 OFFCURVE",
"475 86 OFFCURVE",
"417 105 CURVE",
"444 172 OFFCURVE",
"467 239 OFFCURVE",
"485 307 CURVE",
"596 280 OFFCURVE",
"647 226 OFFCURVE",
"647 143 CURVE SMOOTH",
"647 106 OFFCURVE",
"631 71 OFFCURVE",
"598 36 CURVE",
"661 -16 LINE",
"709 33 OFFCURVE",
"733 88 OFFCURVE",
"733 150 CURVE SMOOTH",
"733 271 OFFCURVE",
"655 350 OFFCURVE",
"500 380 CURVE",
"506 413 OFFCURVE",
"509 445 OFFCURVE",
"509 478 CURVE SMOOTH",
"509 638 OFFCURVE",
"432 716 OFFCURVE",
"287 716 CURVE SMOOTH",
"171 716 OFFCURVE",
"81 646 OFFCURVE",
"81 536 CURVE SMOOTH",
"81 479 OFFCURVE",
"104 427 OFFCURVE",
"151 380 CURVE",
"214 432 LINE",
"182 467 OFFCURVE",
"165 502 OFFCURVE",
"165 539 CURVE SMOOTH",
"165 601 OFFCURVE",
"214 642 OFFCURVE",
"287 642 CURVE SMOOTH",
"377 642 OFFCURVE",
"423 584 OFFCURVE",
"423 474 CURVE SMOOTH",
"423 381 OFFCURVE",
"393 262 OFFCURVE",
"332 116 CURVE",
"296 112 OFFCURVE",
"247 108 OFFCURVE",
"207 108 CURVE SMOOTH",
"156 108 OFFCURVE",
"137 116 OFFCURVE",
"137 146 CURVE SMOOTH",
"137 173 OFFCURVE",
"161 196 OFFCURVE",
"196 204 CURVE",
"173 260 LINE",
"112 252 OFFCURVE",
"59 201 OFFCURVE",
"59 144 CURVE SMOOTH",
"59 72 OFFCURVE",
"110 35 OFFCURVE",
"195 35 CURVE SMOOTH",
"225 35 OFFCURVE",
"306 41 OFFCURVE",
"330 43 CURVE SMOOTH",
"392 49 OFFCURVE",
"423 21 OFFCURVE",
"423 -21 CURVE SMOOTH",
"423 -122 OFFCURVE",
"331 -184 OFFCURVE",
"126 -221 CURVE",
"144 -289 LINE"
);
}
);
width = 792;
}
);
note = "g131\012kta";
category = Letter;
},
{
glyphname = KSsa_khar;
lastChange = "2019-12-16 17:27:41 +0000";
layers = (
{
anchors = (
{
name = Anchor12;
position = "{291, 0}";
},
{
name = Anchor14;
position = "{331, 712}";
},
{
name = Anchor16;
position = "{281, -15}";
},
{
name = Anchor18;
position = "{417, -22}";
},
{
name = Anchor20;
position = "{303, 90}";
},
{
name = Anchor26;
position = "{317, 165}";
},
{
name = Anchor28;
position = "{329, 100}";
},
{
name = Anchor30;
position = "{353, 421}";
},
{
name = Anchor32;
position = "{344, 275}";
},
{
name = Anchor4;
position = "{248, 440}";
},
{
name = Anchor6;
position = "{251, 1}";
}
);
layerId = UUID0;
paths = (
{
closed = 1;
nodes = (
"337 49 OFFCURVE",
"379 188 OFFCURVE",
"379 321 CURVE SMOOTH",
"379 340 OFFCURVE",
"377 367 OFFCURVE",
"375 394 CURVE",
"504 408 OFFCURVE",
"571 484 OFFCURVE",
"571 613 CURVE SMOOTH",
"571 654 OFFCURVE",
"554 708 OFFCURVE",
"530 733 CURVE",
"459 703 LINE",
"478 675 OFFCURVE",
"487 636 OFFCURVE",
"487 610 CURVE SMOOTH",
"487 514 OFFCURVE",
"433 465 OFFCURVE",
"331 465 CURVE SMOOTH",
"227 465 OFFCURVE",
"174 506 OFFCURVE",
"174 589 CURVE SMOOTH",
"174 624 OFFCURVE",
"192 664 OFFCURVE",
"214 684 CURVE",
"150 730 LINE",
"116 697 OFFCURVE",
"88 633 OFFCURVE",
"88 582 CURVE SMOOTH",
"88 477 OFFCURVE",
"166 403 OFFCURVE",
"291 393 CURVE",
"292 373 OFFCURVE",
"293 349 OFFCURVE",
"293 329 CURVE SMOOTH",
"293 214 OFFCURVE",
"259 73 OFFCURVE",
"213 21 CURVE",
"284 -13 LINE"
);
}
);
width = 649;
}
);
note = "g120\012ksa";
category = Letter;
},
{
glyphname = KhKSsa_khar;
lastChange = "2019-12-16 17:27:41 +0000";
layers = (
{
anchors = (
{
name = Anchor12;
position = "{324, 0}";
},
{
name = Anchor14;
position = "{361, 876}";
},
{
name = Anchor16;
position = "{281, -15}";
},
{
name = Anchor18;
position = "{417, -22}";
},
{
name = Anchor20;
position = "{303, 90}";
},
{
name = Anchor26;
position = "{316, 155}";
},
{
name = Anchor28;
position = "{342, 100}";
},
{
name = Anchor30;
position = "{353, 421}";
},
{
name = Anchor32;
position = "{324, 275}";
},
{
name = Anchor4;
position = "{267, 440}";
},
{
name = Anchor6;
position = "{251, 1}";
}
);
layerId = UUID0;
paths = (
{
closed = 1;
nodes = (
"431 537 OFFCURVE",
"446 573 OFFCURVE",
"446 605 CURVE SMOOTH",
"446 659 OFFCURVE",
"417 680 OFFCURVE",
"361 687 CURVE SMOOTH",
"313 693 OFFCURVE",
"288 716 OFFCURVE",
"288 765 CURVE SMOOTH",
"288 807 OFFCURVE",
"323 833 OFFCURVE",
"372 833 CURVE SMOOTH",
"402 833 OFFCURVE",
"444 822 OFFCURVE",
"471 807 CURVE",
"495 867 LINE",
"458 885 OFFCURVE",
"406 896 OFFCURVE",
"374 896 CURVE SMOOTH",
"270 896 OFFCURVE",
"217 845 OFFCURVE",
"217 750 CURVE SMOOTH",
"217 682 OFFCURVE",
"266 632 OFFCURVE",
"342 625 CURVE SMOOTH",
"362 623 OFFCURVE",
"375 618 OFFCURVE",
"375 604 CURVE SMOOTH",
"375 586 OFFCURVE",
"353 542 OFFCURVE",
"325 505 CURVE",
"401 495 LINE"
);
},
{
closed = 1;
nodes = (
"337 49 OFFCURVE",
"379 188 OFFCURVE",
"379 321 CURVE SMOOTH",
"379 340 OFFCURVE",
"377 367 OFFCURVE",
"375 394 CURVE",
"504 408 OFFCURVE",
"571 484 OFFCURVE",
"571 613 CURVE SMOOTH",
"571 654 OFFCURVE",
"554 708 OFFCURVE",
"530 733 CURVE",
"459 703 LINE",
"478 675 OFFCURVE",
"487 636 OFFCURVE",
"487 610 CURVE SMOOTH",
"487 514 OFFCURVE",
"433 465 OFFCURVE",
"331 465 CURVE SMOOTH",
"227 465 OFFCURVE",
"174 506 OFFCURVE",
"174 589 CURVE SMOOTH",
"174 624 OFFCURVE",
"192 664 OFFCURVE",
"214 684 CURVE",
"150 730 LINE",
"116 697 OFFCURVE",
"88 633 OFFCURVE",
"88 582 CURVE SMOOTH",
"88 477 OFFCURVE",
"166 403 OFFCURVE",
"291 393 CURVE",
"292 373 OFFCURVE",
"293 349 OFFCURVE",
"293 329 CURVE SMOOTH",
"293 214 OFFCURVE",
"259 73 OFFCURVE",
"213 21 CURVE",
"284 -13 LINE"
);
}
);
width = 649;
}
);
note = "g132\012khksa";
category = Letter;
},
{
glyphname = Dhik_khar;
lastChange = "2019-12-16 17:27:41 +0000";
layers = (
{
anchors = (
{
name = Anchor12;
position = "{284, -257}";
},
{
name = Anchor14;
position = "{323, 772}";
},
{
name = Anchor16;
position = "{378, -288}";
},
{
name = Anchor18;
position = "{243, -424}";
},
{
name = Anchor26;
position = "{471, 216}";
},
{
name = Anchor28;
position = "{459, 100}";
},
{
name = Anchor32;
position = "{188, -217}";
},
{
name = Anchor4;
position = "{122, -18}";
}
);
layerId = UUID0;
paths = (
{
closed = 1;
nodes = (
"415 -250 OFFCURVE",
"433 -211 OFFCURVE",
"433 -169 CURVE SMOOTH",
"433 -88 OFFCURVE",
"383 -37 OFFCURVE",
"283 -15 CURVE",
"286 4 OFFCURVE",
"287 23 OFFCURVE",
"287 43 CURVE SMOOTH",
"287 150 OFFCURVE",
"237 204 OFFCURVE",
"136 204 CURVE SMOOTH",
"54 204 OFFCURVE",
"-4 152 OFFCURVE",
"-4 80 CURVE SMOOTH",
"-4 42 OFFCURVE",
"13 4 OFFCURVE",
"48 -31 CURVE",
"100 13 LINE",
"77 38 OFFCURVE",
"65 61 OFFCURVE",
"65 82 CURVE SMOOTH",
"65 117 OFFCURVE",
"93 141 OFFCURVE",
"136 141 CURVE SMOOTH",
"190 141 OFFCURVE",
"217 107 OFFCURVE",
"217 41 CURVE SMOOTH",
"217 -32 OFFCURVE",
"182 -142 OFFCURVE",
"121 -268 CURVE",
"188 -285 LINE",
"219 -225 OFFCURVE",
"254 -137 OFFCURVE",
"270 -77 CURVE",
"331 -94 OFFCURVE",
"361 -126 OFFCURVE",
"361 -173 CURVE SMOOTH",
"361 -194 OFFCURVE",
"350 -217 OFFCURVE",
"326 -242 CURVE",
"378 -286 LINE"
);
},
{
closed = 1;
nodes = (
"322 652 OFFCURVE",
"368 625 OFFCURVE",
"368 572 CURVE SMOOTH",
"368 488 OFFCURVE",
"321 455 OFFCURVE",
"238 435 CURVE",
"217 352 LINE",
"269 371 OFFCURVE",
"311 381 OFFCURVE",
"354 381 CURVE SMOOTH",
"431 381 OFFCURVE",
"468 365 OFFCURVE",
"468 316 CURVE SMOOTH",
"468 243 OFFCURVE",
"425 172 OFFCURVE",
"309 69 CURVE",
"353 6 LINE",
"487 127 OFFCURVE",
"554 236 OFFCURVE",
"554 320 CURVE SMOOTH",
"554 404 OFFCURVE",
"499 450 OFFCURVE",
"398 450 CURVE",
"433 483 OFFCURVE",
"454 527 OFFCURVE",
"454 574 CURVE SMOOTH",
"454 683 OFFCURVE",
"375 724 OFFCURVE",
"243 724 CURVE SMOOTH",
"216 724 OFFCURVE",
"185 722 OFFCURVE",
"151 717 CURVE",
"162 646 LINE",
"186 650 OFFCURVE",
"211 652 OFFCURVE",
"237 652 CURVE SMOOTH"
);
},
{
closed = 1;
nodes = (
"198 235 LINE",
"235 354 OFFCURVE",
"274 501 OFFCURVE",
"306 639 CURVE",
"336 794 LINE",
"296 806 LINE",
"267 662 OFFCURVE",
"193 432 OFFCURVE",
"135 261 CURVE"
);
}
);
width = 598;
}
);
note = "g119\012dhik";
category = Letter;
},
{
glyphname = JNya_khar;
lastChange = "2019-12-16 17:27:41 +0000";
layers = (
{
anchors = (
{
name = Anchor12;
position = "{392, 0}";
},
{
name = Anchor14;
position = "{504, 712}";
},
{
name = Anchor16;
position = "{441, 0}";
},
{
name = Anchor18;
position = "{230, -25}";
},
{
name = Anchor20;
position = "{201, 104}";
},
{
name = Anchor26;
position = "{310, 155}";
},
{
name = Anchor28;
position = "{245, 100}";
},
{
name = Anchor30;
position = "{415, 431}";
},
{
name = Anchor32;
position = "{362, 275}";
},
{
name = Anchor4;
position = "{224, 470}";
},
{
name = Anchor6;
position = "{142, 3}";
}
);
layerId = UUID0;
paths = (
{
closed = 1;
nodes = (
"275 99 OFFCURVE",
"513 449 OFFCURVE",
"563 704 CURVE",
"481 718 LINE",
"466 641 OFFCURVE",
"433 549 OFFCURVE",
"390 460 CURVE",
"268 588 OFFCURVE",
"207 690 OFFCURVE",
"189 730 CURVE",
"113 686 LINE",
"132 640 OFFCURVE",
"203 519 OFFCURVE",
"345 374 CURVE",
"265 231 OFFCURVE",
"189 127 OFFCURVE",
"114 40 CURVE",
"167 -17 LINE"
);
},
{
closed = 1;
nodes = (
"408 337 LINE",
"435 330 OFFCURVE",
"467 327 OFFCURVE",
"503 327 CURVE SMOOTH",
"618 327 OFFCURVE",
"726 363 OFFCURVE",
"726 484 CURVE SMOOTH",
"726 531 OFFCURVE",
"711 562 OFFCURVE",
"711 604 CURVE SMOOTH",
"711 628 OFFCURVE",
"734 636 OFFCURVE",
"778 642 CURVE",
"753 711 LINE",
"688 711 OFFCURVE",
"630 680 OFFCURVE",
"630 606 CURVE SMOOTH",
"630 557 OFFCURVE",
"640 525 OFFCURVE",
"640 482 CURVE SMOOTH",
"640 407 OFFCURVE",
"580 398 OFFCURVE",
"505 398 CURVE SMOOTH",
"480 398 OFFCURVE",
"452 401 OFFCURVE",
"426 407 CURVE"
);
}
);
width = 805;
}
);
category = Letter;
},
{
glyphname = TRa_khar;
lastChange = "2019-12-16 17:27:41 +0000";
layers = (
{
anchors = (
{
name = Anchor10;
position = "{519, -66}";
},
{
name = Anchor12;
position = "{348, 0}";
},
{
name = Anchor14;
position = "{348, 712}";
},
{
name = Anchor16;
position = "{471, -5}";
},
{
name = Anchor18;
position = "{441, -176}";
},
{
name = Anchor20;
position = "{269, 0}";
},
{
name = Anchor26;
position = "{430, 278}";
},
{
name = Anchor28;
position = "{576, 100}";
},
{
name = Anchor30;
position = "{480, 427}";
},
{
name = Anchor4;
position = "{271, 479}";
},
{
name = Anchor6;
position = "{422, -82}";
},
{
name = Anchor8;
position = "{395, -82}";
}
);
layerId = UUID0;
paths = (
{
closed = 1;
nodes = (
"567 -5 OFFCURVE",
"623 36 OFFCURVE",
"648 104 CURVE",
"569 135 LINE",
"555 94 OFFCURVE",
"527 73 OFFCURVE",
"486 73 CURVE SMOOTH",
"439 73 OFFCURVE",
"416 92 OFFCURVE",
"416 128 CURVE SMOOTH",
"416 230 OFFCURVE",
"513 306 OFFCURVE",
"513 441 CURVE SMOOTH",
"513 532 OFFCURVE",
"456 569 OFFCURVE",
"332 569 CURVE SMOOTH",
"284 569 OFFCURVE",
"250 570 OFFCURVE",
"230 572 CURVE SMOOTH",
"191 576 OFFCURVE",
"178 583 OFFCURVE",
"178 612 CURVE SMOOTH",
"178 632 OFFCURVE",
"185 664 OFFCURVE",
"197 707 CURVE",
"117 720 LINE",
"107 689 OFFCURVE",
"99 637 OFFCURVE",
"99 596 CURVE SMOOTH",
"99 534 OFFCURVE",
"118 511 OFFCURVE",
"174 500 CURVE SMOOTH",
"202 494 OFFCURVE",
"251 491 OFFCURVE",
"321 491 CURVE SMOOTH",
"398 491 OFFCURVE",
"427 478 OFFCURVE",
"427 437 CURVE SMOOTH",
"427 321 OFFCURVE",
"329 221 OFFCURVE",
"329 123 CURVE SMOOTH",
"329 42 OFFCURVE",
"388 -5 OFFCURVE",
"488 -5 CURVE SMOOTH"
);
}
);
width = 697;
}
);
note = "g126\012tra";
category = Letter;
},
{
glyphname = TSa_khar;
lastChange = "2019-12-16 17:27:41 +0000";
layers = (
{
anchors = (
{
name = Anchor12;
position = "{313, 0}";
},
{
name = Anchor14;
position = "{334, 712}";
},
{
name = Anchor16;
position = "{77, -24}";
},
{
name = Anchor18;
position = "{152, -27}";
},
{
name = Anchor20;
position = "{171, 165}";
},
{
name = Anchor26;
position = "{190, 125}";
},
{
name = Anchor28;
position = "{193, 100}";
},
{
name = Anchor30;
position = "{282, 478}";
},
{
name = Anchor4;
position = "{159, 470}";
},
{
name = Anchor6;
position = "{66, 10}";
}
);
layerId = UUID0;
paths = (
{
closed = 1;
nodes = (
"405 177 OFFCURVE",
"513 228 OFFCURVE",
"513 329 CURVE SMOOTH",
"513 386 OFFCURVE",
"486 416 OFFCURVE",
"447 434 CURVE",
"437 415 LINE",
"501 432 OFFCURVE",
"535 466 OFFCURVE",
"535 536 CURVE SMOOTH",
"535 611 OFFCURVE",
"477 669 OFFCURVE",
"369 669 CURVE SMOOTH",
"319 669 OFFCURVE",
"264 661 OFFCURVE",
"218 661 CURVE SMOOTH",
"164 661 OFFCURVE",
"150 668 OFFCURVE",
"150 680 CURVE SMOOTH",
"150 687 OFFCURVE",
"152 695 OFFCURVE",
"155 698 CURVE",
"80 730 LINE",
"71 714 OFFCURVE",
"66 696 OFFCURVE",
"66 677 CURVE SMOOTH",
"66 611 OFFCURVE",
"126 583 OFFCURVE",
"214 583 CURVE SMOOTH",
"264 583 OFFCURVE",
"313 591 OFFCURVE",
"359 591 CURVE SMOOTH",
"432 591 OFFCURVE",
"449 562 OFFCURVE",
"449 536 CURVE SMOOTH",
"449 488 OFFCURVE",
"412 464 OFFCURVE",
"279 464 CURVE SMOOTH",
"219 464 LINE",
"219 396 LINE",
"269 396 LINE SMOOTH",
"396 396 OFFCURVE",
"427 382 OFFCURVE",
"427 327 CURVE SMOOTH",
"427 271 OFFCURVE",
"367 248 OFFCURVE",
"292 248 CURVE SMOOTH",
"274 248 OFFCURVE",
"255 248 OFFCURVE",
"239 251 CURVE",
"226 180 LINE",
"245 178 OFFCURVE",
"265 177 OFFCURVE",
"290 177 CURVE SMOOTH"
);
},
{
closed = 1;
nodes = (
"263 269 OFFCURVE",
"263 275 OFFCURVE",
"261 293 CURVE",
"184 293 LINE",
"184 242 OFFCURVE",
"165 192 OFFCURVE",
"135 149 CURVE",
"136 149 LINE",
"103 102 OFFCURVE",
"67 64 OFFCURVE",
"39 42 CURVE",
"78 -22 LINE",
"134 26 OFFCURVE",
"190 84 OFFCURVE",
"229 154 CURVE SMOOTH",
"249 190 OFFCURVE",
"263 228 OFFCURVE",
"263 261 CURVE SMOOTH"
);
}
);
width = 541;
}
);
category = Letter;
},
{
glyphname = TVa_khar;
lastChange = "2019-12-16 17:27:41 +0000";
layers = (
{
anchors = (
{
name = Anchor10;
position = "{419, -66}";
},
{
name = Anchor12;
position = "{430, 0}";
},
{
name = Anchor14;
position = "{430, 712}";
},
{
name = Anchor16;
position = "{322, -8}";
},
{
name = Anchor18;
position = "{521, -6}";
},
{
name = Anchor20;
position = "{105, 0}";
},
{
name = Anchor26;
position = "{274, 203}";
},
{
name = Anchor28;
position = "{569, 100}";
},
{
name = Anchor30;
position = "{526, 521}";
},
{
name = Anchor4;
position = "{281, 479}";
},
{
name = Anchor8;
position = "{295, -82}";
}
);
layerId = UUID0;
paths = (
{
closed = 1;
nodes = (
"560 -5 OFFCURVE",
"724 235 OFFCURVE",
"814 714 CURVE",
"732 728 LINE",
"691 427 OFFCURVE",
"553 69 OFFCURVE",
"322 69 CURVE SMOOTH",
"283 69 OFFCURVE",
"251 75 OFFCURVE",
"251 103 CURVE SMOOTH",
"251 125 OFFCURVE",
"293 151 OFFCURVE",
"370 184 CURVE SMOOTH",
"505 242 OFFCURVE",
"557 310 OFFCURVE",
"557 399 CURVE SMOOTH",
"557 508 OFFCURVE",
"505 551 OFFCURVE",
"391 551 CURVE SMOOTH",
"354 551 OFFCURVE",
"291 543 OFFCURVE",
"250 543 CURVE SMOOTH",
"198 543 OFFCURVE",
"172 560 OFFCURVE",
"172 594 CURVE SMOOTH",
"172 626 OFFCURVE",
"196 652 OFFCURVE",
"236 662 CURVE",
"211 731 LINE",
"141 719 OFFCURVE",
"88 663 OFFCURVE",
"88 596 CURVE SMOOTH",
"88 513 OFFCURVE",
"143 465 OFFCURVE",
"238 465 CURVE SMOOTH",
"293 465 OFFCURVE",
"327 473 OFFCURVE",
"379 473 CURVE SMOOTH",
"441 473 OFFCURVE",
"471 454 OFFCURVE",
"471 399 CURVE SMOOTH",
"471 330 OFFCURVE",
"419 282 OFFCURVE",
"311 238 CURVE SMOOTH",
"201 193 OFFCURVE",
"166 156 OFFCURVE",
"166 100 CURVE SMOOTH",
"166 25 OFFCURVE",
"223 -5 OFFCURVE",
"322 -5 CURVE SMOOTH"
);
}
);
width = 861;
}
);
note = "g130\012tva";
category = Letter;
},
{
glyphname = PGa_khar;
lastChange = "2019-12-16 17:27:41 +0000";
layers = (
{
anchors = (
{
name = Anchor12;
position = "{190, -281}";
},
{
name = Anchor14;
position = "{375, 712}";
},
{
name = Anchor16;
position = "{190, -283}";
},
{
name = Anchor18;
position = "{292, -294}";
},
{
name = Anchor20;
position = "{247, -114}";
},
{
name = Anchor24;
position = "{561, 489}";
},
{
name = Anchor26;
position = "{230, -135}";
},
{
name = Anchor28;
position = "{539, 100}";
},
{
name = Anchor30;
position = "{280, 65}";
},
{
name = Anchor4;
position = "{145, 71}";
},
{
name = Anchor6;
position = "{182, -289}";
}
);
layerId = UUID0;
paths = (
{
closed = 1;
nodes = (
"446 609 OFFCURVE",
"468 668 OFFCURVE",
"482 702 CURVE",
"401 724 LINE",
"357 618 OFFCURVE",
"261 286 OFFCURVE",
"215 72 CURVE",
"146 87 OFFCURVE",
"104 121 OFFCURVE",
"104 189 CURVE SMOOTH",
"104 225 OFFCURVE",
"119 267 OFFCURVE",
"147 311 CURVE",
"81 345 LINE",
"51 305 OFFCURVE",
"23 244 OFFCURVE",
"23 182 CURVE SMOOTH",
"23 82 OFFCURVE",
"95 26 OFFCURVE",
"201 7 CURVE",
"186 -69 OFFCURVE",
"160 -207 OFFCURVE",
"150 -281 CURVE",
"230 -289 LINE",
"239 -227 OFFCURVE",
"276 -16 OFFCURVE",
"283 1 CURVE",
"452 3 OFFCURVE",
"575 71 OFFCURVE",
"575 184 CURVE SMOOTH",
"575 245 OFFCURVE",
"535 296 OFFCURVE",
"448 296 CURVE SMOOTH",
"401 296 OFFCURVE",
"370 276 OFFCURVE",
"344 248 CURVE",
"363 319 OFFCURVE",
"385 399 OFFCURVE",
"404 467 CURVE",
"543 462 OFFCURVE",
"592 419 OFFCURVE",
"592 361 CURVE SMOOTH",
"592 343 OFFCURVE",
"587 328 OFFCURVE",
"581 318 CURVE",
"644 267 LINE",
"664 291 OFFCURVE",
"678 320 OFFCURVE",
"678 368 CURVE SMOOTH",
"678 480 OFFCURVE",
"581 532 OFFCURVE",
"425 537 CURVE"
);
},
{
closed = 1;
nodes = (
"473 224 OFFCURVE",
"491 202 OFFCURVE",
"491 182 CURVE SMOOTH",
"491 106 OFFCURVE",
"400 69 OFFCURVE",
"300 65 CURVE",
"333 168 OFFCURVE",
"378 224 OFFCURVE",
"431 224 CURVE SMOOTH"
);
}
);
width = 722;
}
);
category = Letter;
},
{
glyphname = PTa_khar;
lastChange = "2019-12-16 17:27:41 +0000";
layers = (
{
anchors = (
{
name = Anchor10;
position = "{309, -336}";
},
{
name = Anchor12;
position = "{280, -258}";
},
{
name = Anchor14;
position = "{397, 712}";
},
{
name = Anchor16;
position = "{281, -250}";
},
{
name = Anchor18;
position = "{296, -384}";
},
{
name = Anchor20;
position = "{224, -109}";
},
{
name = Anchor24;
position = "{547, 489}";
},
{
name = Anchor26;
position = "{328, 321}";
},
{
name = Anchor28;
position = "{463, -7}";
},
{
name = Anchor30;
position = "{428, 58}";
},
{
name = Anchor4;
position = "{170, 104}";
},
{
name = Anchor8;
position = "{185, -352}";
}
);
layerId = UUID0;
paths = (
{
closed = 1;
nodes = (
"436 609 OFFCURVE",
"458 668 OFFCURVE",
"472 702 CURVE",
"391 724 LINE",
"347 619 OFFCURVE",
"254 314 OFFCURVE",
"213 106 CURVE",
"201 105 OFFCURVE",
"188 104 OFFCURVE",
"177 104 CURVE SMOOTH",
"126 104 OFFCURVE",
"107 112 OFFCURVE",
"107 142 CURVE SMOOTH",
"107 169 OFFCURVE",
"131 192 OFFCURVE",
"166 200 CURVE",
"143 256 LINE",
"82 248 OFFCURVE",
"29 197 OFFCURVE",
"29 140 CURVE SMOOTH",
"29 68 OFFCURVE",
"80 31 OFFCURVE",
"165 31 CURVE SMOOTH",
"224 31 OFFCURVE",
"252 39 OFFCURVE",
"300 39 CURVE SMOOTH",
"362 39 OFFCURVE",
"393 17 OFFCURVE",
"393 -25 CURVE SMOOTH",
"393 -126 OFFCURVE",
"301 -188 OFFCURVE",
"96 -225 CURVE",
"114 -293 LINE",
"354 -247 OFFCURVE",
"474 -157 OFFCURVE",
"474 -24 CURVE SMOOTH",
"474 64 OFFCURVE",
"423 112 OFFCURVE",
"302 112 CURVE",
"331 254 OFFCURVE",
"372 395 OFFCURVE",
"394 467 CURVE",
"533 462 OFFCURVE",
"582 419 OFFCURVE",
"582 361 CURVE SMOOTH",
"582 330 OFFCURVE",
"568 310 OFFCURVE",
"556 300 CURVE",
"617 250 LINE",
"646 277 OFFCURVE",
"668 308 OFFCURVE",
"668 368 CURVE SMOOTH",
"668 480 OFFCURVE",
"571 532 OFFCURVE",
"415 537 CURVE"
);
}
);
width = 712;
}
);
category = Letter;
},
{
glyphname = MMa_khar;
lastChange = "2019-12-16 17:27:41 +0000";
layers = (
{
anchors = (
{
name = Anchor10;
position = "{539, -66}";
},
{
name = Anchor12;
position = "{468, -30}";
},
{
name = Anchor14;
position = "{406, 712}";
},
{
name = Anchor16;
position = "{481, -5}";
},
{
name = Anchor18;
position = "{478, -190}";
},
{
name = Anchor20;
position = "{439, 204}";
},
{
name = Anchor26;
position = "{319, 155}";
},
{
name = Anchor28;
position = "{577, 12}";
},
{
name = Anchor30;
position = "{340, 356}";
},
{
name = Anchor4;
position = "{374, 432}";
},
{
name = Anchor8;
position = "{415, -82}";
}
);
components = (
{
name = Ma_khar;
}
);
layerId = UUID0;
paths = (
{
closed = 1;
nodes = (
"594 -13 OFFCURVE",
"671 52 OFFCURVE",
"671 142 CURVE SMOOTH",
"671 157 OFFCURVE",
"667 180 OFFCURVE",
"664 196 CURVE",
"584 172 LINE",
"586 162 OFFCURVE",
"587 153 OFFCURVE",
"587 145 CURVE SMOOTH",
"587 98 OFFCURVE",
"544 60 OFFCURVE",
"478 60 CURVE SMOOTH",
"409 60 OFFCURVE",
"356 110 OFFCURVE",
"356 185 CURVE SMOOTH",
"356 219 OFFCURVE",
"368 274 OFFCURVE",
"384 297 CURVE",
"321 339 LINE",
"288 297 OFFCURVE",
"270 224 OFFCURVE",
"270 176 CURVE SMOOTH",
"270 72 OFFCURVE",
"355 -13 OFFCURVE",
"476 -13 CURVE SMOOTH"
);
}
);
width = 716;
}
);
category = Letter;
},
{
glyphname = MMe_khar;
lastChange = "2019-12-16 17:27:41 +0000";
layers = (
{
anchors = (
{
name = Anchor10;
position = "{539, -66}";
},
{
name = Anchor12;
position = "{468, -30}";
},
{
name = Anchor14;
position = "{406, 712}";
},
{
name = Anchor16;
position = "{481, -5}";
},
{
name = Anchor18;
position = "{478, -190}";
},
{
name = Anchor26;
position = "{319, 155}";
},
{
name = Anchor28;
position = "{577, 12}";
},
{
name = Anchor30;
position = "{340, 347}";
},
{
name = Anchor4;
position = "{374, 432}";
},
{
name = Anchor8;
position = "{415, -82}";
}
);
layerId = UUID0;
paths = (
{
closed = 1;
nodes = (
"594 -13 OFFCURVE",
"671 52 OFFCURVE",
"671 142 CURVE SMOOTH",
"671 157 OFFCURVE",
"667 180 OFFCURVE",
"664 196 CURVE",
"584 172 LINE",
"586 162 OFFCURVE",
"587 153 OFFCURVE",
"587 145 CURVE SMOOTH",
"587 98 OFFCURVE",
"544 60 OFFCURVE",
"478 60 CURVE SMOOTH",
"409 60 OFFCURVE",
"356 110 OFFCURVE",
"356 185 CURVE SMOOTH",
"356 219 OFFCURVE",
"368 274 OFFCURVE",
"384 297 CURVE",
"321 339 LINE",
"288 297 OFFCURVE",
"270 224 OFFCURVE",
"270 176 CURVE SMOOTH",
"270 72 OFFCURVE",
"355 -13 OFFCURVE",
"476 -13 CURVE SMOOTH"
);
},
{
closed = 1;
nodes = (
"547 285 OFFCURVE",
"678 369 OFFCURVE",
"678 511 CURVE SMOOTH",
"678 568 OFFCURVE",
"655 620 OFFCURVE",
"608 667 CURVE",
"545 615 LINE",
"578 581 OFFCURVE",
"594 544 OFFCURVE",
"594 508 CURVE SMOOTH",
"594 416 OFFCURVE",
"525 359 OFFCURVE",
"407 359 CURVE SMOOTH",
"400 359 LINE",
"426 479 OFFCURVE",
"442 563 OFFCURVE",
"448 611 CURVE",
"395 619 LINE",
"386 564 OFFCURVE",
"355 447 OFFCURVE",
"329 367 CURVE",
"240 389 OFFCURVE",
"192 449 OFFCURVE",
"192 533 CURVE SMOOTH",
"192 580 OFFCURVE",
"215 648 OFFCURVE",
"247 699 CURVE",
"176 731 LINE",
"136 676 OFFCURVE",
"106 584 OFFCURVE",
"106 526 CURVE SMOOTH",
"106 370 OFFCURVE",
"229 285 OFFCURVE",
"394 285 CURVE SMOOTH"
);
}
);
width = 716;
}
);
category = Letter;
},
{
glyphname = MRa_khar;
lastChange = "2019-12-16 17:27:41 +0000";
layers = (
{
anchors = (
{
name = Anchor10;
position = "{309, -66}";
},
{
name = Anchor12;
position = "{386, -10}";
},
{
name = Anchor14;
position = "{502, 712}";
},
{
name = Anchor16;
position = "{284, 1}";
},
{
name = Anchor18;
position = "{431, -6}";
},
{
name = Anchor20;
position = "{219, 204}";
},
{
name = Anchor26;
position = "{385, 255}";
},
{
name = Anchor28;
position = "{419, 100}";
},
{
name = Anchor30;
position = "{384, 536}";
},
{
name = Anchor4;
position = "{221, 61}";
},
{
name = Anchor8;
position = "{185, -82}";
}
);
layerId = UUID0;
paths = (
{
closed = 1;
nodes = (
"357 -5 OFFCURVE",
"430 54 OFFCURVE",
"430 147 CURVE SMOOTH",
"430 245 OFFCURVE",
"407 402 OFFCURVE",
"407 506 CURVE SMOOTH",
"407 596 OFFCURVE",
"451 649 OFFCURVE",
"522 649 CURVE SMOOTH",
"568 649 OFFCURVE",
"610 625 OFFCURVE",
"638 575 CURVE",
"702 614 LINE",
"675 677 OFFCURVE",
"600 723 OFFCURVE",
"522 723 CURVE SMOOTH",
"397 723 OFFCURVE",
"321 642 OFFCURVE",
"321 519 CURVE SMOOTH",
"321 370 OFFCURVE",
"346 297 OFFCURVE",
"346 150 CURVE SMOOTH",
"346 102 OFFCURVE",
"306 68 OFFCURVE",
"252 68 CURVE SMOOTH",
"185 68 OFFCURVE",
"145 109 OFFCURVE",
"145 174 CURVE SMOOTH",
"145 204 OFFCURVE",
"151 229 OFFCURVE",
"166 250 CURVE",
"106 292 LINE",
"75 251 OFFCURVE",
"59 207 OFFCURVE",
"59 161 CURVE SMOOTH",
"59 57 OFFCURVE",
"132 -5 OFFCURVE",
"251 -5 CURVE SMOOTH"
);
}
);
width = 741;
}
);
note = "g121\012mra";
category = Letter;
},
{
glyphname = RMa_khar;
lastChange = "2019-12-16 17:27:41 +0000";
layers = (
{
anchors = (
{
name = Anchor10;
position = "{309, -66}";
},
{
name = Anchor12;
position = "{305, 0}";
},
{
name = Anchor14;
position = "{453, 712}";
},
{
name = Anchor16;
position = "{284, 1}";
},
{
name = Anchor18;
position = "{431, -6}";
},
{
name = Anchor20;
position = "{219, 204}";
},
{
name = Anchor26;
position = "{395, 255}";
},
{
name = Anchor28;
position = "{417, 100}";
},
{
name = Anchor30;
position = "{285, 68}";
},
{
name = Anchor4;
position = "{221, 67}";
},
{
name = Anchor8;
position = "{185, -82}";
}
);
layerId = UUID0;
paths = (
{
closed = 1;
nodes = (
"357 5 OFFCURVE",
"421 54 OFFCURVE",
"430 147 CURVE SMOOTH",
"440 245 OFFCURVE",
"441 402 OFFCURVE",
"451 506 CURVE SMOOTH",
"460 596 OFFCURVE",
"495 649 OFFCURVE",
"566 649 CURVE SMOOTH",
"592 649 OFFCURVE",
"616 642 OFFCURVE",
"637 626 CURVE",
"675 692 LINE",
"643 711 OFFCURVE",
"605 723 OFFCURVE",
"566 723 CURVE SMOOTH",
"441 723 OFFCURVE",
"373 642 OFFCURVE",
"365 519 CURVE SMOOTH",
"355 367 OFFCURVE",
"356 297 OFFCURVE",
"346 150 CURVE SMOOTH",
"343 102 OFFCURVE",
"306 68 OFFCURVE",
"252 68 CURVE SMOOTH",
"185 68 OFFCURVE",
"145 109 OFFCURVE",
"145 174 CURVE SMOOTH",
"145 204 OFFCURVE",
"151 229 OFFCURVE",
"166 250 CURVE",
"106 292 LINE",
"75 251 OFFCURVE",
"59 207 OFFCURVE",
"59 161 CURVE SMOOTH",
"59 57 OFFCURVE",
"132 5 OFFCURVE",
"251 5 CURVE SMOOTH"
);
},
{
closed = 1;
nodes = (
"390 524 LINE",
"350 542 OFFCURVE",
"307 551 OFFCURVE",
"265 551 CURVE SMOOTH",
"245 551 OFFCURVE",
"227 549 OFFCURVE",
"212 547 CURVE",
"221 463 LINE",
"234 465 OFFCURVE",
"249 466 OFFCURVE",
"263 466 CURVE SMOOTH",
"301 466 OFFCURVE",
"335 458 OFFCURVE",
"367 438 CURVE"
);
},
{
closed = 1;
nodes = (
"418 404 LINE",
"464 360 OFFCURVE",
"503 300 OFFCURVE",
"533 222 CURVE",
"612 261 LINE",
"569 365 OFFCURVE",
"511 444 OFFCURVE",
"440 495 CURVE"
);
}
);
width = 714;
}
);
category = Letter;
},
{
glyphname = RTa_khar;
lastChange = "2019-12-16 17:27:41 +0000";
layers = (
{
anchors = (
{
name = Anchor10;
position = "{349, -36}";
},
{
name = Anchor12;
position = "{329, 0}";
},
{
name = Anchor14;
position = "{379, 712}";
},
{
name = Anchor16;
position = "{524, -20}";
},
{
name = Anchor18;
position = "{589, -36}";
},
{
name = Anchor20;
position = "{546, 71}";
},
{
name = Anchor26;
position = "{198, 238}";
},
{
name = Anchor28;
position = "{546, 0}";
},
{
name = Anchor30;
position = "{326, 541}";
},
{
name = Anchor4;
position = "{258, 530}";
},
{
name = Anchor6;
position = "{504, -4}";
}
);
layerId = UUID0;
paths = (
{
closed = 1;
nodes = (
"595 58 OFFCURVE",
"609 91 OFFCURVE",
"609 167 CURVE SMOOTH",
"609 224 OFFCURVE",
"588 270 OFFCURVE",
"546 306 CURVE",
"554 337 OFFCURVE",
"557 369 OFFCURVE",
"557 399 CURVE SMOOTH",
"557 508 OFFCURVE",
"505 551 OFFCURVE",
"391 551 CURVE SMOOTH",
"354 551 OFFCURVE",
"291 543 OFFCURVE",
"250 543 CURVE SMOOTH",
"198 543 OFFCURVE",
"172 560 OFFCURVE",
"172 594 CURVE SMOOTH",
"172 626 OFFCURVE",
"196 652 OFFCURVE",
"236 662 CURVE",
"211 731 LINE",
"141 719 OFFCURVE",
"88 663 OFFCURVE",
"88 596 CURVE SMOOTH",
"88 513 OFFCURVE",
"143 465 OFFCURVE",
"238 465 CURVE SMOOTH",
"293 465 OFFCURVE",
"327 473 OFFCURVE",
"379 473 CURVE SMOOTH",
"441 473 OFFCURVE",
"471 454 OFFCURVE",
"471 399 CURVE SMOOTH",
"471 380 OFFCURVE",
"470 364 OFFCURVE",
"468 349 CURVE",
"436 359 OFFCURVE",
"399 364 OFFCURVE",
"359 364 CURVE SMOOTH",
"237 364 OFFCURVE",
"131 291 OFFCURVE",
"131 177 CURVE SMOOTH",
"131 96 OFFCURVE",
"194 40 OFFCURVE",
"284 40 CURVE SMOOTH",
"381 40 OFFCURVE",
"453 90 OFFCURVE",
"514 214 CURVE",
"524 191 OFFCURVE",
"525 180 OFFCURVE",
"525 148 CURVE SMOOTH",
"525 104 OFFCURVE",
"504 66 OFFCURVE",
"475 31 CURVE",
"535 -20 LINE"
);
},
{
closed = 1;
nodes = (
"245 114 OFFCURVE",
"215 141 OFFCURVE",
"215 182 CURVE SMOOTH",
"215 250 OFFCURVE",
"271 290 OFFCURVE",
"359 290 CURVE SMOOTH",
"395 290 OFFCURVE",
"424 285 OFFCURVE",
"449 275 CURVE",
"403 167 OFFCURVE",
"350 114 OFFCURVE",
"290 114 CURVE SMOOTH"
);
}
);
width = 658;
}
);
note = "g125\012rta";
category = Letter;
},
{
glyphname = LPa_khar;
lastChange = "2019-12-16 17:27:41 +0000";
layers = (
{
anchors = (
{
name = Anchor10;
position = "{158, 15}";
},
{
name = Anchor12;
position = "{386, 0}";
},
{
name = Anchor14;
position = "{464, 712}";
},
{
name = Anchor16;
position = "{149, -6}";
},
{
name = Anchor18;
position = "{264, -15}";
},
{
name = Anchor20;
position = "{218, 150}";
},
{
name = Anchor24;
position = "{565, 489}";
},
{
name = Anchor26;
position = "{200, 155}";
},
{
name = Anchor28;
position = "{631, 134}";
},
{
name = Anchor30;
position = "{465, 259}";
},
{
name = Anchor32;
position = "{356, 275}";
},
{
name = Anchor4;
position = "{460, 470}";
},
{
name = Anchor6;
position = "{591, 159}";
},
{
name = Anchor8;
position = "{158, 15}";
}
);
layerId = UUID0;
paths = (
{
closed = 1;
nodes = (
"226 108 OFFCURVE",
"275 304 OFFCURVE",
"320 465 CURVE",
"404 462 LINE",
"539 440 OFFCURVE",
"603 382 OFFCURVE",
"603 291 CURVE SMOOTH",
"603 247 OFFCURVE",
"582 219 OFFCURVE",
"555 184 CURVE",
"615 133 LINE",
"652 181 OFFCURVE",
"689 231 OFFCURVE",
"689 298 CURVE SMOOTH",
"689 430 OFFCURVE",
"603 508 OFFCURVE",
"428 534 CURVE",
"342 538 LINE",
"363 609 OFFCURVE",
"383 667 OFFCURVE",
"397 699 CURVE",
"316 721 LINE",
"296 671 OFFCURVE",
"273 606 OFFCURVE",
"250 534 CURVE",
"164 529 OFFCURVE",
"102 518 OFFCURVE",
"63 502 CURVE",
"81 433 LINE",
"122 446 OFFCURVE",
"168 454 OFFCURVE",
"228 459 CURVE",
"180 298 OFFCURVE",
"137 118 OFFCURVE",
"122 -1 CURVE",
"202 -8 LINE"
);
}
);
width = 732;
}
);
note = "g127\012lpa";
category = Letter;
},
{
glyphname = LYa_khar;
lastChange = "2019-12-16 17:27:41 +0000";
layers = (
{
anchors = (
{
name = Anchor12;
position = "{331, -206}";
},
{
name = Anchor14;
position = "{427, 712}";
},
{
name = Anchor16;
position = "{341, -216}";
},
{
name = Anchor18;
position = "{444, -226}";
},
{
name = Anchor20;
position = "{258, -49}";
},
{
name = Anchor24;
position = "{166, 527}";
},
{
name = Anchor26;
position = "{340, 335}";
},
{
name = Anchor28;
position = "{479, -85}";
},
{
name = Anchor30;
position = "{336, 421}";
},
{
name = Anchor4;
position = "{208, 470}";
},
{
name = Anchor8;
position = "{307, -212}";
}
);
layerId = UUID0;
paths = (
{
closed = 1;
nodes = (
"381 213 OFFCURVE",
"368 212 OFFCURVE",
"357 211 CURVE",
"406 407 OFFCURVE",
"471 623 OFFCURVE",
"504 702 CURVE",
"423 724 LINE",
"407 686 OFFCURVE",
"384 618 OFFCURVE",
"359 538 CURVE",
"188 535 OFFCURVE",
"116 520 OFFCURVE",
"73 502 CURVE",
"91 433 LINE",
"130 447 OFFCURVE",
"192 461 OFFCURVE",
"337 465 CURVE",
"309 371 OFFCURVE",
"283 268 OFFCURVE",
"263 176 CURVE",
"258 174 LINE",
"221 146 OFFCURVE",
"199 106 OFFCURVE",
"199 58 CURVE SMOOTH",
"199 16 OFFCURVE",
"229 -15 OFFCURVE",
"260 -15 CURVE SMOOTH",
"291 -15 OFFCURVE",
"311 10 OFFCURVE",
"323 76 CURVE SMOOTH",
"326 93 OFFCURVE",
"329 110 OFFCURVE",
"334 128 CURVE",
"350 136 OFFCURVE",
"370 140 OFFCURVE",
"392 140 CURVE SMOOTH",
"442 140 OFFCURVE",
"502 120 OFFCURVE",
"502 68 CURVE SMOOTH",
"502 29 OFFCURVE",
"469 6 OFFCURVE",
"414 6 CURVE SMOOTH",
"402 6 OFFCURVE",
"393 6 OFFCURVE",
"387 8 CURVE",
"357 -63 LINE",
"373 -66 OFFCURVE",
"387 -68 OFFCURVE",
"402 -68 CURVE SMOOTH",
"412 -68 OFFCURVE",
"423 -68 OFFCURVE",
"433 -67 CURVE",
"426 -124 OFFCURVE",
"393 -152 OFFCURVE",
"331 -152 CURVE SMOOTH",
"292 -152 OFFCURVE",
"261 -140 OFFCURVE",
"242 -118 CURVE",
"184 -166 LINE",
"216 -197 OFFCURVE",
"266 -216 OFFCURVE",
"331 -216 CURVE SMOOTH",
"444 -216 OFFCURVE",
"513 -153 OFFCURVE",
"513 -42 CURVE",
"552 -22 OFFCURVE",
"580 29 OFFCURVE",
"580 71 CURVE SMOOTH",
"580 161 OFFCURVE",
"488 213 OFFCURVE",
"394 213 CURVE SMOOTH"
);
}
);
width = 598;
}
);
category = Letter;
},
{
glyphname = La_ZWJ_Ya_khar;
lastChange = "2019-12-16 17:27:41 +0000";
layers = (
{
anchors = (
{
name = Anchor12;
position = "{344, -70}";
},
{
name = Anchor14;
position = "{454, 712}";
},
{
name = Anchor16;
position = "{476, -121}";
},
{
name = Anchor18;
position = "{606, -153}";
},
{
name = Anchor20;
position = "{594, 100}";
},
{
name = Anchor24;
position = "{166, 527}";
},
{
name = Anchor26;
position = "{340, 335}";
},
{
name = Anchor28;
position = "{572, 29}";
},
{
name = Anchor30;
position = "{336, 421}";
},
{
name = Anchor4;
position = "{208, 470}";
},
{
name = Anchor6;
position = "{515, -129}";
}
);
layerId = UUID0;
paths = (
{
closed = 1;
nodes = (
"582 -97 OFFCURVE",
"600 -24 OFFCURVE",
"600 24 CURVE SMOOTH",
"600 128 OFFCURVE",
"515 213 OFFCURVE",
"394 213 CURVE SMOOTH",
"276 213 OFFCURVE",
"199 148 OFFCURVE",
"199 58 CURVE SMOOTH",
"199 16 OFFCURVE",
"229 -15 OFFCURVE",
"260 -15 CURVE SMOOTH",
"291 -15 OFFCURVE",
"310 10 OFFCURVE",
"323 76 CURVE SMOOTH",
"367 297 OFFCURVE",
"463 604 OFFCURVE",
"504 702 CURVE",
"423 724 LINE",
"407 686 OFFCURVE",
"384 618 OFFCURVE",
"359 538 CURVE",
"188 535 OFFCURVE",
"116 520 OFFCURVE",
"73 502 CURVE",
"91 433 LINE",
"130 447 OFFCURVE",
"192 461 OFFCURVE",
"337 465 CURVE",
"303 351 OFFCURVE",
"269 224 OFFCURVE",
"245 117 CURVE",
"283 55 LINE",
"283 102 OFFCURVE",
"326 140 OFFCURVE",
"392 140 CURVE SMOOTH",
"461 140 OFFCURVE",
"514 90 OFFCURVE",
"514 15 CURVE SMOOTH",
"514 -19 OFFCURVE",
"502 -74 OFFCURVE",
"486 -97 CURVE",
"549 -139 LINE"
);
}
);
width = 688;
}
);
category = Letter;
},
{
glyphname = ShPa_khar;
lastChange = "2019-12-16 17:27:41 +0000";
layers = (
{
anchors = (
{
name = Anchor10;
position = "{340, -7}";
},
{
name = Anchor12;
position = "{387, 0}";
},
{
name = Anchor14;
position = "{359, 712}";
},
{
name = Anchor16;
position = "{298, 0}";
},
{
name = Anchor18;
position = "{437, -15}";
},
{
name = Anchor20;
position = "{379, 55}";
},
{
name = Anchor26;
position = "{410, 155}";
},
{
name = Anchor28;
position = "{420, 100}";
},
{
name = Anchor30;
position = "{500, 476}";
},
{
name = Anchor4;
position = "{275, 470}";
},
{
name = Anchor6;
position = "{643, 171}";
},
{
name = Anchor8;
position = "{340, -7}";
}
);
layerId = UUID0;
paths = (
{
closed = 1;
nodes = (
"422 75 OFFCURVE",
"478 241 OFFCURVE",
"505 389 CURVE",
"620 383 OFFCURVE",
"662 364 OFFCURVE",
"662 311 CURVE SMOOTH",
"662 268 OFFCURVE",
"641 241 OFFCURVE",
"614 206 CURVE",
"674 155 LINE",
"728 228 OFFCURVE",
"748 262 OFFCURVE",
"748 317 CURVE SMOOTH",
"748 414 OFFCURVE",
"680 453 OFFCURVE",
"516 461 CURVE",
"519 487 OFFCURVE",
"520 512 OFFCURVE",
"520 535 CURVE SMOOTH",
"520 627 OFFCURVE",
"477 713 OFFCURVE",
"339 713 CURVE SMOOTH",
"277 713 OFFCURVE",
"187 702 OFFCURVE",
"112 684 CURVE",
"131 614 LINE",
"200 629 OFFCURVE",
"275 635 OFFCURVE",
"328 635 CURVE SMOOTH",
"396 635 OFFCURVE",
"434 589 OFFCURVE",
"434 531 CURVE SMOOTH",
"434 360 OFFCURVE",
"352 108 OFFCURVE",
"299 5 CURVE",
"379 -16 LINE"
);
}
);
width = 794;
}
);
category = Letter;
},
{
glyphname = SPa_khar;
lastChange = "2019-12-16 17:27:41 +0000";
layers = (
{
anchors = (
{
name = Anchor10;
position = "{116, -7}";
},
{
name = Anchor12;
position = "{283, 0}";
},
{
name = Anchor14;
position = "{334, 712}";
},
{
name = Anchor16;
position = "{414, -18}";
},
{
name = Anchor18;
position = "{214, -16}";
},
{
name = Anchor20;
position = "{146, 67}";
},
{
name = Anchor26;
position = "{180, 155}";
},
{
name = Anchor28;
position = "{456, 100}";
},
{
name = Anchor30;
position = "{247, 406}";
},
{
name = Anchor4;
position = "{123, 470}";
},
{
name = Anchor6;
position = "{380, -12}";
},
{
name = Anchor8;
position = "{116, -7}";
}
);
layerId = UUID0;
paths = (
{
closed = 1;
nodes = (
"425 347 OFFCURVE",
"533 400 OFFCURVE",
"533 511 CURVE SMOOTH",
"533 622 OFFCURVE",
"440 635 OFFCURVE",
"313 651 CURVE SMOOTH",
"210 664 OFFCURVE",
"185 690 OFFCURVE",
"176 722 CURVE",
"107 697 LINE",
"124 628 OFFCURVE",
"158 597 OFFCURVE",
"304 580 CURVE SMOOTH",
"397 569 OFFCURVE",
"447 560 OFFCURVE",
"447 509 CURVE SMOOTH",
"447 443 OFFCURVE",
"387 418 OFFCURVE",
"312 418 CURVE SMOOTH",
"297 418 OFFCURVE",
"282 418 OFFCURVE",
"268 420 CURVE",
"264 439 OFFCURVE",
"258 454 OFFCURVE",
"252 462 CURVE",
"186 446 LINE",
"192 425 OFFCURVE",
"194 405 OFFCURVE",
"194 373 CURVE SMOOTH",
"194 313 OFFCURVE",
"115 78 OFFCURVE",
"75 5 CURVE",
"155 -16 LINE",
"181 38 OFFCURVE",
"210 123 OFFCURVE",
"238 212 CURVE",
"359 207 OFFCURVE",
"401 188 OFFCURVE",
"401 133 CURVE SMOOTH",
"401 89 OFFCURVE",
"380 61 OFFCURVE",
"353 26 CURVE",
"413 -25 LINE",
"449 22 OFFCURVE",
"484 70 OFFCURVE",
"487 133 CURVE SMOOTH",
"487 135 OFFCURVE",
"487 137 OFFCURVE",
"487 140 CURVE SMOOTH",
"487 142 LINE SMOOTH",
"486 236 OFFCURVE",
"423 276 OFFCURVE",
"259 284 CURVE",
"273 348 LINE",
"284 347 OFFCURVE",
"296 347 OFFCURVE",
"310 347 CURVE SMOOTH"
);
}
);
width = 567;
}
);
category = Letter;
},
{
glyphname = STa_khar;
lastChange = "2019-12-16 17:27:41 +0000";
layers = (
{
anchors = (
{
name = Anchor12;
position = "{287, 0}";
},
{
name = Anchor14;
position = "{315, 712}";
},
{
name = Anchor16;
position = "{308, -20}";
},
{
name = Anchor18;
position = "{370, -10}";
},
{
name = Anchor20;
position = "{319, 79}";
},
{
name = Anchor26;
position = "{380, 155}";
},
{
name = Anchor28;
position = "{377, 100}";
},
{
name = Anchor30;
position = "{469, 407}";
},
{
name = Anchor4;
position = "{147, 425}";
},
{
name = Anchor6;
position = "{274, 0}";
}
);
layerId = UUID0;
paths = (
{
closed = 1;
nodes = (
"507 407 LINE",
"521 453 OFFCURVE",
"530 497 OFFCURVE",
"530 535 CURVE SMOOTH",
"530 627 OFFCURVE",
"487 713 OFFCURVE",
"349 713 CURVE SMOOTH",
"280 713 OFFCURVE",
"184 697 OFFCURVE",
"99 666 CURVE",
"117 597 LINE",
"198 624 OFFCURVE",
"269 635 OFFCURVE",
"338 635 CURVE SMOOTH",
"406 635 OFFCURVE",
"444 589 OFFCURVE",
"444 531 CURVE SMOOTH",
"444 492 OFFCURVE",
"436 450 OFFCURVE",
"423 407 CURVE",
"333 405 OFFCURVE",
"259 403 OFFCURVE",
"201 399 CURVE",
"185 324 LINE",
"250 328 OFFCURVE",
"322 331 OFFCURVE",
"398 333 CURVE",
"348 210 OFFCURVE",
"278 90 OFFCURVE",
"240 26 CURVE",
"309 -17 LINE",
"354 64 OFFCURVE",
"428 201 OFFCURVE",
"481 333 CURVE",
"486 333 LINE SMOOTH",
"550 333 OFFCURVE",
"614 332 OFFCURVE",
"680 328 CURVE",
"696 400 LINE",
"636 404 OFFCURVE",
"574 407 OFFCURVE",
"510 407 CURVE SMOOTH"
);
}
);
width = 706;
}
);
note = "g123\012sta";
category = Letter;
},
{
glyphname = STha_khar;
lastChange = "2019-12-16 17:27:41 +0000";
layers = (
{
anchors = (
{
name = Anchor10;
position = "{284, 18}";
},
{
name = Anchor12;
position = "{287, 0}";
},
{
name = Anchor14;
position = "{315, 712}";
},
{
name = Anchor16;
position = "{308, -20}";
},
{
name = Anchor18;
position = "{369, -12}";
},
{
name = Anchor20;
position = "{319, 79}";
},
{
name = Anchor26;
position = "{380, 155}";
},
{
name = Anchor28;
position = "{379, 100}";
},
{
name = Anchor30;
position = "{469, 407}";
},
{
name = Anchor32;
position = "{418, 215}";
},
{
name = Anchor4;
position = "{147, 425}";
},
{
name = Anchor6;
position = "{274, 0}";
}
);
layerId = UUID0;
paths = (
{
closed = 1;
nodes = (
"760 578 OFFCURVE",
"721 452 OFFCURVE",
"695 431 CURVE SMOOTH",
"670 411 OFFCURVE",
"621 407 OFFCURVE",
"510 407 CURVE",
"523 455 OFFCURVE",
"530 498 OFFCURVE",
"530 535 CURVE SMOOTH",
"530 650 OFFCURVE",
"465 713 OFFCURVE",
"349 713 CURVE SMOOTH",
"271 713 OFFCURVE",
"176 695 OFFCURVE",
"99 666 CURVE",
"117 597 LINE",
"192 622 OFFCURVE",
"265 635 OFFCURVE",
"338 635 CURVE SMOOTH",
"403 635 OFFCURVE",
"444 591 OFFCURVE",
"444 531 CURVE SMOOTH",
"444 494 OFFCURVE",
"438 453 OFFCURVE",
"425 407 CURVE",
"334 405 OFFCURVE",
"259 403 OFFCURVE",
"201 399 CURVE",
"185 324 LINE",
"251 328 OFFCURVE",
"324 331 OFFCURVE",
"401 333 CURVE",
"364 229 OFFCURVE",
"298 108 OFFCURVE",
"236 26 CURVE",
"305 -17 LINE",
"379 88 OFFCURVE",
"449 228 OFFCURVE",
"486 333 CURVE",
"597 333 LINE SMOOTH",
"657 333 OFFCURVE",
"720 346 OFFCURVE",
"743 365 CURVE SMOOTH",
"769 387 OFFCURVE",
"795 411 OFFCURVE",
"885 688 CURVE",
"804 710 LINE"
);
}
);
width = 887;
}
);
category = Letter;
},
{
glyphname = SYa_khar;
lastChange = "2019-12-16 17:27:41 +0000";
layers = (
{
anchors = (
{
name = Anchor12;
position = "{513, -11}";
},
{
name = Anchor14;
position = "{681, 857}";
},
{
name = Anchor16;
position = "{230, -82}";
},
{
name = Anchor18;
position = "{320, -94}";
},
{
name = Anchor20;
position = "{236, 80}";
},
{
name = Anchor26;
position = "{550, 395}";
},
{
name = Anchor28;
position = "{379, 100}";
},
{
name = Anchor30;
position = "{598, 561}";
},
{
name = Anchor4;
position = "{476, 633}";
},
{
name = Anchor8;
position = "{186, -82}";
}
);
layerId = UUID0;
paths = (
{
closed = 1;
nodes = (
"295 -85 OFFCURVE",
"364 -22 OFFCURVE",
"364 89 CURVE",
"379 98 OFFCURVE",
"392 109 OFFCURVE",
"402 122 CURVE",
"496 184 OFFCURVE",
"576 311 OFFCURVE",
"603 439 CURVE",
"618 438 OFFCURVE",
"635 438 OFFCURVE",
"653 438 CURVE SMOOTH",
"771 438 OFFCURVE",
"876 510 OFFCURVE",
"876 630 CURVE SMOOTH",
"876 747 OFFCURVE",
"797 776 OFFCURVE",
"656 793 CURVE SMOOTH",
"574 803 OFFCURVE",
"531 825 OFFCURVE",
"519 873 CURVE",
"450 847 LINE",
"471 753 OFFCURVE",
"539 736 OFFCURVE",
"647 722 CURVE SMOOTH",
"758 708 OFFCURVE",
"790 683 OFFCURVE",
"790 627 CURVE SMOOTH",
"790 556 OFFCURVE",
"735 508 OFFCURVE",
"655 508 CURVE SMOOTH",
"642 508 OFFCURVE",
"630 508 OFFCURVE",
"617 509 CURVE",
"617 554 OFFCURVE",
"607 597 OFFCURVE",
"595 612 CURVE",
"529 596 LINE",
"534 579 OFFCURVE",
"537 554 OFFCURVE",
"537 523 CURVE SMOOTH",
"537 422 OFFCURVE",
"492 313 OFFCURVE",
"424 241 CURVE",
"411 286 OFFCURVE",
"369 320 OFFCURVE",
"313 329 CURVE",
"289 261 LINE",
"328 257 OFFCURVE",
"353 232 OFFCURVE",
"353 199 CURVE SMOOTH",
"353 160 OFFCURVE",
"320 137 OFFCURVE",
"265 137 CURVE SMOOTH",
"253 137 OFFCURVE",
"244 137 OFFCURVE",
"238 139 CURVE",
"208 68 LINE",
"224 65 OFFCURVE",
"238 63 OFFCURVE",
"253 63 CURVE SMOOTH",
"263 63 OFFCURVE",
"274 63 OFFCURVE",
"284 64 CURVE",
"277 7 OFFCURVE",
"244 -21 OFFCURVE",
"182 -21 CURVE SMOOTH",
"113 -21 OFFCURVE",
"71 16 OFFCURVE",
"71 81 CURVE SMOOTH",
"71 89 OFFCURVE",
"72 100 OFFCURVE",
"74 111 CURVE",
"2 123 LINE",
"-2 104 OFFCURVE",
"-5 85 OFFCURVE",
"-5 67 CURVE SMOOTH",
"-5 -24 OFFCURVE",
"65 -85 OFFCURVE",
"182 -85 CURVE SMOOTH"
);
}
);
width = 920;
}
);
note = "g124\012sya";
category = Letter;
},
{
glyphname = uni25CC;
lastChange = "2019-12-16 17:27:41 +0000";
layers = (
{
anchors = (
{
name = Anchor10;
position = "{433, -6}";
},
{
name = Anchor12;
position = "{284, 0}";
},
{
name = Anchor14;
position = "{296, 540}";
},
{
name = Anchor16;
position = "{377, 42}";
},
{
name = Anchor18;
position = "{431, 30}";
},
{
name = Anchor20;
position = "{273, 129}";
},
{
name = Anchor22;
position = "{294, -14}";
},
{
name = Anchor26;
position = "{300, 61}";
},
{
name = Anchor28;
position = "{467, 106}";
},
{
name = Anchor30;
position = "{363, 310}";
},
{
name = Anchor32;
position = "{511, 255}";
},
{
name = Anchor4;
position = "{243, 280}";
},
{
name = Anchor6;
position = "{292, 31}";
},
{
name = Anchor8;
position = "{178, -59}";
}
);
layerId = UUID0;
paths = (
{
closed = 1;
nodes = (
"480 466 OFFCURVE",
"472 475 OFFCURVE",
"455 475 CURVE SMOOTH",
"437 475 OFFCURVE",
"428 466 OFFCURVE",
"428 448 CURVE SMOOTH",
"428 431 OFFCURVE",
"437 422 OFFCURVE",
"455 422 CURVE SMOOTH",
"472 422 OFFCURVE",
"480 431 OFFCURVE",
"480 448 CURVE SMOOTH"
);
},
{
closed = 1;
nodes = (
"408 514 OFFCURVE",
"400 523 OFFCURVE",
"383 523 CURVE SMOOTH",
"364 523 OFFCURVE",
"355 514 OFFCURVE",
"355 496 CURVE SMOOTH",
"355 479 OFFCURVE",
"364 470 OFFCURVE",
"383 470 CURVE SMOOTH",
"400 470 OFFCURVE",
"408 479 OFFCURVE",
"408 496 CURVE SMOOTH"
);
},
{
closed = 1;
nodes = (
"529 393 OFFCURVE",
"520 402 OFFCURVE",
"503 402 CURVE SMOOTH",
"485 402 OFFCURVE",
"476 393 OFFCURVE",
"476 376 CURVE SMOOTH",
"476 358 OFFCURVE",
"485 349 OFFCURVE",
"502 349 CURVE SMOOTH",
"520 349 OFFCURVE",
"529 358 OFFCURVE",
"529 376 CURVE SMOOTH"
);
},
{
closed = 1;
nodes = (
"546 308 OFFCURVE",
"538 317 OFFCURVE",
"521 317 CURVE SMOOTH",
"503 317 OFFCURVE",
"494 308 OFFCURVE",
"494 291 CURVE SMOOTH",
"494 274 OFFCURVE",
"503 265 OFFCURVE",
"521 265 CURVE SMOOTH",
"538 265 OFFCURVE",
"546 274 OFFCURVE",
"546 291 CURVE SMOOTH"
);
},
{
closed = 1;
nodes = (
"323 531 OFFCURVE",
"314 540 OFFCURVE",
"297 540 CURVE SMOOTH",
"280 540 OFFCURVE",
"271 531 OFFCURVE",
"271 514 CURVE SMOOTH",
"271 496 OFFCURVE",
"280 487 OFFCURVE",
"297 487 CURVE SMOOTH",
"314 487 OFFCURVE",
"323 496 OFFCURVE",
"323 514 CURVE SMOOTH"
);
},
{
closed = 1;
nodes = (
"239 514 OFFCURVE",
"230 523 OFFCURVE",
"212 523 CURVE SMOOTH",
"195 523 OFFCURVE",
"186 514 OFFCURVE",
"186 496 CURVE SMOOTH",
"186 479 OFFCURVE",
"195 470 OFFCURVE",
"212 470 CURVE SMOOTH",
"230 470 OFFCURVE",
"239 479 OFFCURVE",
"239 496 CURVE SMOOTH"
);
},
{
closed = 1;
nodes = (
"529 224 OFFCURVE",
"520 233 OFFCURVE",
"502 233 CURVE SMOOTH",
"485 233 OFFCURVE",
"476 224 OFFCURVE",
"476 206 CURVE SMOOTH",
"476 189 OFFCURVE",
"485 180 OFFCURVE",
"502 180 CURVE SMOOTH",
"520 180 OFFCURVE",
"529 189 OFFCURVE",
"529 206 CURVE SMOOTH"
);
},
{
closed = 1;
nodes = (
"167 466 OFFCURVE",
"158 475 OFFCURVE",
"140 475 CURVE SMOOTH",
"123 475 OFFCURVE",
"114 466 OFFCURVE",
"114 447 CURVE SMOOTH",
"114 430 OFFCURVE",
"123 422 OFFCURVE",
"140 422 CURVE SMOOTH",
"158 422 OFFCURVE",
"167 431 OFFCURVE",
"167 448 CURVE SMOOTH"
);
},
{
closed = 1;
nodes = (
"480 151 OFFCURVE",
"472 160 OFFCURVE",
"455 160 CURVE SMOOTH",
"437 160 OFFCURVE",
"428 151 OFFCURVE",
"428 133 CURVE SMOOTH",
"428 116 OFFCURVE",
"437 107 OFFCURVE",
"455 107 CURVE SMOOTH",
"472 107 OFFCURVE",
"480 116 OFFCURVE",
"480 133 CURVE SMOOTH"
);
},
{
closed = 1;
nodes = (
"408 103 OFFCURVE",
"400 112 OFFCURVE",
"383 112 CURVE SMOOTH",
"364 112 OFFCURVE",
"355 103 OFFCURVE",
"355 85 CURVE SMOOTH",
"355 68 OFFCURVE",
"364 60 OFFCURVE",
"383 60 CURVE SMOOTH",
"400 60 OFFCURVE",
"408 68 OFFCURVE",
"408 85 CURVE SMOOTH"
);
},
{
closed = 1;
nodes = (
"118 393 OFFCURVE",
"109 402 OFFCURVE",
"92 402 CURVE SMOOTH",
"74 402 OFFCURVE",
"65 393 OFFCURVE",
"65 376 CURVE SMOOTH",
"65 358 OFFCURVE",
"74 349 OFFCURVE",
"93 349 CURVE SMOOTH",
"110 349 OFFCURVE",
"118 358 OFFCURVE",
"118 376 CURVE SMOOTH"
);
},
{
closed = 1;
nodes = (
"101 308 OFFCURVE",
"92 317 OFFCURVE",
"75 317 CURVE SMOOTH",
"57 317 OFFCURVE",
"48 308 OFFCURVE",
"48 291 CURVE SMOOTH",
"48 274 OFFCURVE",
"57 265 OFFCURVE",
"75 265 CURVE SMOOTH",
"92 265 OFFCURVE",
"101 274 OFFCURVE",
"101 291 CURVE SMOOTH"
);
},
{
closed = 1;
nodes = (
"323 86 OFFCURVE",
"314 95 OFFCURVE",
"297 95 CURVE SMOOTH",
"280 95 OFFCURVE",
"271 86 OFFCURVE",
"271 69 CURVE SMOOTH",
"271 51 OFFCURVE",
"280 42 OFFCURVE",
"297 42 CURVE SMOOTH",
"314 42 OFFCURVE",
"323 51 OFFCURVE",
"323 69 CURVE SMOOTH"
);
},
{
closed = 1;
nodes = (
"118 224 OFFCURVE",
"109 233 OFFCURVE",
"92 233 CURVE SMOOTH",
"74 233 OFFCURVE",
"65 224 OFFCURVE",
"65 206 CURVE SMOOTH",
"65 189 OFFCURVE",
"74 180 OFFCURVE",
"92 180 CURVE SMOOTH",
"109 180 OFFCURVE",
"118 189 OFFCURVE",
"118 206 CURVE SMOOTH"
);
},
{
closed = 1;
nodes = (
"239 104 OFFCURVE",
"230 112 OFFCURVE",
"212 112 CURVE SMOOTH",
"195 112 OFFCURVE",
"186 103 OFFCURVE",
"186 85 CURVE SMOOTH",
"186 68 OFFCURVE",
"195 60 OFFCURVE",
"212 60 CURVE SMOOTH",
"230 60 OFFCURVE",
"239 69 OFFCURVE",
"239 87 CURVE SMOOTH"
);
},
{
closed = 1;
nodes = (
"167 151 OFFCURVE",
"158 160 OFFCURVE",
"140 160 CURVE SMOOTH",
"123 160 OFFCURVE",
"114 151 OFFCURVE",
"114 133 CURVE SMOOTH",
"114 116 OFFCURVE",
"123 107 OFFCURVE",
"140 107 CURVE SMOOTH",
"158 107 OFFCURVE",
"167 116 OFFCURVE",
"167 133 CURVE SMOOTH"
);
}
);
width = 594;
}
);
note = uni25CC;
unicode = 25CC;
category = Letter;
},
{
glyphname = I_diagonal;
lastChange = "2019-12-16 17:27:09 +0000";
layers = (
{
anchors = (
{
name = _Anchor4;
position = "{-174, 426}";
}
);
layerId = UUID0;
paths = (
{
closed = 1;
nodes = (
"-214 157 OFFCURVE",
"-138 411 OFFCURVE",
"-86 639 CURVE",
"-59 777 LINE",
"-99 790 LINE",
"-144 571 OFFCURVE",
"-270 176 OFFCURVE",
"-313 68 CURVE",
"-258 45 LINE"
);
}
);
width = 0;
}
);
category = Mark;
subCategory = Nonspacing;
},
{
glyphname = I_diagonal_short;
lastChange = "2019-12-16 17:27:09 +0000";
layers = (
{
anchors = (
{
name = _Anchor4;
position = "{-150, 470}";
}
);
layerId = UUID0;
paths = (
{
closed = 1;
nodes = (
"-171 303 OFFCURVE",
"-123 477 OFFCURVE",
"-86 639 CURVE",
"-56 794 LINE",
"-96 806 LINE",
"-129 645 OFFCURVE",
"-207 371 OFFCURVE",
"-267 199 CURVE",
"-212 176 LINE"
);
}
);
width = 0;
}
);
category = Mark;
subCategory = Nonspacing;
},
{
export = 0;
glyphname = I_horizontal;
lastChange = "2019-12-16 17:27:09 +0000";
layers = (
{
layerId = UUID0;
paths = (
{
closed = 1;
nodes = (
"-468 397 OFFCURVE",
"-406 403 OFFCURVE",
"-281 420 CURVE SMOOTH",
"-183 433 OFFCURVE",
"-101 449 OFFCURVE",
"-35 464 CURVE",
"-42 504 LINE",
"-153 484 OFFCURVE",
"-384 452 OFFCURVE",
"-534 444 CURVE",
"-522 392 LINE"
);
}
);
width = 0;
}
);
category = Mark;
subCategory = Nonspacing;
},
{
glyphname = I_vertical;
lastChange = "2019-12-16 17:27:09 +0000";
layers = (
{
anchors = (
{
name = _Anchor4;
position = "{-122, 470}";
}
);
layerId = UUID0;
paths = (
{
closed = 1;
nodes = (
"-130 296 OFFCURVE",
"-121 355 OFFCURVE",
"-101 504 CURVE SMOOTH",
"-87 607 OFFCURVE",
"-82 693 OFFCURVE",
"-79 762 CURVE",
"-119 766 LINE",
"-128 651 OFFCURVE",
"-158 397 OFFCURVE",
"-196 238 CURVE",
"-141 235 LINE"
);
}
);
width = 0;
}
);
category = Mark;
subCategory = Nonspacing;
},
{
glyphname = E_vertical;
lastChange = "2019-12-16 17:27:07 +0000";
layers = (
{
anchors = (
{
name = _Anchor24;
position = "{-100, 556}";
}
);
layerId = UUID0;
paths = (
{
closed = 1;
nodes = (
"-72 536 LINE",
"-68 596 OFFCURVE",
"-56 735 OFFCURVE",
"-51 790 CURVE",
"-101 795 LINE",
"-110 739 OFFCURVE",
"-130 601 OFFCURVE",
"-136 536 CURVE"
);
}
);
width = 0;
}
);
category = Mark;
subCategory = Nonspacing;
},
{
glyphname = O_diag.short;
lastChange = "2019-12-16 17:27:14 +0000";
layers = (
{
anchors = (
{
name = _Anchor30;
position = "{-97, 197}";
}
);
layerId = UUID0;
paths = (
{
closed = 1;
nodes = (
"-256 34 OFFCURVE",
"-162 81 OFFCURVE",
"-72 131 CURVE",
"-97 184 LINE",
"-191 135 OFFCURVE",
"-299 82 OFFCURVE",
"-381 47 CURVE",
"-347 -10 LINE"
);
}
);
width = 0;
}
);
category = Mark;
subCategory = Nonspacing;
},
{
glyphname = O_vertical;
lastChange = "2019-12-16 17:27:14 +0000";
layers = (
{
anchors = (
{
name = _Anchor30;
position = "{-146, 362}";
}
);
layerId = UUID0;
paths = (
{
closed = 1;
nodes = (
"-128 390 OFFCURVE",
"-89 659 OFFCURVE",
"-81 705 CURVE",
"-121 705 LINE",
"-142 585 OFFCURVE",
"-183 340 OFFCURVE",
"-200 236 CURVE",
"-145 233 LINE"
);
}
);
width = 0;
}
);
category = Mark;
subCategory = Nonspacing;
},
{
glyphname = O_vertical_short;
lastChange = "2019-12-16 17:27:14 +0000";
layers = (
{
anchors = (
{
name = _Anchor30;
position = "{-146, 362}";
}
);
layerId = UUID0;
paths = (
{
closed = 1;
nodes = (
"-141 278 OFFCURVE",
"-107 541 OFFCURVE",
"-97 605 CURVE",
"-137 605 LINE",
"-158 485 OFFCURVE",
"-183 340 OFFCURVE",
"-200 236 CURVE",
"-145 233 LINE"
);
}
);
width = 0;
}
);
category = Mark;
subCategory = Nonspacing;
},
{
glyphname = U.alt;
lastChange = "2019-12-16 17:27:38 +0000";
layers = (
{
anchors = (
{
name = Anchor40;
position = "{-140, -14}";
},
{
name = _Anchor20;
position = "{-7, 171}";
}
);
layerId = UUID0;
paths = (
{
closed = 1;
nodes = (
"-256 135 OFFCURVE",
"-235 157 OFFCURVE",
"-185 157 CURVE SMOOTH",
"-127 157 OFFCURVE",
"-83 127 OFFCURVE",
"-52 79 CURVE",
"-86 63 OFFCURVE",
"-119 63 OFFCURVE",
"-141 63 CURVE SMOOTH",
"-199 63 OFFCURVE",
"-256 83 OFFCURVE",
"-256 112 CURVE SMOOTH"
);
},
{
closed = 1;
nodes = (
"-314 14 OFFCURVE",
"-219 -14 OFFCURVE",
"-140 -14 CURVE SMOOTH",
"-42 -14 OFFCURVE",
"-7 43 OFFCURVE",
"-7 80 CURVE",
"-40 135 OFFCURVE",
"-96 197 OFFCURVE",
"-199 197 CURVE SMOOTH",
"-284 197 OFFCURVE",
"-314 154 OFFCURVE",
"-314 107 CURVE SMOOTH"
);
}
);
width = 0;
}
);
category = Mark;
subCategory = Nonspacing;
},
{
glyphname = U.alt2;
lastChange = "2019-12-16 17:27:38 +0000";
layers = (
{
anchors = (
{
name = Anchor40;
position = "{-199, -33}";
},
{
name = _Anchor20;
position = "{-42, 169}";
}
);
layerId = UUID0;
paths = (
{
closed = 1;
nodes = (
"-250 43 OFFCURVE",
"-281 56 OFFCURVE",
"-281 87 CURVE SMOOTH",
"-281 105 OFFCURVE",
"-260 139 OFFCURVE",
"-203 139 CURVE SMOOTH",
"-184 139 OFFCURVE",
"-148 135 OFFCURVE",
"-111 106 CURVE",
"-141 61 OFFCURVE",
"-187 43 OFFCURVE",
"-217 43 CURVE SMOOTH"
);
},
{
closed = 1;
nodes = (
"-336 -6 OFFCURVE",
"-263 -33 OFFCURVE",
"-199 -33 CURVE SMOOTH",
"-159 -33 OFFCURVE",
"-98 -15 OFFCURVE",
"-33 86 CURVE",
"-88 154 OFFCURVE",
"-158 177 OFFCURVE",
"-208 177 CURVE SMOOTH",
"-309 177 OFFCURVE",
"-336 106 OFFCURVE",
"-336 74 CURVE SMOOTH"
);
}
);
width = 0;
}
);
category = Mark;
subCategory = Nonspacing;
},
{
glyphname = U.alt3;
lastChange = "2019-12-16 17:27:38 +0000";
layers = (
{
anchors = (
{
name = Anchor36;
position = "{-26, -132}";
},
{
name = Anchor38;
position = "{-84, -86}";
},
{
name = Anchor40;
position = "{-181, -132}";
},
{
name = _Anchor20;
position = "{3, 166}";
}
);
layerId = UUID0;
paths = (
{
closed = 1;
nodes = (
"-64 -132 OFFCURVE",
"-14 -55 OFFCURVE",
"-13 4 CURVE",
"-67 49 OFFCURVE",
"-107 66 OFFCURVE",
"-174 66 CURVE SMOOTH",
"-241 66 OFFCURVE",
"-299 26 OFFCURVE",
"-299 -34 CURVE SMOOTH",
"-299 -86 OFFCURVE",
"-266 -132 OFFCURVE",
"-181 -132 CURVE SMOOTH"
);
},
{
closed = 1;
nodes = (
"-224 -71 OFFCURVE",
"-250 -59 OFFCURVE",
"-250 -29 CURVE SMOOTH",
"-250 -7 OFFCURVE",
"-228 20 OFFCURVE",
"-174 20 CURVE SMOOTH",
"-150 20 OFFCURVE",
"-126 13 OFFCURVE",
"-96 -6 CURVE",
"-108 -51 OFFCURVE",
"-158 -71 OFFCURVE",
"-198 -71 CURVE SMOOTH"
);
}
);
width = 0;
}
);
category = Mark;
subCategory = Nonspacing;
},
{
glyphname = U_spacing;
lastChange = "2019-12-16 17:27:29 +0000";
layers = (
{
anchors = (
{
name = _Anchor20;
position = "{-66, 0}";
}
);
layerId = UUID0;
paths = (
{
closed = 1;
nodes = (
"-132 -14 OFFCURVE",
"-66 30 OFFCURVE",
"-66 103 CURVE SMOOTH",
"-66 161 OFFCURVE",
"-113 207 OFFCURVE",
"-196 207 CURVE SMOOTH",
"-272 207 OFFCURVE",
"-336 158 OFFCURVE",
"-336 92 CURVE SMOOTH",
"-336 25 OFFCURVE",
"-284 -14 OFFCURVE",
"-207 -14 CURVE SMOOTH"
);
},
{
closed = 1;
nodes = (
"-256 36 OFFCURVE",
"-283 57 OFFCURVE",
"-283 92 CURVE SMOOTH",
"-283 127 OFFCURVE",
"-250 148 OFFCURVE",
"-207 148 CURVE SMOOTH",
"-164 148 OFFCURVE",
"-131 127 OFFCURVE",
"-131 92 CURVE SMOOTH",
"-131 57 OFFCURVE",
"-162 36 OFFCURVE",
"-207 36 CURVE SMOOTH"
);
}
);
width = 0;
}
);
category = Mark;
subCategory = Nonspacing;
},
{
glyphname = vocR.short;
lastChange = "2019-12-16 17:27:35 +0000";
layers = (
{
anchors = (
{
name = _Anchor26;
position = "{-190, 178}";
}
);
layerId = UUID0;
paths = (
{
closed = 1;
nodes = (
"-141 65 OFFCURVE",
"-74 83 OFFCURVE",
"-74 136 CURVE SMOOTH",
"-74 234 OFFCURVE",
"-245 168 OFFCURVE",
"-245 223 CURVE SMOOTH",
"-245 234 OFFCURVE",
"-242 248 OFFCURVE",
"-203 248 CURVE SMOOTH",
"-182 248 OFFCURVE",
"-152 242 OFFCURVE",
"-126 233 CURVE",
"-107 275 LINE",
"-143 286 OFFCURVE",
"-169 291 OFFCURVE",
"-207 291 CURVE SMOOTH",
"-258 291 OFFCURVE",
"-307 264 OFFCURVE",
"-307 217 CURVE SMOOTH",
"-307 118 OFFCURVE",
"-138 192 OFFCURVE",
"-138 132 CURVE SMOOTH",
"-138 112 OFFCURVE",
"-169 109 OFFCURVE",
"-202 109 CURVE SMOOTH",
"-233 109 OFFCURVE",
"-264 117 OFFCURVE",
"-285 117 CURVE SMOOTH",
"-305 117 OFFCURVE",
"-342 116 OFFCURVE",
"-362 109 CURVE",
"-350 68 LINE",
"-333 71 OFFCURVE",
"-308 71 OFFCURVE",
"-284 71 CURVE SMOOTH",
"-261 71 OFFCURVE",
"-232 65 OFFCURVE",
"-202 65 CURVE SMOOTH"
);
}
);
width = 0;
}
);
category = Mark;
subCategory = Nonspacing;
},
{
glyphname = vocR.shorter;
lastChange = "2019-12-16 17:27:35 +0000";
layers = (
{
anchors = (
{
name = _Anchor26;
position = "{-150, 159}";
}
);
layerId = UUID0;
paths = (
{
closed = 1;
nodes = (
"-87 73 OFFCURVE",
"-20 87 OFFCURVE",
"-20 125 CURVE SMOOTH",
"-20 204 OFFCURVE",
"-219 151 OFFCURVE",
"-219 191 CURVE SMOOTH",
"-219 201 OFFCURVE",
"-216 209 OFFCURVE",
"-163 209 CURVE SMOOTH",
"-138 209 OFFCURVE",
"-103 206 OFFCURVE",
"-72 199 CURVE",
"-53 230 LINE",
"-89 239 OFFCURVE",
"-124 243 OFFCURVE",
"-167 243 CURVE SMOOTH",
"-232 243 OFFCURVE",
"-281 222 OFFCURVE",
"-281 190 CURVE SMOOTH",
"-281 111 OFFCURVE",
"-84 170 OFFCURVE",
"-84 127 CURVE SMOOTH",
"-84 110 OFFCURVE",
"-122 109 OFFCURVE",
"-162 109 CURVE SMOOTH",
"-198 109 OFFCURVE",
"-242 115 OFFCURVE",
"-263 115 CURVE SMOOTH",
"-283 115 OFFCURVE",
"-316 114 OFFCURVE",
"-336 109 CURVE",
"-324 73 LINE",
"-307 77 OFFCURVE",
"-284 78 OFFCURVE",
"-258 78 CURVE SMOOTH",
"-235 78 OFFCURVE",
"-206 73 OFFCURVE",
"-162 73 CURVE SMOOTH"
);
}
);
width = 0;
}
);
category = Mark;
subCategory = Nonspacing;
},
{
glyphname = vocR.wide;
lastChange = "2019-12-16 17:27:35 +0000";
layers = (
{
anchors = (
{
name = _Anchor26;
position = "{-208, 223}";
}
);
layerId = UUID0;
paths = (
{
closed = 1;
nodes = (
"-129 97 OFFCURVE",
"-45 116 OFFCURVE",
"-45 177 CURVE SMOOTH",
"-45 287 OFFCURVE",
"-294 212 OFFCURVE",
"-294 274 CURVE SMOOTH",
"-294 287 OFFCURVE",
"-290 303 OFFCURVE",
"-224 303 CURVE SMOOTH",
"-192 303 OFFCURVE",
"-149 295 OFFCURVE",
"-110 285 CURVE",
"-86 333 LINE",
"-131 345 OFFCURVE",
"-175 350 OFFCURVE",
"-229 350 CURVE SMOOTH",
"-310 350 OFFCURVE",
"-371 321 OFFCURVE",
"-371 268 CURVE SMOOTH",
"-371 156 OFFCURVE",
"-125 239 OFFCURVE",
"-125 172 CURVE SMOOTH",
"-125 149 OFFCURVE",
"-172 146 OFFCURVE",
"-222 146 CURVE SMOOTH",
"-267 146 OFFCURVE",
"-317 155 OFFCURVE",
"-344 155 CURVE SMOOTH",
"-369 155 OFFCURVE",
"-415 153 OFFCURVE",
"-440 146 CURVE",
"-425 99 LINE",
"-404 103 OFFCURVE",
"-372 103 OFFCURVE",
"-342 103 CURVE SMOOTH",
"-314 103 OFFCURVE",
"-277 97 OFFCURVE",
"-222 97 CURVE SMOOTH"
);
}
);
width = 0;
}
);
category = Mark;
subCategory = Nonspacing;
},
{
glyphname = SubMa_khar;
lastChange = "2019-12-16 17:27:38 +0000";
layers = (
{
anchors = (
{
name = Anchor40;
position = "{-220, -47}";
},
{
name = _Anchor22;
position = "{-220, 196}";
}
);
layerId = UUID0;
paths = (
{
closed = 1;
nodes = (
"-411 218 LINE",
"-422 185 OFFCURVE",
"-428 149 OFFCURVE",
"-428 122 CURVE SMOOTH",
"-428 18 OFFCURVE",
"-343 -67 OFFCURVE",
"-222 -67 CURVE SMOOTH",
"-104 -67 OFFCURVE",
"-27 -2 OFFCURVE",
"-27 88 CURVE SMOOTH",
"-27 103 OFFCURVE",
"-31 126 OFFCURVE",
"-34 142 CURVE",
"-114 118 LINE",
"-112 108 OFFCURVE",
"-111 99 OFFCURVE",
"-111 91 CURVE SMOOTH",
"-111 44 OFFCURVE",
"-154 6 OFFCURVE",
"-220 6 CURVE SMOOTH",
"-289 6 OFFCURVE",
"-342 56 OFFCURVE",
"-342 131 CURVE SMOOTH",
"-342 148 OFFCURVE",
"-339 172 OFFCURVE",
"-334 193 CURVE"
);
}
);
width = 0;
}
);
category = Mark;
subCategory = Nonspacing;
},
{
glyphname = SubMa.alt;
lastChange = "2019-12-16 17:27:38 +0000";
layers = (
{
anchors = (
{
name = Anchor40;
position = "{-180, -47}";
},
{
name = _Anchor22;
position = "{-185, 194}";
}
);
layerId = UUID0;
paths = (
{
closed = 1;
nodes = (
"-125 16 OFFCURVE",
"-160 12 OFFCURVE",
"-183 12 CURVE SMOOTH",
"-247 12 OFFCURVE",
"-286 54 OFFCURVE",
"-286 118 CURVE SMOOTH",
"-286 148 OFFCURVE",
"-280 173 OFFCURVE",
"-265 194 CURVE",
"-325 236 LINE",
"-356 195 OFFCURVE",
"-372 151 OFFCURVE",
"-372 105 CURVE SMOOTH",
"-372 3 OFFCURVE",
"-304 -61 OFFCURVE",
"-179 -61 CURVE SMOOTH",
"-123 -61 OFFCURVE",
"-79 -51 OFFCURVE",
"-52 -41 CURVE",
"-66 31 LINE"
);
}
);
width = 0;
}
);
category = Mark;
subCategory = Nonspacing;
},
{
glyphname = SubMa.alt1;
lastChange = "2019-12-16 17:27:38 +0000";
layers = (
{
anchors = (
{
name = Anchor40;
position = "{-223, -47}";
},
{
name = _Anchor22;
position = "{-223, 196}";
}
);
layerId = UUID0;
paths = (
{
closed = 1;
nodes = (
"-30 168 OFFCURVE",
"-30 176 OFFCURVE",
"-32 185 CURVE",
"-114 160 LINE",
"-114 157 LINE SMOOTH",
"-114 50 OFFCURVE",
"-163 14 OFFCURVE",
"-223 14 CURVE SMOOTH",
"-295 14 OFFCURVE",
"-332 66 OFFCURVE",
"-332 136 CURVE SMOOTH",
"-332 143 OFFCURVE",
"-331 150 OFFCURVE",
"-330 157 CURVE",
"-410 181 LINE",
"-415 164 OFFCURVE",
"-418 146 OFFCURVE",
"-418 129 CURVE SMOOTH",
"-418 17 OFFCURVE",
"-331 -60 OFFCURVE",
"-220 -60 CURVE SMOOTH",
"-107 -60 OFFCURVE",
"-30 28 OFFCURVE",
"-30 160 CURVE SMOOTH"
);
}
);
width = 0;
}
);
category = Mark;
subCategory = Nonspacing;
},
{
glyphname = SubMa.alt2;
lastChange = "2019-12-16 17:27:38 +0000";
layers = (
{
anchors = (
{
name = Anchor40;
position = "{-262, -147}";
},
{
name = _Anchor22;
position = "{-224, 186}";
}
);
components = (
{
name = SubMa_khar;
transform = "{1, 0, 0, 1, -30, -100}";
}
);
layerId = UUID0;
paths = (
{
closed = 1;
nodes = (
"-285 28 LINE",
"-302 -12 OFFCURVE",
"-323 -60 OFFCURVE",
"-339 -93 CURVE",
"-260 -115 LINE",
"-239 -70 OFFCURVE",
"-214 -15 OFFCURVE",
"-204 8 CURVE"
);
}
);
width = 0;
}
);
category = Mark;
subCategory = Nonspacing;
},
{
glyphname = SubMa.alt3;
lastChange = "2019-12-16 17:27:38 +0000";
layers = (
{
anchors = (
{
name = Anchor40;
position = "{-281, -255}";
},
{
name = _Anchor22;
position = "{-235, 116}";
}
);
components = (
{
name = SubMa_khar;
transform = "{1, 0, 0, 1, -37, -209}";
}
);
layerId = UUID0;
paths = (
{
closed = 1;
nodes = (
"-291 6 LINE",
"-301 -48 OFFCURVE",
"-326 -207 OFFCURVE",
"-331 -244 CURVE",
"-252 -252 LINE",
"-211 0 LINE"
);
}
);
width = 0;
}
);
category = Mark;
subCategory = Nonspacing;
},
{
glyphname = SubYa_khar;
lastChange = "2019-12-16 17:27:38 +0000";
layers = (
{
anchors = (
{
name = Anchor40;
position = "{-190, -208}";
},
{
name = _Anchor10;
position = "{-67, 1}";
},
{
name = _Anchor6;
position = "{-67, 1}";
}
);
layerId = UUID0;
paths = (
{
closed = 1;
nodes = (
"-153 -233 OFFCURVE",
"-84 -168 OFFCURVE",
"-84 -59 CURVE",
"-52 -43 OFFCURVE",
"-35 -30 OFFCURVE",
"-17 18 CURVE",
"-96 38 LINE",
"-96 36 OFFCURVE",
"-99 30 OFFCURVE",
"-100 28 CURVE SMOOTH",
"-115 -2 OFFCURVE",
"-138 -11 OFFCURVE",
"-183 -11 CURVE SMOOTH",
"-195 -11 OFFCURVE",
"-204 -11 OFFCURVE",
"-210 -9 CURVE",
"-240 -80 LINE",
"-224 -83 OFFCURVE",
"-210 -85 OFFCURVE",
"-195 -85 CURVE SMOOTH",
"-185 -85 OFFCURVE",
"-174 -85 OFFCURVE",
"-164 -84 CURVE",
"-171 -141 OFFCURVE",
"-204 -169 OFFCURVE",
"-266 -169 CURVE SMOOTH",
"-290 -169 OFFCURVE",
"-311 -164 OFFCURVE",
"-328 -156 CURVE",
"-354 -219 LINE",
"-328 -228 OFFCURVE",
"-299 -233 OFFCURVE",
"-266 -233 CURVE SMOOTH"
);
}
);
width = 0;
}
);
category = Mark;
subCategory = Nonspacing;
},
{
glyphname = SubYa.alt;
lastChange = "2019-12-16 17:27:38 +0000";
layers = (
{
anchors = (
{
name = Anchor40;
position = "{-247, -244}";
},
{
name = _Anchor10;
position = "{-131, 3}";
},
{
name = _Anchor6;
position = "{-131, 3}";
}
);
layerId = UUID0;
paths = (
{
closed = 1;
nodes = (
"-419 -259 LINE",
"-394 -269 OFFCURVE",
"-364 -274 OFFCURVE",
"-330 -274 CURVE SMOOTH",
"-217 -274 OFFCURVE",
"-148 -208 OFFCURVE",
"-148 -100 CURVE",
"-110 -79 OFFCURVE",
"-90 -59 OFFCURVE",
"-81 9 CURVE",
"-160 23 LINE",
"-177 -29 OFFCURVE",
"-190 -52 OFFCURVE",
"-247 -52 CURVE SMOOTH",
"-259 -52 OFFCURVE",
"-268 -52 OFFCURVE",
"-274 -50 CURVE",
"-304 -121 LINE",
"-288 -124 OFFCURVE",
"-274 -126 OFFCURVE",
"-259 -126 CURVE SMOOTH",
"-249 -126 OFFCURVE",
"-238 -126 OFFCURVE",
"-228 -125 CURVE",
"-235 -182 OFFCURVE",
"-268 -210 OFFCURVE",
"-330 -210 CURVE SMOOTH",
"-354 -210 OFFCURVE",
"-375 -205 OFFCURVE",
"-392 -197 CURVE"
);
}
);
width = 0;
}
);
category = Mark;
subCategory = Nonspacing;
},
{
glyphname = SubYa.alt1;
lastChange = "2019-12-16 17:27:38 +0000";
layers = (
{
anchors = (
{
name = Anchor40;
position = "{-200, -276}";
},
{
name = _Anchor6;
position = "{-90, -2}";
}
);
layerId = UUID0;
paths = (
{
closed = 1;
nodes = (
"-89 -111 OFFCURVE",
"-45 -79 OFFCURVE",
"-45 -17 CURVE SMOOTH",
"-45 -4 OFFCURVE",
"-48 10 OFFCURVE",
"-53 21 CURVE",
"-142 10 LINE",
"-136 -4 OFFCURVE",
"-131 -17 OFFCURVE",
"-131 -23 CURVE SMOOTH",
"-131 -46 OFFCURVE",
"-153 -74 OFFCURVE",
"-204 -74 CURVE SMOOTH",
"-216 -74 OFFCURVE",
"-235 -74 OFFCURVE",
"-241 -72 CURVE",
"-271 -143 LINE",
"-255 -146 OFFCURVE",
"-241 -148 OFFCURVE",
"-226 -148 CURVE SMOOTH",
"-216 -148 OFFCURVE",
"-205 -148 OFFCURVE",
"-195 -147 CURVE",
"-202 -204 OFFCURVE",
"-235 -232 OFFCURVE",
"-297 -232 CURVE SMOOTH",
"-321 -232 OFFCURVE",
"-342 -227 OFFCURVE",
"-359 -219 CURVE",
"-385 -282 LINE",
"-359 -291 OFFCURVE",
"-330 -296 OFFCURVE",
"-297 -296 CURVE SMOOTH",
"-184 -296 OFFCURVE",
"-115 -231 OFFCURVE",
"-115 -122 CURVE"
);
}
);
width = 0;
}
);
category = Mark;
subCategory = Nonspacing;
},
{
glyphname = SubYa.alt3;
lastChange = "2019-12-16 17:27:38 +0000";
layers = (
{
anchors = (
{
name = Anchor40;
position = "{-246, -213}";
},
{
name = _Anchor10;
position = "{-135, -1}";
},
{
name = _Anchor6;
position = "{-135, -1}";
}
);
layerId = UUID0;
paths = (
{
closed = 1;
nodes = (
"-141 -56 OFFCURVE",
"-115 -45 OFFCURVE",
"-84 15 CURVE",
"-153 49 LINE",
"-179 0 OFFCURVE",
"-200 -11 OFFCURVE",
"-246 -11 CURVE SMOOTH",
"-255 -11 OFFCURVE",
"-268 -10 OFFCURVE",
"-276 -9 CURVE",
"-306 -80 LINE",
"-290 -83 OFFCURVE",
"-276 -85 OFFCURVE",
"-261 -85 CURVE SMOOTH",
"-251 -85 OFFCURVE",
"-240 -85 OFFCURVE",
"-230 -84 CURVE",
"-237 -141 OFFCURVE",
"-270 -169 OFFCURVE",
"-332 -169 CURVE SMOOTH",
"-356 -169 OFFCURVE",
"-377 -164 OFFCURVE",
"-394 -156 CURVE",
"-420 -219 LINE",
"-395 -228 OFFCURVE",
"-365 -233 OFFCURVE",
"-332 -233 CURVE SMOOTH",
"-219 -233 OFFCURVE",
"-150 -167 OFFCURVE",
"-150 -59 CURVE"
);
}
);
width = 0;
}
);
category = Mark;
subCategory = Nonspacing;
},
{
glyphname = SubYa.alt4;
lastChange = "2019-12-16 17:27:38 +0000";
layers = (
{
anchors = (
{
name = Anchor40;
position = "{-173, -218}";
},
{
name = _Anchor10;
position = "{-61, 0}";
},
{
name = _Anchor6;
position = "{-61, 0}";
},
{
name = _Anchor8;
position = "{-61, 0}";
}
);
layerId = UUID0;
paths = (
{
closed = 1;
nodes = (
"-153 -233 OFFCURVE",
"-84 -167 OFFCURVE",
"-84 -59 CURVE",
"-61 -46 OFFCURVE",
"-41 -26 OFFCURVE",
"-20 -5 CURVE",
"-56 60 LINE",
"-100 22 LINE SMOOTH",
"-131 -4 OFFCURVE",
"-144 -11 OFFCURVE",
"-183 -11 CURVE SMOOTH",
"-195 -11 OFFCURVE",
"-204 -11 OFFCURVE",
"-210 -9 CURVE",
"-240 -80 LINE",
"-224 -83 OFFCURVE",
"-210 -85 OFFCURVE",
"-195 -85 CURVE SMOOTH",
"-185 -85 OFFCURVE",
"-174 -85 OFFCURVE",
"-164 -84 CURVE",
"-171 -141 OFFCURVE",
"-204 -169 OFFCURVE",
"-266 -169 CURVE SMOOTH",
"-290 -169 OFFCURVE",
"-311 -164 OFFCURVE",
"-328 -156 CURVE",
"-354 -219 LINE",
"-329 -228 OFFCURVE",
"-299 -233 OFFCURVE",
"-266 -233 CURVE SMOOTH"
);
}
);
width = 0;
}
);
category = Mark;
subCategory = Nonspacing;
},
{
glyphname = SubRa_khar;
lastChange = "2019-12-16 17:27:38 +0000";
layers = (
{
anchors = (
{
name = Anchor38;
position = "{-146, -217}";
},
{
name = Anchor40;
position = "{-153, -217}";
},
{
name = _Anchor6;
position = "{-289, 1}";
},
{
name = _Anchor8;
position = "{-289, 1}";
}
);
layerId = UUID0;
paths = (
{
closed = 1;
nodes = (
"-12 -118 LINE",
"-87 -139 OFFCURVE",
"-127 -143 OFFCURVE",
"-153 -143 CURVE SMOOTH",
"-219 -143 OFFCURVE",
"-267 -110 OFFCURVE",
"-267 -68 CURVE SMOOTH",
"-267 -52 OFFCURVE",
"-259 -25 OFFCURVE",
"-238 18 CURVE",
"-317 38 LINE",
"-338 -1 OFFCURVE",
"-356 -37 OFFCURVE",
"-356 -80 CURVE SMOOTH",
"-356 -161 OFFCURVE",
"-272 -217 OFFCURVE",
"-146 -217 CURVE SMOOTH",
"-90 -217 OFFCURVE",
"-46 -207 OFFCURVE",
"-19 -197 CURVE"
);
}
);
width = 0;
}
);
category = Mark;
subCategory = Nonspacing;
},
{
glyphname = SubRa.alt;
lastChange = "2019-12-16 17:27:38 +0000";
layers = (
{
anchors = (
{
name = Anchor40;
position = "{-165, -169}";
},
{
name = _Anchor6;
position = "{-349, 3}";
},
{
name = _Anchor8;
position = "{-349, 3}";
}
);
layerId = UUID0;
paths = (
{
closed = 1;
nodes = (
"-387 -129 OFFCURVE",
"-301 -189 OFFCURVE",
"-165 -189 CURVE SMOOTH",
"-109 -189 OFFCURVE",
"-55 -179 OFFCURVE",
"-28 -169 CURVE",
"-21 -90 LINE",
"-96 -111 OFFCURVE",
"-146 -115 OFFCURVE",
"-172 -115 CURVE SMOOTH",
"-248 -115 OFFCURVE",
"-306 -82 OFFCURVE",
"-306 -40 CURVE SMOOTH",
"-306 -25 OFFCURVE",
"-303 -8 OFFCURVE",
"-300 9 CURVE",
"-379 23 LINE",
"-384 -2 OFFCURVE",
"-387 -27 OFFCURVE",
"-387 -48 CURVE SMOOTH"
);
}
);
width = 0;
}
);
category = Mark;
subCategory = Nonspacing;
},
{
glyphname = SubRa.alt1;
lastChange = "2019-12-16 17:27:38 +0000";
layers = (
{
anchors = (
{
name = Anchor40;
position = "{-156, -47}";
},
{
name = _Anchor6;
position = "{-284, 16}";
},
{
name = _Anchor8;
position = "{-284, 16}";
}
);
layerId = UUID0;
paths = (
{
closed = 1;
nodes = (
"-100 -67 OFFCURVE",
"-56 -55 OFFCURVE",
"-29 -47 CURVE",
"-22 30 LINE",
"-97 7 OFFCURVE",
"-137 4 OFFCURVE",
"-163 4 CURVE SMOOTH",
"-223 4 OFFCURVE",
"-240 25 OFFCURVE",
"-249 44 CURVE",
"-331 14 LINE",
"-301 -59 OFFCURVE",
"-238 -67 OFFCURVE",
"-156 -67 CURVE"
);
}
);
width = 0;
}
);
category = Mark;
subCategory = Nonspacing;
},
{
glyphname = SubRa.alt3;
lastChange = "2019-12-16 17:27:38 +0000";
layers = (
{
anchors = (
{
name = Anchor40;
position = "{-170, -44}";
},
{
name = _Anchor6;
position = "{-311, 152}";
}
);
layerId = UUID0;
paths = (
{
closed = 1;
nodes = (
"-297 106 OFFCURVE",
"-285 131 OFFCURVE",
"-264 161 CURVE",
"-327 204 LINE",
"-358 166 OFFCURVE",
"-380 121 OFFCURVE",
"-380 73 CURVE SMOOTH",
"-380 -8 OFFCURVE",
"-296 -64 OFFCURVE",
"-170 -64 CURVE SMOOTH",
"-114 -64 OFFCURVE",
"-70 -54 OFFCURVE",
"-43 -44 CURVE",
"-36 35 LINE",
"-111 14 OFFCURVE",
"-151 10 OFFCURVE",
"-177 10 CURVE SMOOTH",
"-243 10 OFFCURVE",
"-297 39 OFFCURVE",
"-297 81 CURVE SMOOTH"
);
}
);
width = 0;
}
);
category = Mark;
subCategory = Nonspacing;
},
{
glyphname = SubRa.alt4;
lastChange = "2019-12-16 17:27:38 +0000";
layers = (
{
anchors = (
{
name = Anchor40;
position = "{-194, -218}";
},
{
name = _Anchor6;
position = "{-261, 0}";
}
);
layerId = UUID0;
paths = (
{
closed = 1;
nodes = (
"-276 -52 OFFCURVE",
"-246 -30 OFFCURVE",
"-219 -5 CURVE",
"-263 54 LINE",
"-331 -6 OFFCURVE",
"-364 -27 OFFCURVE",
"-364 -103 CURVE SMOOTH",
"-364 -184 OFFCURVE",
"-280 -238 OFFCURVE",
"-154 -238 CURVE SMOOTH",
"-98 -238 OFFCURVE",
"-54 -228 OFFCURVE",
"-27 -218 CURVE",
"-20 -139 LINE",
"-95 -160 OFFCURVE",
"-135 -164 OFFCURVE",
"-161 -164 CURVE SMOOTH",
"-227 -164 OFFCURVE",
"-276 -135 OFFCURVE",
"-276 -93 CURVE SMOOTH"
);
}
);
width = 0;
}
);
category = Mark;
subCategory = Nonspacing;
},
{
glyphname = SubLa_khar;
lastChange = "2019-12-16 17:27:16 +0000";
layers = (
{
anchors = (
{
name = _Anchor32;
position = "{-183, 275}";
}
);
layerId = UUID0;
paths = (
{
closed = 1;
nodes = (
"-21 94 LINE",
"-75 194 OFFCURVE",
"-175 318 OFFCURVE",
"-337 318 CURVE SMOOTH",
"-346 318 OFFCURVE",
"-355 318 OFFCURVE",
"-364 317 CURVE",
"-355 233 LINE",
"-350 233 OFFCURVE",
"-344 233 OFFCURVE",
"-339 233 CURVE",
"-215 233 OFFCURVE",
"-140 133 OFFCURVE",
"-99 56 CURVE"
);
}
);
width = 0;
}
);
category = Mark;
subCategory = Nonspacing;
},
{
glyphname = SubLa.alt;
lastChange = "2019-12-16 17:27:16 +0000";
layers = (
{
anchors = (
{
name = _Anchor32;
position = "{-212, 337}";
}
);
layerId = UUID0;
paths = (
{
closed = 1;
nodes = (
"-21 187 LINE",
"-82 265 OFFCURVE",
"-182 359 OFFCURVE",
"-312 359 CURVE SMOOTH",
"-335 359 OFFCURVE",
"-371 353 OFFCURVE",
"-397 347 CURVE",
"-374 265 LINE",
"-362 268 OFFCURVE",
"-334 271 OFFCURVE",
"-320 271 CURVE SMOOTH",
"-217 271 OFFCURVE",
"-139 197 OFFCURVE",
"-91 136 CURVE"
);
}
);
width = 0;
}
);
category = Mark;
subCategory = Nonspacing;
},
{
glyphname = SubVa_khar;
lastChange = "2019-12-16 17:27:38 +0000";
layers = (
{
anchors = (
{
name = Anchor38;
position = "{-250, -178}";
},
{
name = Anchor40;
position = "{-270, -208}";
},
{
name = _Anchor6;
position = "{-379, 1}";
}
);
layerId = UUID0;
paths = (
{
closed = 1;
nodes = (
"-106 97 LINE",
"-151 -84 OFFCURVE",
"-247 -129 OFFCURVE",
"-301 -129 CURVE SMOOTH",
"-339 -129 OFFCURVE",
"-357 -110 OFFCURVE",
"-357 -72 CURVE SMOOTH",
"-357 -52 OFFCURVE",
"-349 -25 OFFCURVE",
"-328 18 CURVE",
"-407 38 LINE",
"-428 -1 OFFCURVE",
"-446 -37 OFFCURVE",
"-446 -80 CURVE SMOOTH",
"-446 -161 OFFCURVE",
"-382 -208 OFFCURVE",
"-310 -208 CURVE SMOOTH",
"-216 -208 OFFCURVE",
"-99 -126 OFFCURVE",
"-45 24 CURVE SMOOTH",
"-40 38 OFFCURVE",
"-35 52 OFFCURVE",
"-31 66 CURVE"
);
}
);
width = 0;
}
);
category = Mark;
subCategory = Nonspacing;
},
{
glyphname = SubVa.alt;
lastChange = "2019-12-16 17:27:38 +0000";
layers = (
{
anchors = (
{
name = Anchor40;
position = "{-283, -179}";
},
{
name = _Anchor6;
position = "{-389, 3}";
}
);
layerId = UUID0;
paths = (
{
closed = 1;
nodes = (
"-419 23 LINE",
"-424 -2 OFFCURVE",
"-427 -27 OFFCURVE",
"-427 -48 CURVE SMOOTH",
"-427 -140 OFFCURVE",
"-369 -178 OFFCURVE",
"-300 -178 CURVE SMOOTH",
"-203 -178 OFFCURVE",
"-86 -96 OFFCURVE",
"-32 54 CURVE SMOOTH",
"-27 68 OFFCURVE",
"-22 82 OFFCURVE",
"-18 96 CURVE",
"-93 127 LINE",
"-145 -74 OFFCURVE",
"-246 -99 OFFCURVE",
"-288 -99 CURVE SMOOTH",
"-327 -99 OFFCURVE",
"-346 -78 OFFCURVE",
"-346 -40 CURVE SMOOTH",
"-346 -25 OFFCURVE",
"-343 -8 OFFCURVE",
"-340 9 CURVE"
);
}
);
width = 0;
}
);
category = Mark;
subCategory = Nonspacing;
},
{
glyphname = SubVa.alt1;
lastChange = "2019-12-16 17:27:38 +0000";
layers = (
{
anchors = (
{
name = Anchor40;
position = "{-244, -47}";
},
{
name = _Anchor6;
position = "{-334, 16}";
}
);
layerId = UUID0;
paths = (
{
closed = 1;
nodes = (
"-161 -65 OFFCURVE",
"-71 -13 OFFCURVE",
"-71 130 CURVE SMOOTH",
"-71 173 OFFCURVE",
"-76 223 OFFCURVE",
"-85 264 CURVE",
"-161 266 LINE",
"-152 211 OFFCURVE",
"-152 182 OFFCURVE",
"-152 128 CURVE SMOOTH",
"-152 55 OFFCURVE",
"-172 6 OFFCURVE",
"-244 6 CURVE SMOOTH",
"-270 6 OFFCURVE",
"-289 25 OFFCURVE",
"-299 44 CURVE",
"-381 14 LINE",
"-361 -36 OFFCURVE",
"-317 -65 OFFCURVE",
"-254 -65 CURVE SMOOTH",
"-249 -65 LINE SMOOTH"
);
}
);
width = 0;
}
);
category = Mark;
subCategory = Nonspacing;
},
{
glyphname = SubVa.alt2;
lastChange = "2019-12-16 17:27:24 +0000";
layers = (
{
anchors = (
{
name = _Anchor6;
position = "{-410, 0}";
}
);
layerId = UUID0;
paths = (
{
closed = 1;
nodes = (
"-116 367 LINE",
"-155 179 OFFCURVE",
"-243 67 OFFCURVE",
"-426 56 CURVE",
"-426 32 OFFCURVE",
"-426 9 OFFCURVE",
"-426 -15 CURVE",
"-371 -14 OFFCURVE",
"-306 0 OFFCURVE",
"-263 19 CURVE SMOOTH",
"-183 54 OFFCURVE",
"-111 132 OFFCURVE",
"-69 237 CURVE SMOOTH",
"-57 267 OFFCURVE",
"-48 299 OFFCURVE",
"-40 334 CURVE"
);
},
{
closed = 1;
nodes = (
"-431 -15 LINE",
"-426 -15 LINE"
);
}
);
width = 0;
}
);
category = Mark;
subCategory = Nonspacing;
},
{
glyphname = SubVa.alt3;
lastChange = "2019-12-16 17:27:24 +0000";
layers = (
{
anchors = (
{
name = _Anchor6;
position = "{-371, 152}";
}
);
layerId = UUID0;
paths = (
{
closed = 1;
nodes = (
"-142 64 OFFCURVE",
"-238 19 OFFCURVE",
"-292 19 CURVE SMOOTH",
"-330 19 OFFCURVE",
"-357 44 OFFCURVE",
"-357 81 CURVE SMOOTH",
"-357 106 OFFCURVE",
"-345 131 OFFCURVE",
"-324 161 CURVE",
"-387 204 LINE",
"-418 166 OFFCURVE",
"-440 121 OFFCURVE",
"-440 73 CURVE SMOOTH",
"-440 4 OFFCURVE",
"-394 -60 OFFCURVE",
"-301 -60 CURVE SMOOTH",
"-192 -60 OFFCURVE",
"-84 38 OFFCURVE",
"-36 172 CURVE SMOOTH",
"-31 186 OFFCURVE",
"-26 200 OFFCURVE",
"-22 214 CURVE",
"-97 245 LINE"
);
}
);
width = 0;
}
);
category = Mark;
subCategory = Nonspacing;
},
{
glyphname = SubVa.alt4;
lastChange = "2019-12-16 17:27:38 +0000";
layers = (
{
anchors = (
{
name = Anchor40;
position = "{-285, -213}";
},
{
name = _Anchor6;
position = "{-361, 0}";
}
);
layerId = UUID0;
paths = (
{
closed = 1;
nodes = (
"-285 -233 LINE SMOOTH",
"-193 -233 OFFCURVE",
"-81 -146 OFFCURVE",
"-29 -1 CURVE SMOOTH",
"-24 13 OFFCURVE",
"-19 27 OFFCURVE",
"-15 41 CURVE",
"-88 71 LINE",
"-133 -110 OFFCURVE",
"-231 -156 OFFCURVE",
"-285 -156 CURVE SMOOTH",
"-342 -156 OFFCURVE",
"-376 -130 OFFCURVE",
"-376 -93 CURVE SMOOTH",
"-376 -52 OFFCURVE",
"-346 -30 OFFCURVE",
"-319 -5 CURVE",
"-363 54 LINE",
"-425 0 OFFCURVE",
"-464 -27 OFFCURVE",
"-464 -103 CURVE SMOOTH",
"-464 -190 OFFCURVE",
"-374 -233 OFFCURVE",
"-294 -233 CURVE SMOOTH"
);
}
);
width = 0;
}
);
category = Mark;
subCategory = Nonspacing;
},
{
glyphname = Cauda_khar.short;
lastChange = "2019-12-16 17:27:38 +0000";
layers = (
{
anchors = (
{
name = Anchor38;
position = "{-120, -92}";
},
{
name = Anchor40;
position = "{-228, -12}";
},
{
name = _Anchor18;
position = "{-211, 3}";
},
{
name = _Anchor36;
position = "{-211, 3}";
}
);
layerId = UUID0;
paths = (
{
closed = 1;
nodes = (
"-353 16 LINE",
"-309 -3 OFFCURVE",
"-270 -12 OFFCURVE",
"-228 -12 CURVE SMOOTH",
"-151 -12 OFFCURVE",
"-99 18 OFFCURVE",
"-46 56 CURVE",
"-74 108 LINE",
"-125 71 OFFCURVE",
"-169 56 OFFCURVE",
"-223 54 CURVE SMOOTH",
"-258 53 OFFCURVE",
"-286 58 OFFCURVE",
"-324 72 CURVE"
);
}
);
width = 0;
}
);
category = Mark;
subCategory = Nonspacing;
},
